<mxfile host="app.diagrams.net" agent="Mozilla/5.0 (Windows NT 10.0; Win64; x64) AppleWebKit/537.36 (KHTML, like Gecko) Chrome/138.0.0.0 Safari/537.36" version="28.0.7">
  <diagram name="Page-1" id="uQaYhAECME0J1sWlYUqw">
    <mxGraphModel dx="1310" dy="785" grid="1" gridSize="10" guides="1" tooltips="1" connect="1" arrows="1" fold="1" page="1" pageScale="1" pageWidth="850" pageHeight="1100" math="0" shadow="0">
      <root>
        <mxCell id="0" />
        <mxCell id="1" parent="0" />
        <mxCell id="7OAMDePOKl8OXuFvk6ht-3" value="" style="endArrow=classic;startArrow=classic;html=1;rounded=0;" parent="1" edge="1">
          <mxGeometry width="50" height="50" relative="1" as="geometry">
            <mxPoint x="170" y="400" as="sourcePoint" />
            <mxPoint x="290" y="400" as="targetPoint" />
          </mxGeometry>
        </mxCell>
        <mxCell id="7OAMDePOKl8OXuFvk6ht-4" value="" style="endArrow=classic;startArrow=classic;html=1;rounded=0;" parent="1" edge="1">
          <mxGeometry width="50" height="50" relative="1" as="geometry">
            <mxPoint x="450" y="404.5" as="sourcePoint" />
            <mxPoint x="540" y="405" as="targetPoint" />
          </mxGeometry>
        </mxCell>
        <mxCell id="7OAMDePOKl8OXuFvk6ht-7" value="" style="endArrow=classic;startArrow=classic;html=1;rounded=0;" parent="1" edge="1">
          <mxGeometry width="50" height="50" relative="1" as="geometry">
            <mxPoint x="710" y="404.5" as="sourcePoint" />
            <mxPoint x="800" y="405" as="targetPoint" />
          </mxGeometry>
        </mxCell>
        <mxCell id="7OAMDePOKl8OXuFvk6ht-17" value="" style="swimlane;startSize=0;" parent="1" vertex="1">
          <mxGeometry x="160" y="830" width="580" height="400" as="geometry" />
        </mxCell>
        <mxCell id="lb-JzeNZJQvW_3VLoPYO-11" value="&#xa;&lt;span style=&quot;color: rgb(0, 0, 0); font-family: Helvetica; font-size: 12px; font-style: normal; font-variant-ligatures: normal; font-variant-caps: normal; font-weight: 400; letter-spacing: normal; orphans: 2; text-align: center; text-indent: 0px; text-transform: none; widows: 2; word-spacing: 0px; -webkit-text-stroke-width: 0px; white-space: normal; background-color: rgb(236, 236, 236); text-decoration-thickness: initial; text-decoration-style: initial; text-decoration-color: initial; display: inline !important; float: none;&quot;&gt;Github&lt;/span&gt;&#xa;&#xa;" style="verticalLabelPosition=bottom;html=1;verticalAlign=top;align=center;strokeColor=none;fillColor=#00BEF2;shape=mxgraph.azure.github_code;pointerEvents=1;" vertex="1" parent="7OAMDePOKl8OXuFvk6ht-17">
          <mxGeometry x="30" y="123" width="90" height="90" as="geometry" />
        </mxCell>
        <mxCell id="lb-JzeNZJQvW_3VLoPYO-13" value="circleCiÂ &#xa;start workflow" style="shape=image;verticalLabelPosition=bottom;labelBackgroundColor=default;verticalAlign=top;aspect=fixed;imageAspect=0;image=data:image/png,iVBORw0KGgoAAAANSUhEUgAABLAAAATBCAYAAAArX22rAAAgAElEQVR4AezdCbhkeUHf/eqefQaQbdhk54pwSV+66v/7V/VNs5SyxQiaKDdG0NEoDjFCCCKOvq9JJm7BJSqPJop5gwYXDCqoyGgAERUkEvZFFGaQJQzrMMMw+9J578HbMz0zvdzurrp1Tp0Pz8PTPd2365761uee/3JqGQz8TwEFFFBAAQUUaHmB1dXV08fj8T2SPDTJcDQaPTbJP661flOS85O8sJRyQZIfS/KiJL+Q5CWllF+vtb6ilPLqJK9L8hdJ3pbkPUkuOfT/tdZP11o/f/v/b9721Un+72H+f81hvvayQ2/zkN+/d+v7Nt/7zVvH8ntbx/bLtdb/0hx3KeU/bN2P5zT3q7l/tdZvSPLErfs8HI/HD9mzZ8/dWv6QOTwFFFBAAQUUUEABBRRQQAEFFFCgewWaTahSyn1rrY+qtT5uPB7/01LKs2qtP1hr/elSyq8k+YNa658necfW5s/nklx/mM2jw20o9fHPLi+l/F2Sdyb50ySv2ur4s5vN/n2t9Xmbf/9tm3//9U3z0Wj0yGYjsHt6HLECCiiggAIKKKCAAgoooIACCihwggVKKWeXUh62+Yyi/Um+sZTy3FrrjyR5aZI/3HyW1Fu3NliutAl12GdxLWrT7frNzcP/s7VReFGt9VeT/GQp5Xtrrd9SSnnyaDRaazYcNzY2TjlBHv6ZAgoooIACCiiggAIKKKCAAgooMNcCu4bD4f1Go9G+Wus/K6W8IEnzrJ7fTPJnST6QxKbU4V9auKhNqXl93wPNyyuTvLt5KebWyx3/n81nyH1rrfXxzQbmysrKGXPV6MYVUEABBRRQQAEFFFBAAQUUUKB/BZpnTjUvJxuNRk/ZehnfDyf571svQ2veG8rL9vqxOTXLTa9PJvnfzcsYa60vrrV+X5J/3jw7bzKZ3H8wGOzq30+ae6yAAgoooIACCiiggAIKKKCAAkct0LzR92g02nzSTNnYemPwl2y9eXizQXXAS/pa9ZK+WW4ktfW2mk3Rxl7zZvrNG+xf0Nhs3hNtOp2eelTM/lIBBRRQQAEFFFBAAQUUUEABBbpboJRyz+bT6Wqt357kR5O8vHkWTPPpeDaobFB1yMANpZQPJvmjJD+f5N+UUr62lPIIL0/s7vnJkSuggAIKKKCAAgoooIACCvSsQPNsqlLKY5Kc37w8a+tZLJd2aIOirc8KclzdeKlkY/11W/bPb34W1tbWzunZacDdVUABBRRQQAEFFFBAAQUUUKAVBXZvfaLf1zUvr9r6ZLi3erN0z6SyUXlYAzcnuTjJHyR5UZLzxuNxbGy14lzmIBRQQAEFFFBAAQUUUEABBZahwGQyucvmM0r2l1K+O8kv1VrfkuSLNioOu1HhWVLdeJZUWx6n5v3dPpzkNUl+cvOlic9oPrBgY2PjlGU4d7gPCiiggAIKKKCAAgoooIACCsylwHA4vF+t9Wlbb6T+ss03rn5/kubZI21Z8DsOj0UfDFy/9bP3slrr85qXITafxjmXH3o3qoACCiiggAIKKKCAAgoooECLC+waj8cPb57xkeRnkvyFl//ZpLNR2WoDNyZ5T5KXJXl+kunevXvv2uJzjENTQAEFFFBAAQUUUEABBRRQ4PgKDIfDByV5+tb777x+85PTrrBZ0erNij48y8h9nM2z6S5J8jtJXlhrfZz31Tq+c6OvVkABBRRQQAEFFFBAAQUUWFCB4XB4bvMywFrrDye5KMlnbFbZrGKgNwaaZ2q9M8kv1lq/vXlPrcFgsHtBpyPfVgEFFFBAAQUUUEABBRRQQIG/L7D5kqKHNp9qluQlW++b07wxtGe3aMAAAwcNXJnkTbXWF2+eIzbW1tbu5fypgAIKKKCAAgoooIACCiigwNwK7N+//85JnlRr/Xe11j/2UkAbdTYrGThBAx8qpfx6kueUUvZ4ltbcTttuWAEFFFBAAQUUUEABBRRY/gJbnwr4zFrrfymlvCvJTSe4WD34TAy/elYOAwwczsBlSX6/lPKCWmudTqenLv8Z1j1UQAEFFFBAAQUUUEABBRQ4oQKTyeTezUt8mpf6JHlbEi8HtNlwuM0Gf8bFvA1c1bzscOuDH544nU7PPKGTmn+kgAIKKKCAAgoooIACCijQ/QI2rLz8yzPqGOiIgebN4ZtN9Rc1HxJRSvmy7p+B3QMFFFBAAQUUUEABBRRQQIHDFmjePLmU8oxSyi9v/vrBjixc5/1MD7fv2UQMdM/ADUn+YvMc9u9rrf/QSw4Pe8r3hwoooIACCiiggAIKKKBANwo0i7pSymO2XobTPHvhZptWnnHDAANLaKB5yeHrSikXjEaj0o0ztKNUQAEFFFBAAQUUUEABBXpcIMlDk5xfa31Fkubj6z27RAMGGOibgU9unQPPbz6MosdDgruugAIKKKCAAgoooIACCrSjwNbLAjeSvCTJx21Y2bBjgAEG7mDgkq0Pp/CG8O0YuhyFAgoooIACCiiggAIK9KDA7uYlMs1LZbY+pcsnBXp2Td+eXeP+Mn8yBq5pXm5Ya31erfUBPRgz3EUFFFBAAQUUUEABBRRQYGcKrK2tndN88tbWs6w+4dkVd3h2xcksZv1bmyEM9NhAKeX9W+8T2Dw769SdOav7LgoooIACCiiggAIKKKDAkhQ4+F5Wm0+1enWS621a2bRigAEG5m7gs1vvnXVeKeXLlmQ4cTcUUEABBRRQQAEFFFBAgdkVaK78j0ajry6l/FySD1mozn2h6lk3PX7WjZ8vP1/bMNBcOPjSSw1LKQ+b3dneLSmggAIKKKCAAgoooIACHSuwvr5+VpKvK6X8SpLPbWNBZdPFpgsDDDCwGAMfqLX+x/F4nMFgsKtjw43DVUABBRRQQAEFFFBAAQWOr0Ap5eyt97N6WZIv2LTyTBAGGGCgcwY+dsinGnrfrOMbBn21AgoooIACCiiggAIKtLVAKeWeSZr3VGnez+o6i9XOLVY942Uxz3jRXfcuGPjs5nsWvqy5MLG6unp6W8chx6WAAgoooIACCiiggAIKHLbA+vr6lzcf057kTUlutmll04oBBhhYegOXNS8JH41GT11ZWTnjsIODP1RAAQUUUEABBRRQQAEFFl1gbW3tXrXWf5Xkz2xaLf1CtQvPDHGMnsHEwOIMNC8Rf3mSpzcvHV/0+OT7K6CAAgoooIACCiigQM8L7N27966HvDzwBs+wsHHFAAMMMHA7A9c0LyEvpWx4mWHPJw3uvgIKKKCAAgoooIACO1mguZreLES23tOq+ah1z3LQgAEGGGDgmAZqrZ9v3jNr8+XlTxwMBrt3cuzyvRRQQAEFFFBAAQUUUKAHBabT6ZnNS0GSvCrJtTatbNoxwAADDJykgY8m+YnxePzoHgyj7qICCiiggAIKKKCAAgrMs8BoNCpbH5fefNLUMa+u+xqNGGCAAQZOwMBfJ7lwMpl8xTzHNLetgAIKKKCAAgoooIACS1RgPB4/vNb6w5vvbfXhE1iE2OSy0ccAAwwwcMIGaq1vKaX868lkcu8lGlrdFQUUUEABBRRQQAEFFJhFgT179twtyfmb70vypiQHbFx5BgUDDDDAwIIN3JTkdd78fRajvNtQQAEFFFBAAQUUUKDDBVZWVs7Yel+r30/iEwQ9Y+KEnzGx4EWu42aXgSU3UGv9dJKfKaXs6fCw69AVUEABBRRQQAEFFFDgeAqUUh6R5EVJPmPjwTMsGGCAAQa6ZGDzGVnvL6VcMBwOzz2esc/XKqCAAgoooIACCiigQAcK7N+//86b72l1XvNyjC4tVByrhTUDDDDAwBEMXFdKeXXzEsPpdHpqB4Zih6iAAgoooIACCiiggAJHKtB8imCSlyT54hEWAF56s+QvvfG4W/wzwEAPDFzafGLuaDRaO9J46M8VUEABBRRQQAEFFFCgZQWaT26qtX5fkg/0YNFiA84GHAMMMMDAoQb+rJTyjOZ9Hls2PDscBRRQQAEFFFBAAQUUGAwGuzY/QfCJSX7XG7J7toWNSwYYYICBL73P40+UUh5mlqCAAgoooIACCiiggAILLlBK+bIk529+muD7LFYsWBlggAEGGLiDgZub939s3iurlHLagodt314BBRRQQAEFFFBAgX4VOOS9ra6yWLnDYuXQl5L4vZcWMcAAAwwcNHBp8ym8w+HwQf2aNbi3CiiggAIKKKCAAgrsYIHpdHpmcwV586WCb7JpZdOKAQYYYICBEzZwy7OyNjY2TtnBody3UkABBRRQQAEFFFBgeQuUUh5RSvm5JJdbrJzwYuXg1Xe/eiYGAwwwwMChBi4ppVxQSrnn8s4k3DMFFFBAAQUUUEABBeZXYHeSf5zktUkO2LiyccUAAwwwwMBcDVxTSvnlJP9gfkO7W1ZAAQUUUEABBRRQYEkKrK6u3ql5U/bNlwq+30JlrguVQ6+++71nYzDAAAMMHGrgTc1L9r28cEkmV+6GAgoooIACCiigwOwKlFLum+TCJJfZuLJxxQADDDDAQCsMXNy8vHDv3r13nd2I75YUUEABBRRQQAEFFOhgga1PE3xZkhstVlqxWDn0Crzfe0YGAwwwwEBj4MokL2nek7KDUw2HrIACCiiggAIKKKDAiRVYXV09fevTBP/SppVNKwYYYIABBjpj4EufXlhrfdpgMNh1YrMA/0oBBRRQQAEFFFBAgZYXmEwmd0nywiSfsFjpzGLFsy88+4IBBhhg4A4GSinvqrV+e3NRquXTD4engAIKKKCAAgoooMD2Ckwmk3s3729Va/28jSsbVwwwwAADDCyVgU81Y7z3ydrenMhXKaCAAgoooIACCrSwwGg0Wqm1vjjJtRYrS7VYucOVeI+vx5cBBhjovYEvNGP+cDi8XwunJA5JAQUUUEABBRRQQIE7FiilPKbW+ookN1nQ9H5BY7PLS48YYICBfhm4Lknz4SxfeccZgj9RQAEFFFBAAQUUUGDxBXY3b+qa5E02rWxaMcAAAwww0HsDN5dSXp1kvPgpiiNQQAEFFFBAAQUU6H2BUsppzZu4Jvkbi5XeL1Y8y6Jfz7LweHu8GWBguwZeW2t9Qu8nTQIooIACCiiggAIK7HyBlZWVM5I8O8mHbVzZuGKAAQYYYICBbRh4WyllYzAY7N75mYvvqIACCiiggAIKKNCrAlsbV+cn+fg2JqrbvTLr61zFZ4ABBhhgoD8GLkly/nQ6PbVXkyh3VgEFFFBAAQUUUGD+BdbW1s6ptT4vySdsXLnKzgADDDDAAAMzMNA8i9tG1vyncb6DAgoooIACCiiw/AX2799/562Nq0/OYKLq6np/rq57rD3WDDDAAAPbNWAja/mnlO6hAgoooIACCigwnwLr6+t3r7X+cJLLbVy5ys4AAwwwwAADO2Dg4iTf0XxAzHxmN25VAQUUUEABBRRQYGkKrK6u3qmUcoGNKwuVHViobPfKvK/zLA4GGGCgXwY+0jz7u3nfzaWZYLkjCiiggAIKKKCAArMpcPA9rmqtn7ZxYfOKAQYYYIABBlpg4KPNRtZ0Oj1zNrMdt6KAAgoooIACCijQ2QLr6+tnlVK+N8lnWjBRdYW9X1fYPd4ebwYYYICB7Rj4WPNm715a2NnppgNXQAEFFFBAAQVOvMDq6urpzWTQpwq6wm7jkgEGGGCAgY4Y+Egzd9nY2DjlxGdA/qUCCiiggAIKKKBAJwo0Vy+TnJfkko5MVrdzZdbXuILPAAMMMMBAfwy8r5SyMRgMdnVi8uUgFVBAAQUUUEABBY6rwO7NTatvtXHlKruNSwYYYIABBpbEwJtrrY8/rtmQL1ZAAQUUUEABBRRob4EkT0zyjiWZrLrC3p8r7B5rjzUDDDDAwHYMvG48Hqe9MzFHpoACCiiggAIKKHDUArXWmuQNNq5caWeAAQYYYICBHhh43Wg0Wjvq5MhfKqCAAgoooIACCrSnwHg8fnit9RVJDvRgsrqdK7O+xhV8BhhggAEG+mHg5q050EPbMzNzJAoooIACCiiggAK3KVBKuW+SX0xyo40rV9oZYIABBhhgoMcGrkvyM+vr63e/zWTJfyiggAIKKKCAAgosrsDq6uqdSikXJLmyxxNVV9b7cWXd4+xxZoABBhjYtoFa6+ebOdLKysoZi5up+c4KKKCAAgoooEDPC5RSTiulPDfJZ21cucrOAAMMMMAAAwwc0cDFSZ4+GAx29Xz66O4roIACCiiggAI7W2DrkwXfa6J6xInqtq/OaqghAwwwwAADvTHwV6WUx+zsrM13U0ABBRRQQAEFelhgNBo9MslrTLR7M9G2EeelMgwwwAADDMzYQCnl1aWUh/VwKukuK6CAAgoooIAC8y1QSrlnrfXFSW6yeWXzigEGGGCAAQYYOGkDNyR5STPHmu8szq0roIACCiiggAI9KLC6unp6rfV5Sb5gonrSE1VXsGd8BZtJJhlggAEGlsDAZd7ovQeTandRAQUUUEABBeZWYFeSf57kI0swMbRxZOOIAQYYYIABBlptoJTywVrr0+Y2s3PDCiiggAIKKKDAshWof/+/t9i4clWbAQYYYIABBhjYcQMXjcfjhy/b/NL9UUABBRRQQAEFZlZgfX397t7nascnqa2+GmzRwgMDDDDAAAMLMXBDMyebTCZ3mdlEzw0poIACCiiggAJLUGB3kvOSfNYkdSGTVJtYXtbCAAMMMMAAA4czcGkzRxsMBruWYL7pLiiggAIKKKCAAideYDQaPbaU8i4bVzauGGCAAQYYYICB1hp4a5Lxic/4/EsFFFBAAQUUUKCjBUop903ysiQHTFZbO1k93JVYf+YKPQMMMMAAA/00cHMzdxsOh+d2dPrpsBVQQAEFFFBAge0XKKWcVmt9XpIv2LiyccUAAwwwwAADDHTLQK31881cbmNj45TtzwB9pQIKKKCAAgoo0KECSZ6U5G9MVLs1UfV4ebwYYIABBhhg4DAG3llKeUyHpqIOVQEFFFBAAQUUOHqBWut9tl4u6CUH/XzJgcfd484AAwwwwMByGmjeCsLLCo8+Ffa3CiiggAIKKNCBAru2Pl3wc4e5amciu5wTWY+rx5UBBhhggIGeGWheVpjkfJ9W2IHZuUNUQAEFFFBAgdsWGI/Hj661vsXGlZccMMAAAwwwwAAD/TBQa/3zyWSyettZof9SQAEFFFBAAQVaWKCUcnaSC5PcYLLaj8mqx9njzAADDDDAAAOHGGjmgC+aTqdntnCq6pAUUEABBRRQQIHBoNb6tCQfOWQC4yUEPXsJgcfeAoYBBhhggAEGtgxcXEp5sjmyAgoooIACCijQmgLD4fB+SX7bhNWElQEGGGCAAQYYYOBQA7XWV6ytrd2rNRNXB6KAAgoooIAC/SuwsbFxSpLnJ7nq0ImK35u4MsAAAwwwwAADDBxi4LJa63d5k/f+rRfcYwUUUEABBRZeoNb6KG/SbmJ6yMTUy0W9XJQBBhhggAEGjmXgTd7kfeHTeAeggAIKKKBAPwpMp9NTSykXJLnO5oUNLAYYYIABBhhggIHjNPClN3lfXV09vR+zZ/dSAQUUUEABBXa8QK11b5K3H+ck5VhX4vy9q7UMMMAAAwwwwED/DLx7PB5nxye0vqECCiiggAIKLG+B9fX1s5qPQ05yk80rV1kZYIABBhhggAEGZmTgxmaOubKycsbyzqTdMwUUUEABBRTYkQKllMck+ZsZTVJcXe3f1VWPucecAQYYYIABBo5l4H2llMmOTG59EwUUUEABBRRYrgKTyeQutdYXJ7nZ5pWrrAwwwAADDDDAAANzNtDMOV+ytrZ2znLNqt0bBRRQQAEFFJhbgSRPSvKxOU9SjnUlzt+7WssAAwwwwAADDPTMQCnlg7XWx81touuGFVBAAQUUUKD7BUopZ2+915VnXfVssmiz0lV1BhhggAEGGGiRgQPNs7H2799/5+7PsN0DBRRQQAEFFJhpgeZKV5JLWjRxccXVJhoDDDDAAAMMMNBvAx9J8sSZTnrdmAIKKKCAAgp0s8B0Oj3TJwy64mrjkgEGGGCAAQYYaKmBLz0by3tjdXOt4agVUEABBRSYSYEk4yQfaOlkxRXXfl9x9fh7/BlggAEGGGDgUAPNKwX2z2QS7EYUUEABBRRQoBsFSimnlVIuSHKDzStXWxlggAEGGGCAAQY6YuDG5pUDq6urp3dj1u0oFVBAAQUUUOCEC5RS9iR5R0cmKYdedfN7V2EZYIABBhhggAEGGgPvHo1Gayc8IfYPFVBAAQUUUKDVBXbVWp+X5HqbV66yMsAAAwwwwAADDHTcwLXNKwoGg8HuVs/AHZwCCiiggAIKbL9ArfUBSf6045MUV1xdcWWAAQYYYIABBhi4vYHXN3Pd7c+MfaUCCiiggAIKtLJAkm9McpnNK1dZGWCAAQYYYIABBpbUwBeSnN/KybiDUkABBRRQQIGjF5hMJndJ8t+XdJJy+ytv/tvVWAYYYIABBhhggIHfLqXc8+izZH+rgAIKKKCAAq0pkGSc5EM2r1xlZYABBhhggAEGGOiZgU/VWv9RaybmDkQBBRRQQAEF7lhgOp2e2ryZZZIbejZRccXVFVcGGGCAAQYYYICBgwYO1FpfvLq6evodZ8z+RAEFFFBAAQUWWmDfvn0PTvIXNq5cZWWAAQYYYIABBhhg4EsG3joajVYWOkn3zRVQQAEFFFDg1gK11mcmudJExWSVAQYYYIABBhhggIHbGLii1vpNt86c/U4BBRRQQAEFdrzA+vr6Wc3To01SbjNJOfjUcb96GQEDDDDAAAMMMMDAQQMvW11dvdOOT9h9QwUUUEABBfpeYDQaPTLJe2xe2bxigAEGGGCAAQYYYGBbBv4mybDv6wj3XwEFFFBAgR0rkOS8JFeZqGxronLwqptfXYFlgAEGGGCAAQYYaD7s6MLBYLB7xybvvpECCiiggAJ9K7B///4711p/w8aVjSsGGGCAAQYYYIABBk7KwGtrrffp23rC/VVAAQUUUGDuBUajUUlysYnKSU1UXHV11ZUBBhhggAEGGGDgoIFLR6PRV899Iu8bKKCAAgoo0JMCu2qtz0tync0rm1cMMMAAAwwwwAADDMzUwE1eUtiTVZW7qYACCigwvwJ79uy52+YbTf6+ScpMJykHr7j51dVXBhhggAEGGGCAgYMGLhqPx/eY38zeLSuggAIKKLCkBWqte71k0MaVzUsGGGCAAQYYYICBHTPw8fF4vL6kywt3SwEFFFBAgdkX2PqUwatNVnZssnLwyptfXYVlgAEGGGCAAQb6beDGUsoFs5/hu0UFFFBAAQWWqMB0Oj2zlPLLNq5sXDHAAAMMMMAAAwwwsFADr9q7d+9dl2ip4a4ooIACCigwmwKllAcmeauJykInKq649vuKq8ff488AAwwwwAADhxr429FotDab2b5bUUABBRRQYAkKjEajp9ZaP2/zyuYVAwwwwAADDDDAAAOtMnBtrfW7lmDJ4S4ooIACCihw4gU2NjZOaT62N8nNJiqtmqgceuXN712JZYABBhhggAEGGHhZKeXsE5/5+5cKKKCAAgp0tMBkMrl3kjfYuLJxxQADDDDAAAMMMMBAJwy8czweP6Sjyw+HrYACCiigwPEXSDIupfwfE5VOTFRccXXFlQEGGGCAAQYYYOCggc8ledLxrwD8CwUUUEABBTpWoNb6zCTX2LyyecUAAwwwwAADDDDAQCcN3FRKuWAwGOzq2FLE4SqggAIKKHDsAtPp9NQkLzJJ6eQk5eAVN7+6+soAAwwwwAADDDBw0MBvra2tnXPslYCvUEABBRRQoCMFSin3rLX+ic0rm1cMMMAAAwwwwAADDCyPgVLKu7wvVkcWZQ5TAQUUUODoBWqte0spf2eisjwTFY+lx5IBBhhggAEGGGDgEAPeF+voSyJ/q4ACCijQ9gJJvjnJ1YcMbgefbuxXTz1ngAEGGGCAAQYYYGB5DBx8X6y2L1EcnwIKKKCAArcW2NjYOMX7XbkqZ+OSAQYYYIABBhhgoHcGXl5KOfvWlYHfKaCAAgoo0NIC4/H4Hkleb7LSu8mKK6jLcwXVY+mxZIABBhhggIGTMfD24XD4oJYuVxyWAgoooIACg8FoNHpkkottXtm8YoABBhhggAEGGGCg1wY+U2t9vDWSAgoooIACrSuQ5ElJLjdR6fVE5WSu1Pm3rvQywAADDDDAAAPLZeDGUsp3t27h4oAUUEABBfpbIMn5SW6weWXzigEGGGCAAQYYYIABBg41UGt98WAw2N3f1ZJ7roACCiiw8ALNm7U3A9KhA5Tfm7AwwAADDDDAAAMMMMDA7QxcNJlM7rLwBYwDUEABBRToX4H9+/ffOckf3m5g8rTv5Xrat8fT48kAAwwwwAADDDAwKwPv9ubu/Vs3uscKKKDAQguUUh6W5K9tXrmyxgADDDDAAAMMMMAAA8dh4NIk44UuZnxzBRRQQIF+FCilPCbJZ45jkJrVFRu34+ofAwwwwAADDDDAAAPdN3BtrfWZ/Vg9uZcKKKCAAgspUGv9Lm/W7gqbzUsGGGCAAQYYYIABBk7SwIFSyg8NBoNdC1nY+KYKKKCAAktbYFeSC09ykHK1rPtXyzyGHkMGGGCAAQYYYICBmRkopfyP9fX1s5Z2FeWOKaCAAgrsXIHV1dXTSym/bvPKVTYGGGCAAQYYYIABBhiYtYFa61smk8m9d26F4zspoIACCixdgT179twtyRtnPUi5PRMfBhhggAEGGGCAAQYYOMTAh0spj1i6BZU7pIACCigw/wLj8fghPmnQpOKQScXMniruNrligAEGGGCAAQYYOIyBy0aj0WPnv9LxHRRQQAEFlqZArbUm+dRhBhWbGN7zgAEGGGCAAQYYYIABBuZl4Lpa6z9bmoWVO6KAAgooML8Co9HoKUmutHnlqhgDDDDAAAMMMMAAAwwswMBNSZ4zvxWPW1ZAAQUU6HyBUsqzkty4gEFqXldw3K6rgwwwwAADDDDAAAMMdNBArfXFg8Fgd+cXWXwa+ZcAACAASURBVO6AAgoooMBMC+yutf60jStX2BhggAEGGGCAAQYYYKBFBn5zZWXljJmufNyYAgoooEA3C0yn01OTvLRFg5QrZB28QsaPiS4DDDDAAAMMMMDAnAz86d69e+/azdWWo1ZAAQUUmEmBtbW1c5JcNKeBxkaUjSgGGGCAAQYYYIABBhiYhYH3lVIeOJNFkBtRQAEFFOhWgfX19bsnebPNK1fKGGCAAQYYYIABBhhgoAMGLq217u3WqsvRKqCAAgqcVIHhcPigJB/owCA1i6s1bsNVPwYYYIABBhhggAEGlsPAFaWUrzqpxZB/rIACCijQjQKTyWQ1ycdsXrnKxgADDDDAAAMMMMAAAx00cH2Sp3dj9eUoFVBAAQVOqEApZZLksx0cpFwxW44rZh5HjyMDDDDAAAMMMMDALAzcVEp51gktivwjBRRQQIF2FxiNRk9NcrXNK1fZGGCAAQYYYIABBhhgYAkMHNhc37yw3aswR6eAAgoocFwFknxrkhuWYJCaxdUat+GqHwMMMMAAAwwwwAADy2PgRce1OPLFCiiggALtLFBK+d4kzdUJg7QGDDDAAAMMMMAAAwwwsIwGfnEwGOxu54rMUSmggAIKHLNAKeUCG1c27hhggAEGGGCAAQYYYGDZDZRSXrmysnLGMRdJvkABBRRQoFUFdtVaf3rZByn3z0SMAQYYYIABBhhggAEGDjHw+tXV1Tu1amXmYBRQQAEFjlhgdynllw85iS/jU4TdJ099Z4ABBhhggAEGGGCAgcMZ+KvxeHyPI66W/IUCCiigwOILbGxsnFJr/VWbV65CMcAAAwwwwAADDDDAQI8NvG99ff3LF79CcwQKKKCAAncoMJ1Oz0zyBz0epA539cWfuSrHAAMMMMAAAwwwwEA/DVy8b9++B99h4eQPFFBAAQUWV2Btbe2cJK+1eeUqGwMMMMAAAwwwwAADDDBwi4GPjUajlcWt1HxnBRRQQIFbCuzdu/euSd5skLplkHKFrZ9X2DzuHncGGGCAAQYYYICBwxn4ZK31UbcsoPxGAQUUUGDnCwyHw3OTvNPmlc0rBhhggAEGGGCAAQYYYOCIBj6V5B/s/IrNd1RAAQUUGKytrd0ryXsMUkccpA539cWfuSrHAAMMMMAAAwwwwEAPDdRaP19rrZaSCiiggAI7WGBr8+q9Nq9sXjHAAAMMMMAAAwwwwAAD2zZweSllsoNLN99KAQUU6G+ByWRy7yTvM0hte5Byha2HV9j8fPj5YIABBhhggAEGGDiCgStqrf+wvytK91wBBRTYgQK11vuUUt5/hBOxjRobNQwwwAADDDDAAAMMMMDAsQ1cNRqNvnoHlnC+hQIKKNC/ArXWByT5kM0rV5IYYIABBhhggAEGGGCAgZM2cPXmp7k/qX8rS/dYAQUUmGOBrc2riw1SJz1IuRp17KtRGmnEAAMMMMAAAwww0BcD1yX5ujku5dy0Agoo0J8C+/bte3CSD9u8snnFAAMMMMAAAwwwwAADDMzcwHW11qf1Z4XpniqggAJzKDAcDh9k82rmA1Rfria5n66cMsAAAwwwwAADDDCwPQPX28Saw4LWTSqgQD8KjMfjhyT5qCssNrAYYIABBhhggAEGGGCAgbkbuG40Gj2lH6tN91IBBRSYUYHJZHL/JJcYpOY+SLkitb0rUjrpxAADDDDAAAMMMNAHA817Yn3NjJZ1bkYBBRRY7gKTyeTeST5g88rmFQMMMMAAAwwwwAADDDCw4wauLqV81XKvOt07BRRQ4CQLrK2t3auU8n6D1I4PUn24muQ+umrKAAMMMMAAAwwwwMD2DFydZHqSyzv/XAEFFFjOAsPh8Nwk77V5ZfOKAQYYYIABBhhggAEGGFi4gatqrY9bztWne6WAAgqcYIG9e/feNcnbDFILH6RckdreFSmddGKAAQYYYIABBhjog4EvJBmf4DLPP1NAAQWWq0Ap5cuSvNXmlc0rBhhggAEGGGCAAQYYYKB1Bq6otdblWoW6NwoooMBxFlhbWzun1vrnBqnWDVJ9uJrkPrpqygADDDDAAAMMMMDA9gxcPhqNynEu93y5AgoosBwFSilnb74x4BttXtm8YoABBhhggAEGGGCAAQZab+CzpZQ9y7EadS8UUECBbRaYTqdn1lr/xCDV+kHKFantXZHSSScGGGCAAQYYYICBPhj41Hg8fvg2l32+TAEFFOh2gY2NjVOS/LbNK5tXDDDAAAMMMMAAAwwwwEDnDHx8OBw+qNurUkevgAIKHLvAriT/zSDVuUGqD1eT3EdXTRlggAEGGGCAAQYY2IaBUsoHJ5PJvY+9/PMVCiigQEcLJPlPNq9sXjHAAAMMMMAAAwwwwAADnTfw7j179tyto0tTh62AAgocuUCt9UcMUp0fpFyR2sYVKc45Z4ABBhhggAEGGOiJgb9sPln+yKtAf6OAAgp0rEAp5bk9OYHb4LHBwwADDDDAAAMMMMAAA30y8NqVlZUzOrZEdbgKKKDAHQskOS/JARtYrkIxwAADDDDAAAMMMMAAA0tp4HebD+u642rQnyiggAIdKVBK+SdJbjRILeUg1aerSu6rq6gMMMAAAwwwwAADDBzFQCnlVwaDwa6OLFUdpgIKKHBrgVrrE5JcZ/PK5hUDDDDAAAMMMMAAAwwwsPwGSik/d+uK0O8UUECBDhRIMk5ylUFq+Qcpj7HHmAEGGGCAAQYYYIABBg4aKKX8QAeWrA5RAQUUGAzG4/HDk3zm4AnMrwYzBhhggAEGGGCAAQYYYKA3Bpr3P362tbECCijQ6gLD4fDcUsoHDU69GZy8D8BR3gfAz4GfAwYYYIABBhhggIGeGrg5yTe2evHq4BRQoL8FJpPJXZK8o6cnaBs5NnIYYIABBhhggAEGGGCAgVsNXFtKeUx/V8juuQIKtLLA6urq6Ulea/PKFSYGGGCAAQYYYIABBhhggIEtA1eUUva0chHroBRQoJcFdiV5mUHKIMUAAwwwwAADDDDAAAMMMHA7Ax+vtT6glytld1oBBdpVIMnP3O4E5Wmztz5tVgstGGCAAQYYYIABBhhgoO8G3rt37967tmsl62gUUKBXBUopF9i8coWFAQYYYIABBhhggAEGGGDgGAb+dGVl5YxeLZjdWQUUaEeBzU8bfEaS5iNS+341wf1ngAEGGGCAAQYYYIABBhg4toGXDwaD3e1Y0ToKBRToRYEkT0pyg80rm3cMMMAAAwwwwAADDDDAAAPbNVBK+aleLJrdSQUUWHyByWSymuTy7Z6gfJ3BjAEGGGCAAQYYYIABBhhg4BADz1/8ytYRKKDAUheotd4nyUcOOfF4muyxnyarkUYMMMAAAwwwwAADDDDAwK0GDtRav2WpF8/unAIKLK7A2traOUn+t80rV04YYIABBhhggAEGGGCAAQZO0sB1tdbHLW6F6zsroMCyFthdSnnlSZ6gXHG49YqDFlowwAADDDDAAAMMMMBA3w1cNh6PH76si2j3SwEFFlCglPJzNq9cYWGAAQYYYIABBhhggAEGGJixgUuGw+G5C1jm+pYKKLBsBZKcP+MTVN+vMrj/rrQxwAADDDDAAAMMMMAAA1sGaq1/vrKycsayraXdHwUU2MECSb4myY02sFxlYYABBhhggAEGGGCAAQYYmJeBUsqv7OBS17dSQIFlKpBkmOSL8zpBuV2DHwMMMMAAAwwwwAADDDDAwEEDpZQfWKY1tfuigAI7UGAymdw/yScOnkj8alBhgAEGGGCAAQYYYIABBhiYs4Gbk3zjDix5fQsFFFiGAuvr62cleeucT0xe7+01/wwwwAADDDDAAAMMMMAAA7c3cE0pZbIMa2v3QQEF5ltgV5KX27xyZYUBBhhggAEGGGCAAQYYYGBBBj5ZSnngfJe+bl0BBTpdIMmFCzpB3X7X3X+7EsMAAwwwwAADDDDAAAMM9NfA+0opX9bpBbaDV0CB+RSotX5DkgM2sFxlYYABBhhggAEGGGCAAQYYaIGBizY2Nk6ZzwrYrSqgQCcLlFJGSa5uwQnKFZb+XmHx2HvsGWCAAQYYYIABBhhg4PYGfraTi2wHrYACsy9Qa71Pko/ZvHKFhQEGGGCAAQYYYIABBhhgoG0Gaq3fNfuVsFtUQIFOFZhOp2fWWt/SthOU4zFoMsAAAwwwwAADDDDAAAMMbBm4YTQaPbZTi20Hq4ACsy2Q5NcMCgYFBhhggAEGGGCAAQYYYICBlhv45GQyuf9sV8RuTQEFOlGg1vqDLT9B3f61z/7b6+EZYIABBhhggAEGGGCAgf4aePv6+vpZnVhwO0gFFJhNgVLK1ya52QaWqywMMMAAAwwwwAADDDDAAAMdMvDS2ayK3YoCCrS+wGQy+Yokl3foBOUKS3+vsHjsPfYMMMAAAwwwwAADDDBwGwOllOe2fuHtABVQ4OQKrK6u3inJe21eucLCAAMMMMAAAwwwwAADDDDQUQM3llK+6uRWx/61Agq0ucCuUsr/6OgJ6jY77u6DgZYBBhhggAEGGGCAAQYY6LWBy5I8tM0LcMemgAInWCDJ9zvB9/oEbxPQU68ZYIABBhhggAEGGGBgaQyUUt61trZ2zgkukf0zBRRoY4Fa6xOS3GgDywYWAwwwwAADDDDAAAMMMMDAEhn43cFgsKuN63DHpIACx1mglPLAJJ9ZohPU0lwx8JiYODDAAAMMMMAAAwwwwAADJ2eglPIDx7lM9uUKKNC2Auvr62clebsT4smdEPXTjwEGGGCAAQYYYIABBhhorYGbSylPbtt63PEooMBxFEjyUifZ1p5kPZPM+w8wwAADDDDAAAMMMMAAA7MxcNm+ffsefBzLZV+qgAJtKZDkOTavbF4xwAADDDDAAAMMMMAAAwz0xMD/Wl1dPb0ta3LHoYAC2yiQZJzk+p6cpFyxmM0VCx11ZIABBhhggAEGGGCAga4b+PltLJl9iQIKtKHA+vr63Uspf2fzylUWBhhggAEGGGCAAQYYYICBHhr41jaszR2DAgocvcDuzWdfXdTDE1TXrxI4fle6GGCAAQYYYIABBhhggIHZGLiq1vqooy+d/a0CCiy0QCnl39q8coWFAQYYYIABBhhggAEGGGCg5wb+djKZ3GWhC3TfXAEFDl+glPJVSW7q+UnKFYvZXLHQUUcGGGCAAQYYYIABBhjouoHfOvzq2Z8qoMDCCkwmk3snudTmlassDDDAAAMMMMAAAwwwwAADDNxi4DkLW6j7xgoocNsC0+n01CR/5gR1ywmq61cJHL8rXQwwwAADDDDAAAMMMMDAbAzckGT/bVfR/ksBBRZSIMlP2LyyecUAAwwwwAADDDDAAAMMMMDAYQ18bDgcnruQBbtvqoACf1+g1vq0JAecpA57knLFYjZXLHTUkQEGGGCAAQYYYIABBjptoNb6x4PBYLe9BAUUWECBffv2PbjW+nmbVzavGGCAAQYYYIABBhhggAEGGDi6gVrrDy5g6e5bKtDvAlvve/VmJ6ijn6D00YcBBhhggAEGGGCAAQYYYGDLwI211n/Y790E916BHS5QSvlxJ2EnYQYYYIABBhhggAEGGGCAAQaOy8DH1tfX777DS3jfToF+Fqi1Pj7JTU5Sx3WS6vTrtT3WHmsGGGCAAQYYYIABBhhgYGYGfqefuwnutQI7WKD55IQkn3DimtmJy8aWN6NkgAEGGGCAAQYYYIABBvpn4Nk7uJT3rRToXYFdSX7f5pXNKwYYYIABBhhggAEGGGCAAQZOysC14/H40b3bVXCHFdiJAkme7wR1UicoV1X6d1XFY+4xZ4ABBhhggAEGGGCAgcMaKKW8v5Ry9k6s530PBXpToJSyJ8m1NrBsYDHAAAMMMMAAAwwwwAADDDAwMwMv6c3GgjuqwLwLrK2tnZPkA05QMztBHXb3XV99GWCAAQYYYIABBhhggIFeGvjmea/r3b4CvShQa/1VJ9FenkRttHmqMwMMMMAAAwwwwAADDDAwfwNXjMfjh/Rig8GdVGBeBUopz7B5ZfOKAQYYYIABBhhggAEGGGCAgfkZqLW+pZRy2rzW9m5XgaUuUEp5YJIrnKTmd5LSVlsGGGCAAQYYYIABBhhggIHGQK31Py71JoM7p8CcCuxO8gYnUidSBhhggAEGGGCAAQYYYIABBnbEwM1JpnNa47tZBZazQJLvd4LakROU15PP//XkGmvMAAMMMMAAAwwwwAADnTBQSvm7yWRyl+XcaXCvFJhxgVrro5JcawPLBhYDDDDAAAMMMMAAAwwwwAADO27gpTNe5rs5BZavwMrKyhlJ3u0EteMnqE5cDeCCCwYYYIABBhhggAEGGGBg/gZKKRvLt+PgHikwwwJJftbJaP4nI401ZoABBhhggAEGGGCAAQYYOIqBz9Za7zPD5b6bUmB5CtRan5CkedM4zwbSgAEGGGCAAQYYYIABBhhggIEFGqi1/vFgMNi1PLsO7okCMyiwd+/euyb5qM0rm3cMMMAAAwwwwAADDDDAAAMMtMbAs2ew5HcTCixPgSQvd4JqzQnKVY4FXuXwc+DngAEGGGCAAQYYYIABBlpk4OrxePzw5dl9cE8UOIkCpZRntOiH0+aNzRsGGGCAAQYYYIABBhhggAEGtgzUWt8ynU5PPYllv3+qQPcLlFLum+QyG1iuMDDAAAMMMMAAAwwwwAADDDDQTgO11n/X/R0I90CBkyiQ5FVOUO08QXlcPC4MMMAAAwwwwAADDDDAAANbBm4spUxOYvnvnyrQ3QJJznMydDJkgAEGGGCAAQYYYIABBhhgoBMGPrC+vn5Wd3chHLkCJ1BgOBzer9b6eSepTpykvPbb6/8ZYIABBhhggAEGGGCAAQb+bynlp05gC8A/UaC7BZL8ns0rm1cMMMAAAwwwwAADDDDAAAMMdMrAzUn2d3c3wpErcBwFaq3/wgmqUycoV1pcaWGAAQYYYIABBhhggAEGGDho4APT6fTM49gG8KUKdK+Alw7auLJ5yQADDDDAAAMMMMAAAwww0G0DpZQf796OhCNW4DgKJLnIiarbJyqPn8ePAQYYYIABBhhggAEGGOi9gRtrrfU4tgN8qQLdKZDkO5zken+SO/iUU796+jEDDDDAAAMMMMAAAwww0G0Df72ysnJGd3YlHKkC2yiwvr7+5T510OaVDUwGGGCAAQYYYIABBhhggIHlMVBK+Q/b2BLwJQp0p0CSP3SSWp6TlMfSY8kAAwwwwAADDDDAAAMMMJDkhlrr3u7sTjhSBY5SoJTyDCc2JzYGGGCAAQYYYIABBhhggAEGls9AKeVdpZTTjrIt4K8UaH+B8Xh8j1rrp52klu8k5TH1mDLAAAMMMMAAAwwwwAADDDQGSin/tv07FI5QgaMUSPLfndCc0BhggAEGGGCAAQYYYIABBhhYagPXl1L2HGV7wF8p0N4CpZQnO0Et9QnKJ4Z0+xNDPH4ePwYYYIABBhhggAEGGJilgf89nU5Pbe8uhSNT4DAFSilnJ7nEBpYNLAYYYIABBhhggAEGGGCAAQZ6Y+D5h9ki8EcKtLdAkp9xgurNCWqWO/ZuyxUgBhhggAEGGGCAAQYYYKC7Bq4ej8cPae9uhSNT4JACtdaa5CYbWDawGGCAAQYYYIABBhhggAEGGOidgYsO2SLwWwXaWaB5vWuSdzhB9e4E5QpJd6+QeOw8dgwwwAADDDDAAAMMMDBrA9/Yzl0LR6XAVoEk/6/NK5tXDDDAAAMMMMAAAwwwwAADDPTawKV79+69q80SBVpZYDwePzzJtU5SvT5JzXrX3u25EsQAAwwwwAADDDDAAAMMdNPAL7Ry88JBKZDkIptXNq8YYIABBhhggAEGGGCAAQYYYCDJzePxeN1uiQKtKpDkm52gnKAYYIABBhhggAEGGGCAAQYYYOAQA+8ppZzWqg0MB9PfApPJ5C6llP9zCFBP7+zm0zs9bh43BhhggAEGGGCAAQYYYICBWRt4YX93TNzzVhWotb7Y5pUddgYYYIABBjph4ECST5VSPpjkbUleV0p5Za31V5P8fJIfK6VckOTZm1/zjNFo9NRa6+NHo1E55P+PTPLQg/8fj8f32LNnz92a/+/fv//OBycpze8P/vnBX0sp9zz470ope7Zu86tHo9FTSikbtdZvSXJ+KeUFtdYf2TqmX0vyh0nelOR9WxfNruGtE95mvQByexbVDDDAQDcNXD0ejx9ycI7gVwUWUqCUMkpyk0mkSSQDDDDAAAMLNfC5zQ2g9yd5Q631N5L8bLMRVUr5tiRfMx6PH11Kue/GxsYpC5kwzOGbNhtkzQfIlFIeU2v9hiTfk+TCJL+Y5PeTvD3JZ7hcqEsLzW4uND1uHjcGGJiHgYvmMB1wkwpsu8DuJP/LxNDEkAEGGGCAgbkb+EKSdzbPlkryn5I8p5TytZPJZHV9ff2sbY/cPfzCpk+z0VVrfUKzoVdr/XdJ/luSN3oLhLm7nccCyG1aWDPAAAMdNVBr/aYeTkXc5TYUaF5eYMFi4scAAwwwwMDMDFy5+Wypv9raXPn+5iV14/E4zUv02jDuL+sxNBtczcsZx+PxP03ywiQv2Xom26fZnplti82OLjb9DPgZYICBGRu4tHkP7WWdU7hfLS3QTKY3r/5+bsaYTW5MbhhggAEG+mDguublfrXWVzQvedt676dHDQaD3S0d9nt7WM17dzXv05XkvCQvKqW8Oskl5j8WdAwwwAADDJyYgVrrT/d2YuGOL6bA1pu99mGR4T5aTDPAAAMMnIyBD5dS/kfzzJ5a6z8aDocPWszI7bvOssDa2tq9tt54/ge2NiI/lKR5g/yTseLf6scAAwww0AcDNzRvgTDLcdltKXDEArXWx5mkmaCapDPAAAMM3MHAJ5o3Dy+l/FCzWeWlf0ecSizlXzQvidiaI/2bUsqvJ7nYz8gdfkb6sDBzH21AMMAAA8c28PqlnAy4U+0qMJ1OT03yXhMyEzIGGGCAgZ4baN5U/Y9qrT+y+ebqXz8cDu/XrhHb0bShwHA4PHc0Gj01yY8meX2Sxo2FjQYMMMAAA7030LyFQhvGasewxAVKKc818TLxZIABBhjooYHPJnlVkubZNaONjY1Tlni4d9fmV6D5BOd/UGv9V0l+K8mlPfxZ6v2izWNuDGWAAQa+ZOCjpZSz5zfkuuVeF1hfX7+7N253snWyZYABBnpi4FPNG3aXUi5o3sTbG6z3ego01zuf5KFbbxLffPrhh3vy82UTy7NPGGCAAQb+b/NM9rkOsm68vwWS/JJJlYUrAwwwwMCSGmg+WfflSb5zPB4/vL+jvXu+6AJbG1rP3nym1u/UWj+/pD9vFq4WrgwwwAADjYHrRqPRyqLHXt9/yQpsvintMMlNJlEWrgwwwAADS2Lg5iRvS/KiJE8spZy2ZEO3u7MEBZqXqjbPAGyeCZjkdUmuX5KfPwtXC1cGGGCAgS8ZqLX+8RIM2e5CiwrsSvIXJkwWrQwwwAADXTZQa/10kl8rpTyjlHLPFo2zDkWBbRXYv3//nWut35DkpVueLQAtABlggAEGOm+g+cCTbQ2EvkiBYxVoJvpdXrA4dgtuBhhgoLcGDiR5aynlh8bjcbyP1bFGfH/fsQK7SymTrU84fKfzXG/Pc51fuLLLLgMMJLl4Op2e2bFx2OG2rcDa2to5m+8H8nEnFScVBhhggIGOGGhe7v5ntdbn1Vof0LZx1fEoMK8CjfetTzd8vbd9cL7uyPna5ptnDjHAwC0GmguO8xoj3W5PCmxd1bsFlcHQhIgBBhhgoIUGbmjePyHJ+Wtra/fqyRDtbipwxALNS2RLKc9K8kfeN8s5u4XnbGsLmxYMMHA4A1eXUh54xMHNXyhwtAKllIcludagZ+LDAAMMMNBCA9ck+b0k5+3Zs+duRxvP/J0CfS6wd+/euyb51q2fl+ta+LN8uEWMP7O4ZYABBvpp4Df7PGa77ydRIMmrTHIsWhlggAEGWmSgeXngH9Van9m8xP0khjj/VIFeFtjazPrOJG9I0nwSpwWiBgwwwAADbTJwoHl/x14O0u70iRdIMjWpMaljgAEGGGiDgVLK+0spF5RS7nviI5t/qYAChxYYDof3a94rLsmb2vBz7hiMNwwwwAADjYFa61sGg8GuQ8csv1fgaAV2J3m7E4gTCAMMMMDAAg00HyDyolrro442YPk7BRQ4+QKllEdsve+pD+7xTIw2PRPDsfDIQE8NbF683Dj50c0t9KJAKeXbFrhgcZLq6UmKORslDDCQ5Jpa6ytqrU+bTqen9mLQdScVaFeB5iLmE5O8LMnVzsvOywwwwAADCzLw4ZWVlTPaNUQ6mtYVWF9fPyvJxxaE1OaVzSsGGGCgnwb+anPs+Y5SytmtGxgdkAI9LbC+vn73Uspzk7zDvNAClgEGGGBgAQZe2NMh2N3eboEk/+8CYFqw9nPB6nH3uDPQbwNXJnlJkuF2xyhfp4ACiynQ/Jxu/bx+0TzRIpYBBhhgYIcMXDEcDs9dzMjnu7a+wNra2r2SfGGHMFq49nvh6vH3+DPQXwN/3bwh+549e+7W+oHRASqgwG0K7N+//85Jzi+lvMt80QKWAQYYYGAHDPzCbQYi/6HAwQJJfmkHAFq09nfR6rH32DPQXwPXNe9t1by3zsExx68KKNDtAqPRqGw9K+sa80eLWAYYYICBORm4yQf6dHu+MJejn0wmq5svH7xxTugsWvu7aPXYe+wZ6LGBzQ8F+bvNZ/Y+f+/evXedy+DlRhVQYOEFmmfwl1L+bZJPmkdawDLAAAMMzNpAKeXVCx/sHEC7CiR5zayhuT0nLwYYYKC3Bt6e5DyfJNiusd7RKDDPAqurq6c3H3tea32Lc39vz/0uWvX4opWfez/38zRQSnnyPMcwt92hAqWUr5onNrftZMYAAwz0wsDNzRUyLxPs0ATAoSowpwKllMdsvWzYs/ttaNjUYoABBmZh4N0bGxunzGnYcrMdKrA7yTstLnuxyWrdTwAAIABJREFUuJzFicNtGIAYYOD2BppPJfv5UsrDOjT2OVQFFNiBAs15oZTyn5N4nyxjx+3HDv/NBAMMHK+B79iBocu3aHOBWuszbV7ZvGKAAQYYOAEDnyil/IBPE2zzKO/YFGhHga1Puv6xJJefwLnmeBc4vt6imAEGGFhOAx+fTqdntmNkcxQ7XqCUclqSi00kLFwZYIABBo7DwEdrrc8zgdjxYds3VKDzBVZXV+/UnD+SfPw4zjkWosu5EPW4elwZYOC4DZRSXtD5wdAdOLECSb7H5MGilQEGGGBgmwaaCx7f0Vz8OLFRx79SQAEF/r7AysrKGaWUZ7mQavzZ5vhz3Itct8sWA0tr4HOTyeQuxtOeFVhbWzvHxx0v7Q+1Qd7VDAYYmKWBS5Kc7xMFezZRcHcV2JkCu5tPLkzytxab5qUMMMAAA9sxUGv94Z0ZonyX1hQopfzQdnD4GicRBhhgoJ8GNheV709yno2r1gzdDkSBZS5wcCPrb4w5/RxzPO4edwYYOA4DX5xMJvde5kHRfTukwHg8vkeSK44DyCyv5LstzwxhgAEGWmyglPKuJE8fDAa7Dxk6/FYBBRSYe4Fmw7zZOPeMLAtZ6xQGGGDgaAZqrS+e+6DkG7SjQCnlp46Gwd85WTDAAAO9NPCR5qWCNq7aMVY7CgV6XuDgM7I+bDzq5XjkQleLL3T5mfQz2RID1yd5aM/HyuW/+8Ph8H5Jrm4JOoOTwYkBBhhYvIHPllIuaN5UeflHQfdQAQW6VGB1dfX0ZmM9yafMXS2aGWCAAQYONVBr/dUujWmO9QQK1Fr/66EPut87CTDAAAO9NXBVkhf5JJcTGEz9EwUU2NECq6urd2o22r0FRm/HKxe7Fn+xy2PgMWijgZvH4/Gjd3RA8s12rkCSr0xyo8WqwZ8BBhjotYHrSyk/NxwOz925Ech3UkABBU6+QHPeas5fSZqXjrRxMeWYPC4MMMDAzhp41cmPLm6hlQVqra8w2JvsMMAAA701cHOSX9u3b9+DWzlIOSgFFFBgmwVGo9FKkt81nvV2PLNBsLMbBHrr3WYDB0aj0b5tDh++rCsFmqfWJTlgoDfQM8AAA7008MZa696ujFmOUwEFFNhOgdFo9NgkbzWu9XJca/OC2rHZ8GFgZw28YTtjhq/pUIFSyisN7gZ3BhhgoHcGPlpK2ejQcOVQFVBAgeMtsKvW+swkHzPG9W6Ms0mws5sEeuvdWgOllCcf7+Dh61taIMnQs68M6CZ1DDDQKwPXJLmwlHJ2S4cmh6WAAgrMtMD6+vpZpZQf8mnbvRrrWruYNufikIEdN/CXMx1U3NjiCmxuYP2+H6Ad/wEyoLpCwQADCzFQSnn1eDx+yOJGHd9ZAQUUWFyB9fX1L0/yMnNfc18GGGCgXwY8C2txY+/MvnMpZeTZV/36wXWi9ngz0FsDHxiNRk+Z2QDihhRQQIEOF0gyTfJeY2Jvx8SFXETijTcGFmrAs7A6PG5/6dCT/IEfooX+EBk8PQuHAQbmbeBzpZTv3tjYOKXrY5bjV0ABBWZZoJRyWpLnb/7/C+bD5sMMMMDA8hvwLKxZjqI7fFu11urZV8v/Q+pE7DFmoNcGXjYcDs/d4eHFt1NAAQU6VaDWep9a628YL3s9Xs77YpLbd8GSgXYYeHOnBigHe2uBJK8xUBuoGWCAgaU0cImXC9463vmdAgoosJ0CtdbHJ/mAcXEpx0WbB+3YPPA4eBwWbsCzsLYzIrbsa0ajUfHsK4OzCRoDDCydgRtrrS9eW1s7p2XDjsNRQAEFOlGg+bTC5lNak1xnjFy6MXLhC2emmGKgFQa8F1YnRuRDDjLJH/nhacUPj4HUVQgGGJiVgXc0FycOOdX7rQIKKKDACRaYTCZfUWv9E/Nl82UGGGBgKQ086QSHB/9spwuMx+N1P4RL+UM4q0Ww27GhwkC3DFxZSnnuYDDYvdPjie+ngAIKLHmBXUme7U3ezZutnRhgYOkMeC+srgzgSf7QD+DS/QDacOjWhoPHy+M1KwO/N5lM7t+V8cdxKqCAAl0sUGt9gFcvmDtbPzHAwNIZ8Cystg/K4/H40d77aul+8Ga1EHY7NlUY6I6BK5Kc3/Yxx/EpoIACy1SglLKR5HMWsebSDDDAwFIY8F5YbR+ka62v8MO2FD9sNhq6s9HgsfJYzdrA//Ssq7aPto5PAQWWtUCt9T5Jftd82nyaAQYYWAoDT1zW8arz96uU8ogkN/tBW4oftFkviN2eTRYG2m/gyq1nXe3q/IDkDiiggAIdL1BrfWaSy8yrzasZYICBTht4U8eHo+U9/Frrr/rh6vQPlw2G9m8weIw8RvMy8ObRaLSyvCOUe6aAAgp0r8DWs7G8t6yxf15jv9tli4EdMFBrfVz3RqAlP+KtN5+83gaWDSwGGGCgUwauLaVc4BMGl3yQdvcUUKDLBZpPKjw/yVXG106NrzYGdmBjwM+En4mOGHhNlwehpTz2Usp/7ggeg4nBhAEGGPh7A3/VvPR7KQcld0oBBRRYsgJJHprkTebbFuwMMMBAJw0Ml2xY6u7d2Xp687V+kDr5g2QhbzOHgf4ZuKmU8h+m0+mp3R15HLkCCijQvwKllNOa83eSG827zbsZYICBThn4zf6NWi29x0l+0g9Pp354bFj0b8PCY+4xP2jgU6WUJ7d0OHFYCiiggALbKFBrrUkuNv82/2aAAQY6Y+Am7ze7jQFu3l+yvr5+9yTNJ1cdXBz5VQsGGGCgnQZe2zxjdt7jgttXQAEFFJh/gclkcpckv2kObg3CAAMMdMNA87ZL8x8dfIejFkhyoR+YbvzAeJw8Tgz01kDzUpMLvVH7UYczf6mAAgp0skCS87zBe2/HdxcM23nB0OPicTmSgebDk+7bycFmGQ56bW3tnCSfsyg2aDLAAAOtNfCh8XicZRhz3AcFFFBAgcMXqLU+Ksl7jcWtHYuPtJj15zY6GOiZgVLKjx/+TO5P514gyfcYKA2UDDDAQDsN1Fp/o3mJydwHA99AAQUUUGDhBdbX189K8kvG5HaOyR4XjwsDDGwZuML8fAFD5sbGxinePNIPoRMxAwy00sBVtdZ/sYChwbdUQAEFFFhwgVrrt3hJYSvHZs+06dkzbcyR/RweyUAp5YIFDxX9+/allI0jPSD+3A8rAwwwsDADHxqNRmv9G5XcYwUUUECBgwVKKY9I8j5j8cLGYptVNqsYYOBoBj41nU7PPHjO9usOFKi1vsWgaFBkgAEGWmXgoj179txtB4YA30IBBRRQoOUFVldX75Tk5cbpVo3TR1vQ+jsbHgz0y8D5LR9GlufwRqPRYw2GBkMGGGCgNQYOJHmRTxlcnnHWPVFAAQVmVSDJ+UmuN2a3Zsy2SdGvTQqPt8f7SAYuad6WaVbnerdzlAJJXmUQNAgywAADrTBw+Wg0eupRTtn+SgEFFFCg5wXG4/H65kbWpcbtVozbR1rM+nMbHQz0z8DTez48zf/uj8fjhye52QBoAGSAAQYWbuADo9HokfM/8/sOCiiggAJdLzAcDu/nLUAWPm7boOjfBoXH3GN+NANv6vrY0vrj9/G8Bj6bFgww0AoDL19bWzun9YOGA1RAAQUUaE2BlZWVM2qt/9U43opx/GiLWn9n04OB/hgYt2aQWLYDGQ6H5ya5xqBn0GOAAQYWZuCmUsr3Ltv44v4ooIACCuxcgSTfk+QGY/nCxnKbE/3ZnPBYe6yPaqDW+hs7d/bv2XdKcqGBzkDHAAMMLMzAF2utT+vZ0OPuKqCAAgrMoUAp5TFJPmlMX9iYftRFrcfF48JAbwzcMJlM7j+H03y/b3I6nZ6Z5DN+kHrzg2RQdbWAgXYZ+EgpZU+/RyL3XgEFFFBglgWGw+GDkrzH/N78ngEGGFicgVLKj8/y3O62BoNBku+EenGotdeegV4b+Kta630MRgoooIACCsy6wOrq6p2S/IF5Rq/nGS5atuuipcejZ49HrfXz3tt2xqNbkrcZ2AxsDDDAwI4b+J1SytkzPqW7OQUUUEABBW4psLGxcUqSFxnjd3yMt1HRs40KP2N+xo5i4Nm3nJT95uQK1Fofd5TQTrxOvAwwwMAcDNRaXzwYDHaf3Bncv1ZAAQUUUGB7BZKc783dLbCt+xhgYCEG/ta8f3tj1TG/KslvQ7wQxDYF5rApwDLLHTBwfSnl2455cvYFCiiggAIKzLhAkiclubwDY6V5snkyAwwslYFa6z+a8Sm9fzdXSnlgkhsNYhb9DDDAwI4YuCzJtH+jjXusgAIKKNCWArXWRyX5qHF/R8b9pVqAM8MMAyduoNb6x20ZBzp7HLXW/wjhiSPUTjsGGDgOAx9J8pWdHTAcuAIKKKDA0hQYDof3S/LO4xjDbMR4NgwDDDBwkgZ86vhJDKPr6+tnJfmcgcsCnAEGGJivgVLK+yeTyf1P4pTtnyqggAIKKDDTAvv3779zkv9pDjDfOYC++jLAwCEGXjLTE3mfbizJdx4S0m7qSe6maunExAADRzDwF3v27Llbn8YX91UBBRRQoBsFVlZWzkjyW0cYv6wPrA8YYICB2Rq4Zjwe36MbI0TLjrKU8i6DlQU3AwwwMFcDf9A827Vlp3+Ho4ACCiigwKEFdiW50HxgrvMBmwCz3QTQU8/OGiilvODQE7Dfb6NArfXxBimDFAMMMDBXA//fdDo9dRunZF+igAIKKKDAwgskeWGSA+YGc50bdHbRzQUXDMzMwIcGg8GuhZ/0u3QASX4XwJkBNBC5AsAAA7c38GMGpi6Nio5VAQUUUKApUEp5VpKbrBOsExhggIH5GSilPNmos80CpZT7JrkRyPmB1FZbBnpr4ECt9fu2eTr2ZQoooIACCrSuwOanE359kmvNZXo7l7n9RTn/7UItAzM2UEp5ZetO/m09oM3B6N8bkAxIDDDAwMwNNBcGvrmt537HpYACCiigwHYLjEajpyS5ylxh5nMFGwEz3ghglNGOGrjRJ5RvY0Ta2Ng4JclHO/ogO+E74TPAQFsN3FBr/YZtnIZ9iQIKKKCAAp0oUGutST5n3WCDgAEGGJiLgQs7MRgs8iCTfB18c8HX1kW147Lhw8D8DVxXa33aIs/tvrcCCiiggALzKDAejx9da/209YP1AwMMMDBzA5/wgU/HGLmSXATezOHZIJj/BoHGGrfVgM2rY4w7/loBBRRQoNsFSimPSPIJawhrCAYYYGC2BryC4yjjYynlgT5VZLbg/ADryUCvDVyd5ElHOe36KwUUUEABBZaiwHg8fniSj5v39Hre09aLiY7Lhe4uG3jtUgwS87gTSX7MoGPQYYABBmZi4KrRaPTV8zhXu00FFFBAAQXaWGDfvn0PTvJh84iZzCO6vOB27DaMGJidgQPNBYI2nvMXekyllNM89ddgY8LBAAMzMfDFJNOFntR9cwUUUEABBRZQYOsVHRebT8xkPmETYHabAFpq2VkDtdafXsDpvN3fspSyYaAx0DDAAAMnbeDyUsqk3Wd8R6eAAgoooMD8CtjEOum5RGcX2uaRHnsG5mLgc+vr62fN76zdwVtO8nrY5oLNAGS3n4H+GLhiPB6ng0OAQ1ZAAQUUUGCmBZpNrFLK31lfWF8wwAADJ29g83z6bTM9SXf5xiaTyVckOQDWycPSUEMGemvgqiT7uzwWOHYFFFBAAQVmWWA8Hj8kycfMjXo7N3IRtz8XcT3W83+s/3KW5+dO31Yp5acMLAYWBhhg4IQNXFtrfUKnBwIHr4ACCiigwBwKjEajFe+ze8LzC5sC898U0FjjzhgYjUaPnMNpuls3OZ1OT03ySQtXAwsDDDBwQgZuqLU+rVtnfkergAIKKKDAzhVoPkEryaXmGSc0z+jM4trj6/FlYO4GfmLnztwt/U6llH8C2tyhGXjs7DOwnAZuSvLPW3p6d1gKKKCAAgq0pkCSr3TR3JrDupMBBk7KwKdKKae15sS+iANJ8nsQnRQiGxPLuTHhcfW4HsvAzUnOW8R52/dUQAEFFFCgiwVqrXuTXG7tYe3BAAMMnLCBr+vi+X8mxzyZTO6d5AZ4ThjPsRa4/t4mCAPLaeBAKeW7Z3IidiMKKKCAAgr0qMBoNNqXpPngE3MkDRhggIHjNFBKeWWPhozb3tVa6/cZPAyeDDDAwHEb+P7bnk39lwIKKKCAAgpst0CSJya5zvzjuOcfFvvHudhnjLElNHBjrfU+2z3fLtXXJXnfEj6gTuxO7AwwME8DFy7VQODOKKCAAgoosIACtdZvStK8HH+eY7bb1pcBBpbOQCnlBQs4bS/2W5ZSJgYMAyYDDDCwfQO11v+62DO3766AAgoooMDyFKi1fnuSA+Yi25+LaKUVAww0T0RanpFgm/ckyS/BDz8DDDCwPQOllFdPp9NTt3mK9WUKKKCAAgoosI0CpZQfMBfZ3lxEJ50YYOCggeYJSds4xS7Hl6yvr5/lE0DgP4jfrywwcEwDb11bWztnOUYA90IBBRRQQIF2FUjys+Yix5yLLN3LoDzmHnMGTsrAL7brTD7Ho6m1fgssJ4XFAOK11Az0x8DFa2tr95rjKdlNK6CAAgoo0PcCu5P8tvWJ9QkDDDCwbQNXlFLO7sXgUWv9EzC2DcNGRX82KjzWHuvbG/jMZDL5il4MDO6kAgoooIACCyywurp6ujWK9Yk1KgMMbN9ArfWZCzxt78y3Hg6HD/KJH9tH4QdIKwZ6a+DK0WhUdubM7LsooIACCiigwPr6+t2T/LW5V2/nXre/kOi/XVxm4CgGmk3/pR85vFGiAcGkgAEGjmnghtFo9JSlHxDcQQUUUEABBVpWYOti+yfMVY45V7GwP8rCnh9+emLg5uac2bLT+GwPp/nIxZ48mE7qTuoMMHAiBg6UUr5ttmdet6aAAgoooIAC2y1Qa92b5EprFpsQDDDAwNENNE9Q2u65tXNftzUYnMiCzr+xEcAAA30x8KOdO7k7YAUUUEABBZasQJKvSXKTxevRF6/66MNA7w28e8lO/7fenVLKTwHee+B92YRwP224HbeBUsorB4PB7lvPmn6ngAIKKKCAAosqkOT51i7WLgwwwMDRDZRS9izqPD3P79t8PO3HPfhHf/D10YeB3hp459ra2jnzPAm7bQUUUEABBRQ4vgKllP9sbtbbudlxX4xkhZU+Giil/PjxnVk78NWj0eir+/hgus9OYgwwsA0Dn6y1PqADp3KHqIACCiigQK8KTKfTU5O8dhtjuc0Oz75ngIG+GvjoYDDYtVSDQ5L/5sRvIc8AAwzcwcC1o9Fo31Kd8N0ZBRRQQAEFlqjAZDK5S5L3msPcYQ7T18W6+22jioHbGSilPGZpTvvT6fTMJFc46TvpM8AAA7cxcKDW+sylOdm7IwoooIACCixpgVLKw5JcZh5zm3mMRfztFvF88NFXA7XW/7I0p/8kT+/rA+l+O4kxwMBRDPjEwaUZ6dwRBRRQQIFlL1BrfUKSG48yrtvQsaHDAAN9NXDZ6urq6UsxDiR5lRO9RTwDDDBwqwGfOLgUw5s7oYACCijQswKllBeYz9w6n9FCCwYYOGiglPK1nR8S9uzZc7ck1x28U34FnAEGGMh7fOJg54c3d0ABBRRQoKcFSim/bi5jPssAAwzcwcBvdn5YKKU8ywN7hwe2r08rdL89pZaB5Avj8fjhnT+5uwMKKKCAAgr0tMD6+vpZSd5ujWONwwADDNzGwFWrq6t36vTQkOR1HtTbPKgW8DZxGOivgQObn2L0jZ0+qTt4BRRQQAEFFBjUWh9Qa/20dY51DgMMMHCrgU5/QFUp5Z7e6PDWBxNsLRjovYGfNOdXQAEFFFBAgeUokGRqrdP7uZ0L0/29MO2xP/xj/5rOnuFrrd9lwe6kzgADDHzJwBun0+mpnT2hO3AFFFBAAQUUuEOBUsoF5jnmugwwwMAtBm4Yj8f3uMPJsgt/kOT1HshbHkg7tIffodVFlz4Y+ORwOLxfF87bjlEBBRRQQAEFjqvAruaTha15rHkYYICBWwx8x3GdRdvwxV4+eMuD14fFuftoE4qBIxu4cTQaPbYN52XHoIACCiiggAKzL7B37967JrnE4tX6hwEGGPiSge69jLCU8i89eH6AGWCAgfyb2U+V3aICCiiggAIKtKnAeDx+dJJrzHvMfRlggIHcsGfPnru16Rx9zGOptf6JB84PLwMM9NzAqwaDwa5jnjB9gQIKKKCAAgp0vkCS83s+7/GM/CM/I18bbXploNb6LZ05qa+trd3LJ3LYuDCAM9BzAx/av3//nTtz4nagCiiggAIKKHDSBZL8Ws/nP71apHusrXcYOKKB3zvpE+pO3UAp5bs9kEd8IJ3U7b4zsPwGmve92rdT51zfRwEFFFBAAQXaUWB1dfVOSf7GWshaiAEGem7g2s5czE/yhp4/WDYoln+DwmPsMT6igeYjtdsxjXYUCiiggAIKKLDTBUajUUlyvfWQDQwGGOizgVrrN+30+fe4v99wODzXywf9oPb5B9V9773/N25sbJxy3CdP/0ABBRRQQAEFlqZAKeV7zQl7Pyc84sVONtjog4Fa6ytaf1L35oV+GPvww+g+cn4EA58dDof3a/2J2gEqoIACCiigwLwL7Epy0RHmCzY2PJOfAQb6YOCq9fX1s+Z9sj2p20/yR07UFvcMMNBTA19/UidQ/1gBBRRQQAEFlqbA1itTLu3pnKgPi3P30SYUA8cwMB6P/2lrT+rNm3Qluc5J2uYFAwz00MAvtPbk7MAUUEABBRRQYCEFkjwxyc09nBdZ2B9jYc+E9VIfDJRSfn0hJ9/tfNNa6z/rw4PgPjrZMMDA7Qy8r/VPj93OSdzXKKCAAgoooMDMCyT5mdvNG2zu2NxhgIG+GLhyOp2eOfMT6yxusNb6G07OFvYMMNAzA9eORqO1WZxD3YYCCiiggAIKLF+BlZWVM5K8p2fzo74szt1PG1EMHMPAaDR6auvO7KWU05Jc7sRs84IBBvpkoJTyr1t3QnZACiiggAIKKNCqAkmGSa7v0xzJfbUmYICBLQMvbdUJuTmYJE8CFFAGGOiZgTcNBoPdrTshOyAFFFBAAQUUaF2BWusP9mye5Jkpx3hmCg/WTn0wUGv9dOvWTEl+oQ/x3UcnGQYY2DJw9Wg0Wmnd7NgBKaCAAgoooEBbC+xO8kZzSXNJBhjom4HRaLSvTSfmXUk+2rcHwf114mGg1wae06aTsGNRQAEFFFBAgfYXSPLQJFeaQ/Z6DumZaZ6Z1kcDP9qaM/RoNCpOwk7CDDDQIwNvGAwGu1pzEnYgCiiggAIKKNCZAqWUf9mjOVMfF+rusw0qBm5noJTyrtacpGutP+wkbPOCAQZ6YuCqUsrDWnMCdiAKKKCAAgoo0LUCzatXXtuTeZOF/O0W8h53a6a+GhgOhw9qxcnax8L6IezrD6H73T/7pZTvbsWJ10EooIACCiigQGcL7Nu378FJvmgu2b+5pMfcY95XA61YR22dfO2s21lngIGlN1Br/RMvHezsWsGBK6CAAgoo0KoCpZR/3deFrPttE4eBXhp4zcJPwrXWfwVfL/Et/WYF11z//+ydB5htVXm/z700pQioIPY2ok6c45z9/b5z7mQ0joo9wRgdS+wlGg3+DRaMRmOLHVs0MSqaWKLGEmMLMYpiIRFBERNUbIkNEESqlMu91/9snAu3TDlll1Ven8eHuTPn7L3Wu9/9W99aZ5+9d3GArw62PuLQAAhAAAIQgEBSBDa6+5d2qTeosflQGAdwIFUHrpient6/1RQ3s08Sukz0cQAHUncgiEteW017dg4BCEAAAhCAQNUE+v3+4ZIuS72Oon/MFXAAB5YdOLLqHB16ewsLC9eRdCkyIiMO4EDiDvxnp9PZOHQ48kIIQAACEIAABCAwJIGlBaxjEq+jUr2ahH5xpRQOjOiAu79jyGis/mVFUdyHsGXhAgdwIHEHrnL32eoTlC1CAAIQgAAEIACBTmdhYWFPSaclXk8x0R9xoo8PzLESdeCs1u4pbGZvTBQqAUvA4gAObHfg1RTXEIAABCAAAQhAoE4CkvqStjC3YtECB3AgdQf6/b7qzNNVt21m30sdLv0jQHAgawd+3PqNBldNYP4AAQhAAAIQgEBKBMzsb6k7s647t394yn/5ID11B17ceHYXRTFFwBKwOIADKTtQFMXvNx6u7BACEIAABCAAgSwJmNmBks5Kubaib8wdcAAHJJ3aeMi7+zOQD/lwAAcSduAjjQcrO4QABCAAAQhAIGsC7v7QhGur1K8qoX9cOYUDwzmwrdvtHtpo2Es6nnBl8QIHcCBRBy6em5u7aaOhys4gAAEIQAACEIBAp9OR9OlE6ysm98NN7uEEpxwceERjgT83N3fdpce9XkawsniBAziQogNm9v8aC1R2BAEIQAACEIAABHYgIOk2ki5PscaiT8wdcAAHlh141w6xV++P5X1hEA/xcAAHEnXg1MXFxT3qTVG2DgEIQAACEIAABFYn4O4vS7TOyuHKEvrIFVQ4sI4DZvaz1ROw4r9IeguByuIFDuBAgg5sKx9jXXFksjkIQAACEIAABCAwEgEz21fSjxOstZjYrzOx55gzx8rFgcFgMD1SMI77Ykln5gKVfhIgOJCPA+7+j+PmIu+DAAQgAAEIQAACVRKQ9BDq0HzqUI41xzo3B8oHA1aZmStuq7yxcW5g6S9hggNZOPBrd7/5isHHLyEAAQhAAAIQgEALBNz936lDs6hDuTKNK9NydOBTtcequz+eECVEcQAHEnTgL2sPUHYAAQhAAAIQgAAERiBQFMUdJW1OsO7KcbJOn1mkwoGdHbh0ampqnxEicfSXmtn7CFAWL3AABxJz4P/Kp6uOnoi8AwIQgAAEIAABCNRLQNLrEqu7mMTvPImHBzxydmChzgTdIOksApTFCxzAgZQccPeH1hmcbBsCEIAABCAAAQiMS2B2dvYgSeelVHvRF+YSOIADyw68fNwIA/2XAAAgAElEQVRsXPd9ZjaDaIiGAziQmAMndTqdDesGIC+AAAQgAAEIQAACLREws6cnVn/lfMUJfeeKKxy41oGv1Rarko4mOFm8wAEcSMiBre7utYUmG4YABCAAAQhAAAIVEFhYWNjTzM5IqAZjAn/tBB4WsMjZga29Xu+QCmJy901I+hShyeIFDuBAQg68c/ek4zcQgAAEIAABCEAgPAKSHphQDZbzhJ2+s2CFAzs4UMvtXMxsL0kXE5osXuAADiTiwMVmduPwylNaBAEIQAACEIAABFYmIOkLidRhTOB3mMBzTJlfZe7AcSsn3gS/NbO7ZA6VkCVkcSAtB140QSTyVghAAAIQgAAEINA4ATMrJG1lXsaCBw7gQCoOmNn/Vh6mS3BelAog+sHJjgPZO3Du/Pz8AZUHJRuEAAQgAAEIQAACNROQ9B5q2exrWT5YT+uD9eyPZ6/Xu2Wl0enuXyIoCUocwIFEHDi60oBkYxCAAAQgAAEIQKAhAksLWLeRdGUiNVn2E3eOI/MrHLjagUdXGqGSzgcsJxcO4EACDvx4ampqn0oDko1BAAIQgAAEIACBBglIeksCNRmLV1xFhAM4cLUD7v6OyiK0fKwhAcnCBQ7gQCIOPLGycGRDEIAABCAAAQhAoAUC7n6YpEsTqc1YxGARAwcyd8DMvldZlEp6NOHI4gUO4EACDnxnYWFhz8rCkQ1BAAIQgAAEIACBlghIenkCtRkLF5kvXOAwc8ztDvR6vZtUEqfu/qHtG+W/CIYDOBCxAw+uJBTZCAQgAAEIQAACEGiZgJkdyG1eqMsjrstZvGTxcicH3P1hlcSqpP/jxCAccQAHInfglE6ns6GSUGQjEIAABCAAAQhAIAACZvbcyOuznSaw9IX5Bg7k64C7/10lscpTLvKViADh2KfigJndu5JAZCMQgEC2BKanp/c2sxtLupO7303SEZLuZWaL5f/d/ZGSnrzD/5+4w9/+YPn15Xv65VPEBoPB9bKFScchAIFKCJjZvpLOSaVeox/MPXAgXweWaqYzKglGbhCYr0QECMc+EQc+X0kYshEIQCBVAhsHg8HNzOwu5X0/zeyFkt65tND0b5JOlvQjSRfXlIebJZ0t6X8knSjpw5JeZ2ZPL4ri9939d7rd7n6pgqdfEIDA5ATM7Fk15RNXR/EVLxzAgSYd2FY+QHDiVGRVn0UMBkUciNkBd/+9iYOQDUAAAtETMLO9iqLoLl8p9WpJx5dPvYnkSvNzJX3NzP7BzJ5ZXs3V7XYPjf6g0AEIQGBiAlyFRZ0ec51O2/F3Fwcmv2fxcnHX5Mob+2KlFwdwoCoHvjhxZcgGIACB6AiUX/fr9/tzy1cmvFfS6ZLKq52qypZQtlNevfUfZvZad3/o3NzcTaM7WDQYAhCYmIC7PzvBfAslZ2lHemMnxzTQY+rub6oiEP+dQEyu4OWkDfSk5Vyr9lzj3lcTDwFsAAJRECjvJ7V8j6kXS/qspMsyztOzyidIu/szyq9FlleeRXEQaSQEIDA2gfKrxu7+i4xzj7kNcxscSMOB08YOwu1vLFfBCMNqJ9XwhCcONOLAydtzjP9CAAJpEZiamtqnXLBy92OX7x+1jVxdNVcvkvSxpXttPaXX690yLRPoDQQgsJ0AV2GtmoEsbKSxsMFxzOM4bp2ZmTl4e66N9V8z+1OKQgIRB3AgQgeOHCv0eBMEIBAkgX6/f2sze6qkT/CAmfHHpPIpP8sLf0eUC4FBHmwaBQEIjEyAq7DGz8UIa1wWc/JYzMnyOLv7H4wcgDu+oXwCDic1gYgDOBCZA6d3Op0NO2YZP0MAAvERkHT75acC/ndkGRRL0XnJEuMPmNkfLiwsXCc+Q2gxBCCwI4Gle/09n6ykZscBHIjZAXd/5Y65Ns7PG3gSISdBzCcBbc/PX3d/2Dhhx3sgAIH2CZRfcyvv37T0FcGvkN+N5vevzeyTS1doLXJlVvvnAS2AwDgElu8HeCHZ2Wh2xvKBBe3kqq1YHPjCOPm303skvYcgJAhxAAciceC7i4uLe+wUYvwDAhAImsDs7OxBZvZ0SadEkjOxFIHjtvMCSceVT3IMWhwaBwEI7EZA0mvIUWp2HMCBiB24dGFhYc/dwm2UX7j7fSMGMG7xxvtYpcaBCB0ws8eOkm+8FgIQaI9AURQm6W3c0yroQvs7ZvZcM7the6awZwhAYFgC7n6YpMuZuwWdq8wxIpxjcE41d065++ywmbfi68qrGSSdxUFr7qDBGtY4MJYDP+KR8SvGOL+EQDAEyoUQM3umpO+Qc2PlXFsTn8vN7H3ufjfuMRjM6URDILAiATN7O/kaVb62levsl4W0IB0oHyS4YriN8svlm6gG2UECmoDGARxYduApo+Qar4UABJojYGZ3WL7aiisD4i+YT5f0mOnp6b2bM4g9QQACwxLo9/uHS9pKfUx9jAM4EKMD7v6Pw+bdqq+bm5u7vqSLYwRAmzlxcSALB37CjYdXjXD+AIHWCJjZXdz9Q5K2kMXJZfE5kl5c1oitCcaOIQCBFQlI+jCZm1zmcjFJ/B8AcQyHO4bfWTHYRv2lpJcThAQhDuBAiA64++NHzTReDwEI1ENg+dYDD+em7NmMFxeb2RvLJ0jWYxRbhQAERiVQFMWmEOs12pTNuMBCzXALNXBamdO2mZmZg0fNvd1ePz09vb+knxA8BA8O4EBgDpzc6XQ27hZa/AICEGiawEZ3fxj3t8p2jLhS0lsHg8HNmhaP/UEAArsTcPf/CqxeY7K+8mQdLnDBgV0cKB8kuHuqjfEbSQ8hCLMtTDmxdjmxOBeCOBcuLYrijmPEGW+BAASqI7Ch3+8/SNK3yMUgcrHt8bq84fsby6ehVacYW4IABEYlsPyBQtt5wP6ZP+AADozjwItHzbxVXy/p3RSoFKg4gAMhOODuj1s1rPgDBCBQOwFJR/BVQcaDVcaDX7v7mwaDwY1qF5EdQAACuxFYWFjYU9KPVzk/x5lQ8h4WInAAB5py4PjdQm3cX3S73f0kfZswpGDFARxo2YEPjptjvA8CEJiMgKSepBNbzoCmiij2M1nBfml5s/eFhYXrTGYd74YABEYlIOkYcpp6HQdwIEIHLqj0FjGSbi/pvAhBUIROVoTCD35BOFDe16G8L9+ohRyvhwAEJiPQ7XYPNbO384h2iuExasDvSzpyMgN5NwQgMAqB8kbIkspF5CDqN9rBccABHBjWATO7wyh5t+5r3d0lXTJsA3gdsuIADlTkwNcreTLFuinHCyAAge0EzGwvd3+GpAsrOo+ZTGU6oXT3E4qi6G53i/9CAAL1EpD0FnKbGhwHcCA2B2q5VYy7/56kC2KDQXs5gXEgWgdOnZ2dPajeUo+tQwACOxIonwRjZt8jN6PNzRAXC6+S9GYzO3BH1/gZAhConkD5sBtJ28hwMhwHcCAyB95afSJ2Op3yUzRJP48MRojFHG3K9NNozp2hB5PPcuVVLTHORiGwIgEzu6Gk95JRQ2cU4/iI47iZ/UzSA1cUkF9CAAKVEZD0ebKcLMcBHIjMga9VFoK7bsjMbkwwckJEdkIw0RhxotHi8d3m7seWT9PZNXv4NwQgUA8Bd3+kpHNbPO/J6Hgyuopj9WF3P6wem9kqBCDg7g8lz5mr4QAORObA5bXO/xYXF/cwsxdIuiIyMFUUXmwjr0Kb493Q8S4/nS+K4j6UnhCAQDMEer3eLSX9G+M4RW7TDrj7ryQ9odPpbGjGdvYCgXwIlPcxlHR20+c1+2MswQEcmMQBM5upPakHg8Ht3P3fJ2ko70V0HMjegSvN7LXz8/MH1B5a7AACELiagLv/CQ9nyT57Q/iA5rNzc3M35bSEAASqJeDuL6O+JuNxAAcic+Ax1SbhGltz93uWT5qJDFAIhRttaOjqHtwMMsCvcPd3lFeBrBEv/AkCEKiQwPK9rj5GJgaZibnWBOdLenCFmrMpCGRPYPkK2y1kPVmPAzgQkQNvaDy8+/2+lh/fel5EoHItGOk3i2dtOfAdSc/vdruHNh5S7BACGROQdC8exEIhG3B9dtz09PT+GZ+idB0ClRKQ9ImAz/e2alD2y/wHB8J14MRKQ3CUjS1/9/oISS9fKphP4l5ZFMwMoFk7UH66frykY/r9/p1HyRJeCwEITE5gampqH0mv59HqWedwFAW7mX1v6b5s/cmtZwsQgICZPYD6m9zHARyIyIELQ7o35sZNmzbdyszuLenRZvanZvZc/g8DHEjPAUlHlee5u9/NzG5BCQkBCLRHwMxuK+m0iIqXKBZa4FnrhGCzuz87pCK2vTOYPUNgfALlE7246rbWrGK8CvdKHo5NpMemrFvHTz3eCQEIQAACEIBAtAQk3X/5aW8UcpEWcpkvlH3czA6M9gSk4RAIgICkV2WeI4x/jH84EJcDDwkgOmkCBCAAAQhAAAINEthQXt0qaSsTFz59j9yBM939dxo8d9gVBJIi0O/3D+fr44wDkY8DLEDFtQA16fF6eVIhTGcgAAEIQAACEFidwGAwuJ4knjKYV7E3abEY+vsvlsQnsquf9vwFAmsSkPQVFjBYxMIBHIjEgX9bM9D4IwQgAAEIQAACaRCQdCdJP4ikQAl90YT2hbUIuM3MXtHpdDamcbbSCwg0R0DSExgXWLzAARyIxIGzm0tH9gQBCEAAAhCAQCsE3P2eki6MpDhhcSisxaGYjsdHzWzfVk4ydgqBSAlMT0/vL+kSxgcWMHAAB2JwwN0PizRuaTYEIAABCEAAAusRWP50fXMMRQltpHiuwIH/7PV6h6x3XvB3CEDgWgJm9g8VnHsxLXbTVj4owYF4Hbj/tenFTxCAAAQgAAEIpEJgg6S/ZlLColCGDvygvDl1Kicy/YBA3QSW7oN1RIY5wQJGvAsYHLu8j93z685Etg8BCEAAAhCAQIMEpqen95b0XiYkLF5l7MD57n63Bk87dgWBmAlsNLOfZZwXLIjkvSDC8Y/o+JvZ+2IOW9oOAQhAAAIQgMAOBMr7mbj7CUxEWLzCAV0h6cgdTg9+hAAEViEg6Q1kBuMGDuBABA6ctkqM8WsIQAACEIAABGIiYGYHSjopguKDTzsj+rQzcp+2SHpMTOcxbYVAGwQk9SM/1xlXGFdwIA8HLl9cXNyjjZxknxCAAAQgAAEIVERgZmbmYEknMwHh01Mc2M2BLUtfj3pSRacam4FAsgQknUl+7JYfLIrksSjCcY7oOBdFMZVsENMxCEAAAhCAQOoEBoPBjSR9i4kHEw8cWNWBbZKOTj0L6B8EJiEg6cVkyKoZwgJHRAsceJy8xw+cJOt4LwQgAAEIQAACLREws1tI+j7FWvLFGpOnCiZP7v68lk5VdguB4AlIuj1jCWMJDuBABA7wJMLgRxQaCAEIQAACENiFwNzc3E0l/TCCQoPFlwoWXzjO1UwqWMTaJUj4JwR2ICDpNLKmmqyBIxxxoB4HeBLhDqHNjxCAAAQgAIEYCPR6vUPM7AyKo3qKI7imzdXMnhXDeU4bIdA0ATN7AfmXdv5xfDm+CTjwjaazkf1BAAIQgAAEIDAmgeWnDZ6aQAHClVlcmdWWA9vc/U/GPAV5GwSSJcDXCFncoLbAgQgc4EmEyY5CdAwCEIAABJIi0O1295P05QiKi7YWJtgvi2LDOrBl6alrj0gqIOgMBCogwNW9LGBQY+BA6A7wJMIKwp5NQAACEIAABOokMDc3d11JJ4ZeVNA+Ct+IHNjs7n9Q53nLtiEQGwEze0lE5/CwC9a8jg83cCAtB3gSYWyDC+2FAAQgAIGsCGyU9FEmFSwO4UDlDlzu7r+bVZrQWQisQaAoii45U3nOsHiS1uIJx7Pl48kDWdYIcf4EAQhAAAIQaJuApDcwoWBCgQO1OXDeYDC4XdvnOfuHQCgEJH2XvKktb1j8aHnxA7eTcPu9oeQl7YAABCAAAQhAYAcCZvZ0iq0kii0mLWFPWr7b7/dvsMOpx48QyJaApFcx7jDu4AAOBOwATyLMdoSi4xCAAAQgECwBSUdKKm82zeIHDHCgZgfc/UtTU1P7BBsINAwCDREws7sw7jDu4gAOBOzAZZ1OZ2NDkchuIAABCEAAAhBYj0BRFCbp0oCLBxZUal5Q4dg3P3kws3+mKF4vnfh76gQWFxf3kHQeGdR8BsEc5jgwnAPufvPUs5j+QQACEIAABKIgYGY3lnQWRcxwRQyc4FSxAy+KIihoJARqJCDpPRWfV3zowYceOIADlTlgZnevMQLZNAQgAAEIQAACwxAws73KrzIxcWBRBgdac2CrmT1gmPOV10AgVQLu/lAyqLUMqmySzzHkGKbqgLv/Sar5S78gAAEIQAAC0RCQ9OZUiw36RSEdiwPu/iszu200wUFDIVAxgcFgcD1JV8ZyztJOxhccyM6BV1Uce2wOAhCAAAQgAIFRCJjZH1OAZVeA8Ul7uF+pON3M9h3lHOa1EEiJgLufwJjEmIQDOBCoAx9OKW/pCwQgAAEIQCAqAv1+/86Sfh1okcAiS7iLLBybeo/Ne6MKEhoLgQoJSDqaMYnFCxzAgRAdMLNvVhh3bAoCEIAABCAAgWEJzM7OHiTphyEWCLSJwhUH9GfDnsu8DgIpESiK4o6c/4wBOIADgTpwSafT2ZBS5tIXCEAAAhCAQBQEJL0/0OKAq3vqvboHvnHwvaK8QjKKMKGREKiYgKSfMD6xgIEDOBCiA+5+WMWRx+YgAAEIQAACEFiLgKTHhFgU0CaKVRy41gEzO2Nubu66a53L/A0CKRKQ9C6y4NosgAUscCAcB8zsLinmLn2CAAQgAAEIBEmg3+/feukeIxdRDIVTDHEsOBarOWBmbwwySGgUBGokIOkRq50T/J68xAEcaNMBd39cjfHHpiEAAQhAAAIQ2IHARkkntjnws28KTxwYyYFtZvaAHc5hfoRA8gTM7IaStpIVI2UFXw+P4+vhHKfIj5O7vyz5EKaDEIAABCAAgRAILE0GXsSEgAkBDsTlgLv/YjAY3CiEDKENEGiKgKSvk1VxZRXHi+OViQMfaCoH2Q8EIAABCEAgWwL9fl+SrsqkuOATzsg/4cTT3SZCH8s2vOh4lgTc/ZXkwG45wNjG2IYD7TtwSpahTKchAAEIQAACTREws73M7JtMBpgM4EDUDjykqcxgPxBom4C735O8ijqvWGhpf6GFY1DPMbig7Xxk/xCAAAQgAIGkCUh6PhMBJgI4EL0DZ8/MzBycdFjROQgsEzCzfSVdSW5Fn1ssotSziALXFrn2+/0bENYQgAAEIAABCNRAoN/vHy7pciYBTAJwIAkHjqshJtgkBIIkIOkkciuJ3GKxpcXFFs6h6s8hMyuCDE0aBQEIQAACEIicwAZ3P4HipfriBaYwbcmBbZKOiDyXaD4EhiJgZq9o6TxjwYUFFxzAgbUceOBQIcaLIAABCEAAAhAYnoCZ/SnFPwstOJCcAz/qdrv7DZ8EvBICcRJw9/uSX8nl11qLAvyNRaMoHDCzp8eZqrQaAhCAAAQgECiBXq93iKQLKP4p/nEgPQfc/WWBRg/NgkBlBObn5w/g6bnp5RdjEsc0AQdeU1nQsSEIQAACEIAABDodM3t7AgVCFJ/EwZlivAUHLt+0adOtyDoIpE5A0tdaOL8Ye7gSCAdwYC0HPpB69tI/CEAAAhCAQGME+v3+nSVtoehnYQUH0nXA3T/UWKiwIwi0RMDMXkuOpZtjHFuObaQOnNRSJLJbCEAAAhCAQHoEJH0h0oJgrU+7+BufhuLALg64+++ll2D0CALXEpD0QMYzFjlwAAcCc+An16YUP0EAAhCAAAQgMDYBSQ8JbJBn0WGXRQeOD4V4hQ6ctri4uMfYgcEbIRA4gW63e2iF5wvjEeMRDuBAFQ5sWVhY2DPw+KR5EIAABCAAgbAJTE1N7SPp+xT7LJDgQD4OmNmTwk4mWgeByQhI+hGZlk+mcaw51jE4YGa3mCzZeDcEIAABCEAgcwLu/uwYBn3aSHGKA5U6cLaZ7Zt5/NH9hAlIej+ZUWlmVHEFCtvgSqasHTCzuyQcu3QNAhCAAAQgUC+B6enp/d39FxT5FPk4kKUDz6k3Ydg6BNojYGb/j1zLMteyXiDB+eCdf0R7qcieIQABCEAAApETMLMXUOwEX+xQjPOJdV0O/HJ+fv6AyGOM5kNgRQKS+oxvjG84gAOBOXDMioHFLyEAAQhAAAIQWJuAmR0o6fzABva6Jupsl0UgHFjZgb9cOyn4KwTiJGBme0m6jDGOBQwcwIGAHHhznIlKqyEAAQhAAAItE3D3lwY0oLO4sPLiAlzgUqsD7v6r2dnZg1qOI3YPgVoISDqJcY7FCxzAgYAc+HgtYcdGIQABCEAAAikT6Pf7N5B0UUADeq2TdPpJ8YoDqztQLmannHf0LV8C7v4mzv3Vz33YwAYHGnfgG/kmMj2HAAQgAAEIjEnAzF5B0dJ40cIiHVdTherARTMzMwePGSe8DQLBEnD3xzHWMdbhAA4E5MDZwQYmDYMABCAAAQiESKDb7e7Hva8o5gIq5kJd1MmqXe7+vBDzijZBYBIC/X7/zmQd4x0O4EBADmxZXFzcY5Jc470QgAAEIACBrAhI+vOABvKsFgngThEdsAPnLCwsXCerMKSzyRNYvpH75QGfd4yBXJmLA5k50Ov1Dkk+fOkgBCAAAQhAoAoC5ac+kn5IMc9CCg7gwK4OuPvjq8gZtgGBkAhIOnVX1/k3+YcDONCiA3cKKSNpCwQgAAEIQCBYAu7+sBYHbD5lzOxTRlyLboLw351OZ0OwAUbDIDAGAXd/B1kUXRZRL1AvJOuAu99zjCjjLRCAAAQgAIH8CEj6KoU8hTwO4MAaDtwvv2SkxykTcPenreF7spNk+kzO40CYDpjZH6ecufQNAhCAAAQgUAmBoijuSjETZjHDceG4BOTA5yoJHDYCgUAI9Pv9uYDOLxbMuLIIB3DgzwOJR5oBAQhAAAIQCJeApA9QxLNQggM4sJ4DRVHcMdwko2UQGI3AYDC4nqRt63nP38lGHMCBJhxw91eOlmK8GgIQgAAEIJAZgX6/fwNJPImJT/345BcH1nXAzF6bWUTS3cQJSPpJExNT9sECCA7gwBAOvCvxyKV7EIAABCAAgckImNkzhxhQ153Ysg0KMxzIwoHzpqam9pksdXg3BMIh4O7/TnZlkV3UMXxIE4MDnwonHWkJBCAAAQhAIEACZnYGxTvFOw7gwAgOPCTAKKNJEBiLgKTXjeB+DBNg2shCDQ7E68ApYwUZb4IABCAAAQjkQMDM7kLhzsIFDuDAiA58Jod8pI95EJD0xBH9Z3Eg3sUBjh3HLnQHfpJH8tJLCEAAAhCAwBgEJL2bwp3FCxzAgREd2GZmtx0jcngLBIIjUBTFphH9D30CTPtYpMGBeB24otPpbAguKGkQBCAAAQhAoG0Cy09fuozCncULHMCBUR0ws5e0nWHsHwJVEOBJhOTfqPnH63GmTgdmZ2cPqiLb2AYEIAABCEAgKQLu/qg6B2C2TYGHA0k78N2kApHOZE2AJxEmnVVcjRTv1Ui5HrvbZx3IdB4CEIAABCCwEgFJn2CBgaIdB3BgXAfcfXalbOF3EIiNgLufMO55wPvIUBzAgYodmI8tQ2kvBCAAAQhAoFYC5eXJkq6oeMDN9ZMy+s2nu1k6YGavqDWo2DgEGiIg6W2MhyxC4AAOhOBAURS/31D0sRsIQAACEIBAHATc/fEhDNK0gWIRB6J24IfcbDaOzKeVaxOQdAxZFHUWZfkhAs6m6Wx5i4+1E4u/QgACEIAABDIjIOl4Cp80Cx+OK8e1SQeKorDM4pPuJkjA3f+oyfOGfZHTOIADazhwVIIxS5cgAAEIQAAC4xGYmZk5WNKVawycfJLJV+JwAAeGdeA14yUR74JAOASKougyJrKggAM4EIIDZvbCcNKRlkAAAhCAAARaJiDpMSEM0LSBQhEHknDg+y1HGruHwMQEzGxfSdvIpCQyadjFd17HBzWhOvC6iUONDUAAAhCAAARSISDpgxTpFOk4gANVOVAUxVQq+Ug/8iUg6edVnRNsh3zFARyYwIF35pvE9BwCEIAABCCwA4HFxcU9JJ0/waAa6qdVtItPUnGgJQfM7Ok7xAw/QiBKApK+yNjIogMO4EAADnw0yhCl0RCAAAQgAIGqCfT7/bkABmYWGlpaaODYU5jX5MCnq84qtgeBpglIem9N5wdjHmMeDuDAKA58vun8Y38QgAAEIACBIAm4+0sp0FnEwAEcqNiBy+bm5q4bZOjRKAgMScDMXlHxeTHKhJXXssCBAziw3YFvDBlbvAwCEIAABCCQNgFJp1Cgs3iBAzhQtQNmdu+005PepU7AzJ5a9XnB9shaHMCBMRz4Uep5S/8gAAEIQAAC6xLo9XqHSNo6xkC6/RMh/sungziAA6s58IZ1Q4gXQCBgAmb2AMZHFhtwAAcCcOCCgKOSpkEAAhCAAASaIeDuDw1gUF5t8svvWRjBgbgdOL2ZJGMvEKiHQFEUXcZIFi9wAAcCcGBrp9PZWE/SsVUIQAACEIBAJATc/U0BDMosUsS9SMHx4/it5sDW2dnZgyKJQ5oJgd0IlP4yRrJ4gQM4EIIDjKe7RTS/gAAEIACB3AhIOjWEQZk2UBziQJoOuPt9c8tV+psWAUkXkU9p5hPHleMakwObNm26VVrpSm8gAAEIQAACIxDodrv7Sdoc0+BNWyk2cSAuB9z9ZSPEEi+FQHAEzOwMcieu3OF4cbxSdMDdZ4MLSBoEAQhAAAIQaIpAURT3SHGAp08UrjgQlAOfbyrT2A8E6iAg6fNkSlCZstpXlvk9X2dP3YH5OjKObUIAAhCAAASiIGBmL6QopyjHARyo2YHLpqen944iFGkkBFYgIOkDNZ8jqU+66R8LSzhQjQP3WiGi+BUEIAABCEAgDwKSjqcoZ/ECB3Cgbgfc3fNIVXqZIgEze2Pd5wjbJ4dxAANsBOgAACAASURBVAeGcOCBKWYsfYIABCAAAQgMRUDSuUMMlnxqVs2nZnCEY7YOuPvThgolXgSBAAm4+/MYK1lcwAEcCMCBRwQYkTQJAhCAAAQgUD+BXq93kwAG4mwn9LCnEM7MgbfWn2rsAQL1EJD0hMzOV8ZmPnDBgTAdeEI9KcdWIQABCEAAAoETKB9tT0HOIgoO4EBDDnwl8EikeRBYlUBRFL/f0HnCokGYiwYcF45LKA4ctWpQ8QcIQAACEIBAygQkHUNBzuIFDuBAQw5c3Ol0NqScqfQtXQLlPdwaOk9CmSTTDhZscCBMB45JN2npGQQgAAEIQGANApLeQ0HO4gUO4EBTDvT7/VuvEUn8CQLBEuj1erds6jxhP2QyDuDAGg68ONigpGEQgAAEIACBOglIOn2NAZJP3sL85I3jwnGJ2YEj68w0tg2BugjMz88fwHjJogIO4EAADry6rpxjuxCAAAQgAIFgCZjZXpKuDGAgjnkyTttZTMKBERwwsxcEG4o0DAJrE9gg6SrGTBYwcAAHWnbgb9aOKv4KAQhAAAIQSJCApNu3PAAz8R9h4s+xomBOwQEze1+CcUqXMiEg6ZcpnIf0gfEEB6J24J2ZRC7dhAAEIAABCFxLgCcQRl28sPjH4l+sDvAkwmtjmJ8iIyDp+0z8GTtxAAdaduD9kUUnzYUABCAAAQhMTsDM/rTlATjWCTjtZvEIB8Z0wMx+Nnl6sQUItENA0imMmyxe4AAOtOzAv7aTgOwVAhCAAAQg0CIBSa9qeQBmEWDMRQCOG8VzxA5sW1hYuE6L0ceuITA2AUmfjfjcY8xlzMWBNBz4zNghxhshAAEIQAACsRKQ9EEKcRZCcAAHmnag3+8fHmtu0u68Cbj7h5o+X9gfGY0DOLCLA1/OO4npPQQgAAEIZElA0ld3GRD5ZC6NT+Y4jhzHoB0oiuI+WYYunY6egJm9nXGTxQQcwIGWHTg1+jClAxCAAAQgAIFRCbj7L1oegIOeZMOGAhUHanPgKaPmFa+HQAgEJL2BXKgtF6gJ+PAFB4Zz4LQQ8pA2QAACEIAABBojMDU1tY+kbRTiFOI4gAMtOPDyxsKOHUGgQgKSXt7C+cKkfrhJPZzglIsD/11hrLEpCEAAAhCAQPgEBoPBzSjCWbjAARxoyYG3hZ+StBACuxMwsxe0dM7kMjGnnyxC4cD6Dnx793TiNxCAAAQgAIGECfT7/TtThLN4gQM40JIDH004XulawgTM7JktnTNM6tef1MMIRrk4cGbCMUvXIAABCEAAArsTcPd7UoSzeIEDONCSAyfunkr8BgLhEzCzp7Z0zuQyMaefLELhwPoO/CD8tKSFEIAABCAAgQoJuPtDKcJZvMABHGjJgf+pMM7YFAQaI2Bmj23pnGFSv/6kHkYwysWB/2ss9NgRBCAAAQhAIAQC7v40inAWL3AAB1py4OwQcpA2QGBUAma22NI5k8vEnH6yCIUD6zvw01Gzi9dDAAIQgAAEoibAjWhZuGAShgMtOrC50+lsiDpEaXyWBCTdv8Xzhon9+hN7GMEoBwfOyjKA6TQEIAABCORLQNIbKMJZwMABHGjLgcFgcL18E5iex0pA0r3aOmfYL3mNAziw7MC5sWYo7YYABCAAAQiMRUDS31MIUQjhAA605cBgMLjRWOHFmyDQIoGiKO7R1jnDfslrHMCBZQfObzEG2TUEIAABCECgeQKS3kUhRCGEAzjQlgPufvPmk489QmAyAu5+t7bOGfZLXuMADiw7cOFkSca7IQABCEAAApERcPd/ohCiEMIBHGjLgaIopiKLTZoLgY6k+bbOGfZLXuMADiw7cAlxDAEIQAACEMiKgKQPUwhRCOEADrTlgLv/TlahS2eTIFAUxaa2zhn2S17jAA4sO3B5EoFKJyAAAQhAAALDEpD0cQohCiEcwIEWHegNm1e8DgKhEHB3b/GcyeHpavSRpwjiwPoOlE/y5X8QgAAEIACBfAhIOp4inMULHMCBthwor2TJJ3HpaSoElj786bV1zrBf8hoHcGDZgW2pZCr9gAAEIAABCAxFQNLnKYQohHAAB9pywN1/b6iw4kUQCIhAURTdts4Z9kte4wAOLDuwNaBYpCkQgAAEIACB+glI+gKFEIUQDuBAiw4s1J907AEC1RIws5kWzxm+WrX+V6tgBKMcHOArhNVGO1uDAAQgAIHQCUj6DEU4ixc4gANtOdDv9+dCz0naB4FdCfAVQjKzrcxkv7i3gwOX7ZpN/BsCEIAABCCQNAFJn9hhIMzh0yr6yKeyOBCQA2ZWJB2ydC5JAv1+X4ydLCTgAA607MAlSQYsnYIABCAAAQisRkDSR1oefFlMCGgxARcoxltw4E6r5RO/h0CoBMxs0MK5wnjJeIkDOLCjAxeGmpG0CwIQgAAEIFALAUnvpwhn0QIHcKAtBwaDwe1qCTc2CoEaCUiab+ucYb/kNQ7gwLIDv6wx5tg0BCAAAQhAIDwCZvYPFEIUQjiAA2050Ov1bhleMtIiCKxNoHx6ZlvnDPslr3EAB0oH3P0XaycVf4UABCAAAQgkRkDS2yiEKIRwAAfacsDdD0ssVulOBgTM7O5tnTPsl7zGARxYduCsDOKWLkIAAhCAAASuJeDub6IQohDCARxoy4GZmZmDr00kfoJAHAQkHdHWOcN+yWscwIFlB34aR2LSSghAAAIQgEBFBCS9mEKIQggHcKAlB7Z0Op2NFcUZm4FAYwQk3a+lc2bHGzjzMzf0xoGMHTCz/20s9NgRBCAAAQhAIAQCko6iCGfxAgdwoCUHzg0hB2kDBEYlIOnBLZ0zLFhkvGCBc4zVuzjwg1Gzi9dDAAIQgAAEoiYg6RG7DIYUxxTHOIADTTnw7agDlMZnS0DSoxk7WUzAARxo2YEzsw1hOg4BCEAAAnkSkHSvlgffpibK7IdFGRwIz4Ev55m89Dp2ApKewtjJ4gUO4ECbDpjZGbFnKe2HAAQgAAEIjETAzIo2B1/2TfGHA1k78LGRAosXQyAQApKOJruyzi4+EAnvA5Ecj8m3AolEmgEBCEAAAhBohoCZ3YIinCIcB3CgJQeOaybp2AsEqiUg6fktnTM5TtLpM4tFOLCyA6dVm2xsDQIQgAAEIBA4gW63ux9FOIsXOIADLTnw6sAjkuZBYEUC7v6yls4ZJvIrT+ThApccHThlxYDilxCAAAQgAIGUCUi6gEKcBQwcwIGmHTCzp6ecrfQtXQKSXtf0+cL+yGgcwIEdHXD3L6WbsvQMAhCAAAQgsAoBSaftOCDyMwUSDuBAEw64+x+sEkv8GgJBE5D0902cI+yDLMYBHFjDgc8EHZQ0DgIQgAAEIFAHAUkfW2NwzPGSbPrMVxFwoBkH7lRHprFNCNRNQNIHGTdZWMABHGjZAR6EUnfYs30IQAACEAiPgKTXtzwAs1jQzGIBnOEclAPz8/MHhJeItAgC6xOQ9BnGTRYvcAAH2nTA3f9p/bTiFRCAAAQgAIHECLj7M9ocgNk3BSAOZOnAuYlFKd3JiICkk8mtLHMrqA8BcDBvB939HRnFLl2FAAQgAAEI/JaApCMpgvIugjj+HP8WHDiZDIZArAQkndnCOcPiCVfR4gAO7OjA38SaobQbAhCAAAQgMDaBoii6FOIsYOAADjTpgJn989ihxRsh0DIBSec2eb6wL/IZB3BgBQde1XIUsnsIQAACEIBA8wTMbF9JW1cYGHf8lIef+dQPB3CgMgfc/WXNpx17hEA1BCRdyZjJggIO4EDLDryomkRjKxCAAAQgAIHICJjZ91oehCubGNMPCkocCN8BM1uMLCZpLgSuJtDtdvcjY8LPGI4RxygDB55DLEMAAhCAAASyJCDpIxkM9CyScQURDgTigJndIcuwpdPRE5ibm7sp4yWLIziAAwE4cFT0gUoHIAABCEAAAuMQWBqEXxTAQMziQiCLC7hAYV6zA5ctLi7uMU5W8R4ItE3AzIqazw/GQsZCHMCBYRx4Qtt5yP4hAAEIQAACrRDo9/sPoiBn0QIHcKAhB05pJejYKQQqICDpfg2dJ8NMYHkNCx04kK8DD68g0tgEBCAAAQhAID4CZnZbCnIWL3AABxpy4F3xpSQthsBvCZjZYxs6T1iYyHdhgmPPsR/GgSPJZQhAAAIQgECuBDZIuoiinAUMHMCBBhw4Otegpd/xE5B0TAPnyDCTV17DIgcO5O3AveJPVHoAAQhAAAIQGJOApC9TlLN4gQM4ULcD7n63MWOKt0GgdQLufmzd5wjbJ4dxAAeGcGC+9UCkARCAAAQgAIG2CEh69RCDJZ/25f1pH8ef4z+pA5vNbN+2co79QmBSApLey1jJ4gIO4EDbDrj77KR5xvshAAEIQAAC0RKQdGTbgzH7pyDEgeQd+Gq0IUnDIdDpdCR9lpxKPqcmXajn/XzYU7sDvV7vloQyBCAAAQhAIFsCvV7vEEnbKMwpzHEAB2p04HXZhiwdT4KApNNrPD9qn/TSdvIdB9JwYHZ29qAkQpVOQAACEIAABMYlIOlMCps0ChuOI8cxRAf6/f6Dxs0n3geBEAi4+69CPLdoE5mPA1k5sKXT6WwMIRNpAwQgAAEIQKA1ApLeRQGUVQHEp/18zaFRB9z9sNYCjh1DYEIC09PT+zNGMkbiAA4E4MD5E8YZb4cABCAAAQjET0DSEwMYlBudUNNfClEcaMYBM/te/ClJD3ImUBTFHcmLZvICznDGgTUd+GHOWUzfIQABCEAAAlcTGAwGt6NgWLNgYHGNK5ZwYEwH3P0dRC0EYiZgZvdmjGSMxAEcCMCBb8ScpbQdAhCAAAQgUBkBST8IYGBmkWDMRQKOHYV1wA48uLKgYkMQaIGAu/9JwOcX4ybjJg7k48DnWohAdgkBCEAAAhAIj4Ckt1CgswiCAzhQsQNX8cSk8PKeFo1GwN1fWvF5wYJDPgsOHGuOdZUOfGS09OLVEIAABCAAgUQJFEXx+xToLF7gAA5U7MAXE41MupURATP7h4rPiyontGyLBRIcyMeB4zKKXroKAQhAAAIQWJ1At9vdT9IVFOksYOAADlTlgLs/b/XU4S8QiIOApM9VdU6wHfIVB3BgAgdeF0dq0koIQAACEIBAAwQkfXaCQZVPAPP5BJBjzbEeygF3n20gutgFBGolYGb/y9jIogMO4EDbDpjZC2oNOzYOAQhAAAIQiImAmT2r7cGZ/VMg4kAyDpzd6XQ2xJSBtBUCuxKYnp7eW9IWcimZXBpq8Z3jzfEO1IGjds0o/g0BCEAAAhDIlsBgMLhdoAM2BSdX/OBAfA68LdswpePJEJB0e8ZFFjNwAAdCcMDdH5VMuNIRCEAAAhCAQBUEJH0jhEGaNlAs4kDcDpjZ3avIJLYBgTYJ8ICTuHOIcYTjl5IDZvaANvOQfUMAAhCAAASCI2Bmf5HSYE9fKF5xoBUHzllcXNwjuICjQRAYkYC7P4MMaSVDuOo2vqtuOWb1H7P5ESOMl0MAAhCAAATSJiDpNpK2UbBTsOMADkzgwFvSTkp6lwsBSW+e4DxgQl//hB7GMM7GgX6/f3gu2Us/IQABCEAAAkMTkHQKBTuLFziAA+M6UBTFXYcOHF4IgYAJSDp+3POA95GhOIADVTpgZgcGHJc0DQIQgAAEINAOAUnPqXLAZVsUcDiQlQM/73Q6G9tJL/YKgWoJSPoB+ZVVfmVzNQ9eR+f1FTzZt9p8Z2sQgAAEIJAIgU2bNt2KrxFGV9hQdPM1iiAcMLM3JhKFdCNzAnNzc9eVtIWJPuMhDuBAAA78JPNIpvsQgAAEIACB1QlIOjGAwTqICTkcKFxxYCQHeqsnC3+BQDwEJPU490c69xmz+SAFB+pz4JR40pOWQgACEIAABBom4O6PonCncMcBHBjRga81HFXsDgK1EXD3R47oP5P3+ibvsIVt7g58qrawY8MQgAAEIACB2AksLCxcR9L5FO8sYOAADozgwJNjzz7aD4HtBMzsFSO4n/vkmv6zwIQD9Trwru3ZxH8hAAEIQAACEFiBgKS/oXhn8QIHcGBIBy4dDAbXWyFK+BUEoiQg6V+HdJ+Je70Td/jCN3sH3P2VUQYpjYYABCAAAQg0RcDMZijeWbzAARwY0oHjmsom9gOBJghI+v6Q7mc/uYYT4wQO1O7A0U3kHvuAAAQgAAEIRE1A0skUJbUXJUx++HQ5egeKotgUddjReAjsQGD5a/Q8gZBsjj6bqeHSqOHM7I93iCh+hAAEIAABCEBgJQKSnkDxk0bxw3HkONbowGkr5Qe/g0CsBHgCIXlZY16yKMbC6DgOHBFrntJuCEAAAhCAQGMEpqam9pF0NoUcxTwO4MBqDpRPLW0slNgRBBogIOmJq/nO78lCHMCBph0ob+vRQPSxCwhAAAIQgED8BNz9r5oeqNkfxSEOxOGAmf1senp67/iTjh5A4FoCkt5CBsWRQRwnjlMODnS73UOvTSh+ggAEIAABCEBgVQJzc3PXl3RpDgUCfaQQxoHRHHD3Z68aHvwBApESkHQSWTBaFsALXjhQmwNbFhcX94g0Tmk2BCAAAQhAoHkCkt5KYVJbYTLOvRB4D/fQCMGBi83swOYTiT1CoFYCGyVdwpjHmIcDOBCIA+fUmnhsHAIQgAAEIJAagX6/f7ikrYEM5CFM3GkDC0jZO+Dux6aWdfQHApJuz1jHwgUO4EBADpxOMkMAAhCAAAQgMCKBpacyfTygwTz7xQOOBcV1yw5sdvebjxgjvBwCwROQ9PCWzy3GNz4gwQEcuMYBM/tk8MFJAyEAAQhAAAKhESiKwiRto7Bn4QQHcKD8WnFoGUV7IFAFAUmvIePIOBzAgVAcMLO/rSLb2AYEIAABCEAgOwKSPhHKgE47KC5xoDUHruDqq+ziP5sOS/oc2dJatlxz1QnHgGOAA791wN2fl00A01EIQAACEIBAlQSWvkbY4yosikqKyrwdcPc3VZkrbAsCAREob+B+ERmXd8Zx/Dn+ITng7o8MKCNpCgQgAAEIQCAuAmb2LyEN7LSFQhMHGnXg8rm5uZvGlVq0FgLDETCzGfKk0Tzhiivu9YQD6zhQFMVdh0swXgUBCEAAAhCAwG4E3P13eCIhBT6TvDwdMLPX7hYK/AICiRCQ9GSyLc9s47hz3EN1YNOmTbdKJGLpBgQgAAEIQKAdApI+GOpAT7soQnGgNgcu6fV6h7STOuwVAvUTkPRO8qO2/OBKm3WutME93FvBga3T09N7159+7AECEIAABCCQMIF+v3+4pM0rDLQUqBSoOJCoA2b2goRjja5BoGNmZzCusYiAAzgQkAM/J5ohAAEIQAACEKiAgKTXBzTAs2iS6KIJjgUzkfiJme1bQXSwCQgESWB2dvYgvh4fTN4wpjOm44D0G3f/ryADk0ZBAAIQgAAEYiOwXOyfxwIDBT8OpO/A0pUpi7FlFO2FwCgEiqK4D1mWfpZxjDnGMTng7h8aJcd4LQQgAAEIQAACaxBw96fFVAjQVgpXHBjLgZM6nc6GNaKAP0EgegJm9hLyYax84EoZrpbCgZoccPdjow9XOgABCEAAAhAIhcDi4uIekr5F0U/RjwPJOrC13+8rlMyhHRCoi4CkE8mxZHOMBZaaFlg4Z+o9Z9z9GXVlHtuFAAQgAAEIZEmgKIp7UMDUW8DAF75tOeDu78gy2Oh0VgSmpqb2kXR5W+cZ+yXjcQAHVnLA3f8oqzCmsxCAAAQgAIEmCEj66EoDL7+jIMOBqB04r9frHdJEhrAPCLRJoCiKu5JVUWcVV1hxhVWqDvTbzEb2DQEIQAACEEiSQK/Xu4mkC5kAMAHAgaQceHSSgUWnILALATN7AdmVVHaluphBvzJbqBsMBjfaJa74JwQgAAEIQAACVRAws6cyAWACgANpOODuJ3Dj9iqSkW3EQEDSf5BdaWQXx5HjmJADlzAOxzCC0EYIQAACEIiVwEZJX06ocOCTzsw+6cTdayY+v5Z0m1iDiHZDYBQCCwsLe0q6mPP/mvOfsY+xDwcCcMDMvjlKlvFaCEAAAhCAAARGJFAUxR0lXcFEgIkADkTtwNEjnvq8HALREiiKYhN5FXVesdgSwGIL51At59BHog1WGg4BCEAAAhCIhYC7/xWFTC2FDEU6RXoTDpy8uLi4Ryx5QzshMCkB7n/FeEXNggOBOvDqSfON90MAAhCAAAQgsA6B6enpvSWdFmgx0MQCAPtgoSlWB35tZndY5xTnzxBIioCkLzJesYCBAzgQmgPu/idJhS2dgQAEIAABCIRKYPmrhJeFVgzQHgpUHFjTgaeEmim0CwJ1EJifnz9A0mZyYc1ciHVBnnbzYVLUDpjZ3evIPbYJAQhAAAIQgMAKBCQdxaSASQEOROPAv/G0oxWCjF8lTcDd/4CMiiajol6MwDM8G9UBM7tF0gFM5yAAAQhAAAKBEdhgZp8cdcDm9RR5ONC4A+cMBoMbBZYfNAcCtROQ9DfkTeN5w0IUV0bhwPoOXNHpdDbWHoLsAAIQgAAEIACBawl0u91DJZ3DBIEJAg4E68A2Sfe/9qzlJwjkQ0DSd8mmYLOJRY71FzlglCgjMzsjnySmpxCAAAQgAIGACCx/RaOcJFNowQAHAnPA3Y8NKC5oCgQaI1B+PYdxiXEZB3AgUAc+0VgYsiMIQAACEIAABHYmYGavDbRAYEElsAUVPGl0MvFFM9tr57OVf0EgDwLlE77Im0bzhvGW8RYHhnfgDXkkMb2EAAQgAAEIBEhgcXFxD0n/wWSByQIOBOPA2b1e7yYBxgVNgkAjBCR9nDwKJo9Y2Bh+YQNWebD6s0aCkJ1AAAIQgAAEILAygeX7Yf2UCQMTBhxo3YHNRVHcdeUzld9CIH0Cc3Nz15V0KVnUehaxGJPHYgzHecTjXBTFfdJPYnoIAQhAAAIQCJxAURSbJF3JpIFJAw6054C7Py3wqKB5EKiVgJk9gAxqL4NgD3scWNsBM7ttrSHIxiEAAQhAAAIQGI6ApKMoXNYuXOADnxodePdwZyqvgkC6BNz972o8x7jaZMSrTTgWjHk4sJMDm7k/ZbrjDz2DAAQgAIEICZjZP1Cs7FSsMOFhwtOEAyctLCxcJ8LIoMkQqJSApB8zBjEG4QAOBOrAtysNPDYGAQhAAAIQgMBkBMpPliR9LtDCoYmFBPbBglXTDvywvA/dZGcu74ZA/ATcfZaxh4ULHMCBgB34cPxJSw8gAAEIQAACiRGYmZk5WNK3Ay4gml5gYH8satXlwC8Hg8HtEosQugOBsQhI+kvGHRYvcAAHQnXA3V86VrjxJghAAAIQgAAE6iXQ7/dvLemcUIsI2kWBm4ADV5rZ3es9k9k6BOIhIOnrCZzXdS12s10+SMGBlh1w94fFk6i0FAIQgAAEIJAZgX6/L0m/ZkLBYhEOVO7ANnd/VGaRQnchsCqBTZs23UrSNrKm8qxh0aPlRQ+cTsdpM5tZNcT4AwQgAAEIQAAC7ROQ9BBJWyjA0inAOJZBHMuj2z+7aQEEwiFgZs8im4LIJha8WPDCgZUduGpqamqfcFKTlkAAAhCAAAQgsCIBM3ssn4wzsWByWY0D7v5XK55o/BICGROQ9FUyppqMgSMccaAWB76TcUTTdQhAAAIQgEBcBMzs6RREtRREfNK58iedSXIxszfGdebTWgjUT2AwGNyMD0kYX6gxcCBwBz5afxqyBwhAAAIQgAAEKiOwVFi8KPDiIslFD5gnU9S/s9PpbKjshGRDEEiEgLs/g5xLJucYhzP6UCan85YnECYy4NANCEAAAhDIi4CkV+dUsNBXJlUVOfCeTqezMa+0oLcQGI6Au3+povOMxRMWT3AAB+py4OHDJRqvggAEIAABCEAgJAIbJL2VyQYLOzgwnAPu/k+Li4t7hHQS0xYIhEKg1+vdRNJW8mS4PIETnHCgHQf6/f6dQ8lN2gEBCEAAAhCAwGgEykWs11NEtVNEwT0e7mb2dq68Gi1ceHVeBMzsmWRaPJnGseJYZerAFp5AmNfYRG8hAAEIQCBBApJenGkhU9fl6Ww3ra8+vIV7XiUYfHSpUgKSTmUcYVEEB3AgcAfOrDT42BgEIAABCEAAAu0QMLPnBl50sCiU1qJQLMfzVe2ckewVAvEQKIpiivGDhQscwIHQHTCzf4knWWkpBCAAAQhAAAJrEpB0NI9ApwANvQBtqH3bJB2z5gnDHyEAgasJcBUv40ZDuRzLBx+0M9wP3P6a2IYABCAAAQhAICECkp4saQvFKBOSjB3YLOkJCZ3WdAUCtRIws+9lnBcsVoS7WMGx4djs5ICZLdYahmwcAhCAAAQgAIHmCZjZvZeuxrqICQmLWBk6cLGk+zV/1rFHCMRJQFI/w5zYaVJM/xkrcSAOB8zstnEmLa2GAAQgAAEIQGBNAkVR2NLVWGdRlMVRlHGcKjlOP5Z0pzVPDP4IAQjsRMDM3kj+VJI/LIpxtRAO1OvARTxNeKf45h8QgAAEIACBtAjMzc3dVNJpTE6YnGTgwOmDweBmaZ3B9AYC9RKYnp7eW9K5GeQDCwv1LizAF75NOPDFehORrUMAAhCAAAQg0DqB2dnZg9z9BCYoLGIl7MDHp6en92/9ZKMBEIiMgLv/UcK50MSEmn2wcIMDDTng7m+KLGJpLgQgAAEIQAAC4xAoP2U3s79losIiVmIObDWzF3Y6nQ3jnBe8BwK5EzCzTyaWCSwmNLSYgDfUE0074O6Pyz2z6T8EIAABCEAgKwLu/khJv2666GB/FLo1OHC+u983qxOYzkKgQgLufpikq2o4N1lEYhEJB3CgcgeKouhWGIFsCgIQgAAEIACBGAi4+6ykHzJpYVEpYgfK+7rdJobzjTZCIFQCZvYXEWdA5ZNjWDAm4kDQDlxhZnsFlaflpwBmVpjZXcrHf5vZIv+HAQ6k44CkI9z9nmY2Mzc3d/2gAojGQCAzAv1+/waSPkOxFnSxxgRthU+w3f0f5+bmrpvZKUt3yuwR2wAAIABJREFUIVA5AUnfZQxgDMABHIjEga9XHoKjbNDMbizpEZLeJulUSRdHAo5icoVikmNH8I3pwAWSvmBmr5V0PzPbd5Qc4bUQgMBkBBYXF/cws5dI2jLmOcyYyJjYpAMXLV05+OjJrOfdEIBASUDSPLlP/Y4DOBCRA8c1nt4zMzMHS3rK0lUYX5G0LSJYTRZn7IvJQM4OXCLpXeVVmNyQt/GIZocZEyjPOUn/x7hMIRuwA//Z7/dvnfFpStchUCmB8krGgM/3nGth+s5cEAdWduDPKg3BtTbm7jc3szdKupSgpDjGARwY0oEzJR0V3Hed1wo7/gaBiAmY2YGS3j/k+UlxtXJxBZfquZQ3mH7xwsLCnhGfXjQdAkERWP4K+WXkPTU5DuBARA7M1x6k8/PzB7j7sZKujAgMxWf1xSdMYTqJA+X9GR5Ye2CxAwhA4GoC7v4oSeVXtSY5b3kv/Kpw4If9fn+OUxMCEKiWgJk9k4xnjMMBHIjIga3T09P7V5uEu2yt3+8/SNLPI4JSRaHFNijYcaA+B77A10d2CVr+CYGaCJTnWnl/OsZwituWHCjvyfaGbre7X02Ks1kI5Exgw9J9iMur3KlZYYADOBCLA9+tLbQXFhauY2Z/SygyKOAADlTtgLv/StKRtQUYG4YABHYksMHMniSpfNhCLAUO7Yz/WH1LUn9HEfkZAhCojkD5RGgynTENB3AgMgc+UF0K7rClbrd7qKRTIoNBsRt/scsxzOsYlg+AeA33Q9khfPkRAjUSWH5q8EcZ2yl2a3bgckl/yX0PazyZ2TQEfvv0wY/UfC5Tl+dVl3O8Od5NOHB05QFeft3AzL5HIFLg4gAONOTAJ8orPisPMzYIAQisSIBbA5DtNWZ7+XXV268oHr+EAAQqI9Dr9W6ytFBcPhihiQkn+4AzDuBAJQ5Ufj9MM7uFpJ8ShgwGOIADDTvwWRaxKqtr2RAE1iUwOzt7kKTXS9rc8LleSQFEm8Mao8zsfyU9ZF3xeAEEIFAJATN7CTkYVg5yPDgeOLCuA1dWOt8zsxtK+jbg1wVP8c0KNA7U4ICZ/cvi4uIelVR2bAQCEBiKQHm1jKRPM/Yz9o/pwCVLi6DPr7QgHcpcXgSBfAmU55u7/2LMc5YatoYalmPBGIoDQzlwcmXJXU4aeUrRUNAJfUIfB2p0wN1fWlmwsSEIQGBoAu5+X0nfoQCjFhjSgfIehu8uv8Y0tGS8EAIQqISApCcMeZ5Ss9ZYs3IMGC9xYDQH3P1NlYRguREuQx0NPrLCCwdqc2BrURT3qCzc2BAEIDA0gfKm2+7+DEnnkXG1ZVwKE8pPF0VhQ4vFCyEAgSoJbJBUPuEzhSyhDxxHHMjIgaX7rP9xJWHo7r8raQtByECAAzgQiANnlU9CrSTg2AgEIDAygfn5+QPKp8i5+68CyQQK3DAK3M9VfvPVke3kDRDIm4CkI8hl6nUcwIFIHbjNxAlePr7ezL4ZKQAK2jAKWo4Dx6EOBz42ccCxAQhAYCICZnbg8hXaF1En5Fssu/uX3P1uE8nEmyEAgUoISPoUeZxvHnPsOfaxOlDet6+SEDSzp8cKgXZzAuNA2g4URXGfSoKOjUAAAhMRmJubu767v1JSecPuOhas2WaYXD9bXu0xkTy8GQIQqIzA8kM3tpLDjEM4gAMROvCJicOwfIKFpLMj7DyFbpiFLseF41K1A6d3Op0NE4cdG4AABCohMDs7e5CZPdfMfkbtkGzxvFnSe919thJp2AgEIFAZAUl/T/Ymm71V19Bsj3lZaA48f+IwNLOnEoKEIA7gQMgOLH3F+Q8nDjs2AAEIVEqgvNm7mS1KOjnk/KBtI41vF5dPBzKzW1QqCxuDAAQqITAYDG4k6TJybaRcC20CT3tYVMrWATO7+8RhKOlMQpAQxAEcCNyBUycOOzYAAQjURmD5hsKflsTXWuIszE8vbycxGAyuV5skbBgCEJiYwPLXuLOd/AZeq3Jc4hz/OG7NHbct5QOCJgpCMxsQBCxc4AAOROLA/SYKPN4MAQjUTqDX692k/HqhpB9Fkis5F66XufuHuL9V7acFO4BAJQTKBWZJF5Ct1O04gAOROlDeFmay/0l6c6Sdz7ngpO/NrRLDOizWX5ks8Xg3BCDQIIGN5QMYJH1Y0pXUGuEU2+7+X0v3L3vS9PT0/g36wK4gAIEJCSx/OEBtGlZtyvHgeODAkA6Y2dsnjMFOh09IwykoKe45FjiwvgOVfG964uRkAxCAwCgEer3eIeXX09z9S3zFcP2cq2ks+EY5+e33+7ce5djxWghAIAwCyw/dOqumfGACPuQEHP6tjWE4moajT5goUcsbdHISchLiAA5E5sDnJgo+3gwBCLRKwMxuuPTh2WPM7JOSroosf6IqoJdusH+GpBdLun2rB52dQwACExNYemL8U8hLanYcwIGYHSiKYmqiMCwLyJgB0HZOYBzI04F+vz83UfjxZghAIAgC5f2yJB3l7v/OU7UqyfPyyWTHu/szBoPB7YI4yDQCAhCYmMDCwsKekn5A3VtJTkb1QQTHnGOekAM/nzgMzey1CQEhjNK4rJDjyHEcxoFPTRyAbAACEAiKwPLXY46Q9CpJp0raRo0yVOH+Q0lvW7raanHiJ/sEZQSNgQAEthNw98eRh0Pl4TA1JK9hroED7Tjw/u2ZNvZ/JX2cMCQMcQAHInRgm5kVY4cfb4QABIInMBgMbibpCZLeJenbLGhdPVZtMbNvSnqLmf1xeSuI4A8kDYQABCYisHz11fcjrNVYJGhnkQDucA/SATN76kRhWL55+d4IQXaQkGZRBQdwYB0HPjpxCLIBCEAgGgJzc3PXl3R/d3+Zu58g6eJ1MiKF+qa8YfNn3P2l7n7fwWBwvWgOGA2FAAQqIWBmj80g61LIa/rAwhEOrOGAu//OxKEoiSdZrAGZwYIFFBwI2oGtlQThxEnKBiAAgZYIbDSz20p6oLs/z93/aenn0yRdEWF2XyrpFEnHSfrzoijuUd7sviWu7BYCEAiEAFdfBV2HsljBPBoHhnfg3E6ns2HiaM3k00vEGl4sWMEqNgc+OHEQsgEIQCApAuWEr9/vHy7pfksf1D25vGJL0nsknSipvF/UlS0scP1S0nfKq6kk/b2Z/YWkh5vZYDAY3CipA0BnIACByghw9RULWC2MV7HNBWhvHPPXar45I2krJwXBiAM4ELED5U2ee5VVimwIAhDIgcCG5a8j3qYoCpNU3jj+IWb2JEnPkfTy5RvJlzeT3/7/t5U3St/h/68p/1YujpnZc8v/S/qz5Xt2PdDM7mJmd+j1eod0Op2NOUCljxCAQLUEysX4pXvdfS/iGo2FhTgWFjhOHKfaHSifjlxJQrKAxcIFgyIOJODA8ZUEIhuBAAQgAAEIQAACgRBw98cnUKPVPjGGEXMZHIjCgWouOOArhFEcbIKfVXEcWMcBd79bIPUmzYAABCAAAQhAAAITEZiamtpH0v8xMWeuhgM4kIADF1R2NTpPIeSESOCEYHFnncWdTI7xSRNVirwZAhCAAAQgAAEIBEKgfJhDJvUbdTx1PA4k7oCZfbKyaC1vJEo4soiFAziQiANHVhaObAgCEIAABCAAAQi0QGB+fv4Ad/9FIrUZixOJL07gKfPIIRx4TmVR2u/354bYIcFD8OAADsTgwH9XdnlqZSnLhiAAAQhAAAIQgMDwBJbmZi9ifsaiAA7gQEIO9IdPwCFeKelbCcGJYZJNG1kMwoH6HHj0ELHHSyAAAQhAAAIQgEBwBMzshpIuYm7G4gUO4EAiDlxiZntVGrbufmwicFgUqG9RALawjcWBH01PT+9daUiyMQhAAAIQgAAEINAAAeZlLFowL8eBxByo/mnxku6XGKRYJtq0k0UhHKjHgaMaqDHZBQQgAAEIQAACEKiMwKZNm24l6XLmZSxg4AAOpOKAmT2zspDcvqFut7ufpCtTgUQ/OOFxIHsHzhkMBtfbnnH8FwIQgAAEIAABCIROQNIHqGGzr2H5cLueD7fh2hJXM5upJXslnUhgEpg4gAMJOfDqWsKSjUIAAhCAAAQgAIGKCRRFsUnStoTqMBYMWlowwCHmcwE5cHan09lQcVz+dnNm9sKAOkrgEXg4gAOTOnBlv98/vJbAZKMQgAAEIAABCECgOgIbJH2FuRgLDziAA4k58O7qYnKXLfX7/bnEYE06+eX9LKDgQPwO/OsuUcc/IQABCEAAAhCAQFAEJD2ceRgLFziAA6k54O6Pqi1sFxYW9pR0YWrQ6A9BgAN5O2Bm964tONkwBCAAAQhAAAIQmIBA+eRkST+gXs27XuX4c/wTdGCbmd14gnhc/62S/jVBcFxFE/9VNBxDjuEkDnyrXKBfPwF5BQQgAAEIQAACEGiWgKRjmH+xeIEDOJCgA9+qPU3N7OkJgptk4st7WTjBgQQcMLOn1h6g7AACEIAABCAAAQiMQMDdD+MbMCxcMP/GgRQdcPdjR4jD8V5aFMUdU4RHnwgFHMjegfP7/f4NxktG3gUBCEAAAhCAAASqJ2Bm76NGzb5G5cPyBD4s5zze/TwuiuI+1afmCluU9FMOwO4HACYwwYG4HTCzN64QefwKAhCAAAQgAAEINE5A0rykbdSXcdeXHD+OHw6s6MAV3W53v0aC1d3/kYOw4kFgdZzVcRyI24HNZnaHRoKUnUAAAhCAAAQgAIFVCCwuLu4h6TTmXMy5cAAHUnTA3U9YJf6q/7WkR6QIkT4RDjiAA5JO7HQ6G6pPTrYIAQhAAAIQgAAEhiMg6c+oS6lLcQAHUnXAzJ47XBpW8KqZmZmDJV2VKkz6RVDgQN4OuPsjK4hKNgEBCEAAAhCAAARGJjA3N3d9Sb+kHs27HuX4c/xTdsDMipHDcZI3SPpKykDpG4GBA/k64O6/KIvHSTKS90IAAhCAAAQgAIFxCEg6jjo03zqUY8+xz8CBczudzsZx8nHs95jZCzIAy/2M4r6fEceP4ze2A2b29rEDkjdCAAIQgAAEIACBMQgURXFXbtzOAgbzbBxI3IF3jxGPk72lvOQrcahjT3zhQuDgQBIObDOzu0yWlLwbAhCAAAQgAAEIDEdgenp6bzM7gzoyiTqSuSQfpOPAKg4s5dzicKlY7as2SPo5AUvA4gAOJOzA/5jZXtVGJ1uDAAQgAAEIQAACuxMwsxcmXFMxmV9lMs8xZy6VmQObZ2dnD9o9ARv4jaR3Zgab4CV4cSAzB8zsLxqIU3YBAQhAAAIQgEDGBIqimJJ0OXMrFjNwAAcSd+BzrUW9pIckDpfFiswWK/CZAWMFBy4zs9u2FrTsGAIQgAAEIACB5AlI+uwKNQhzEeYiOIADqTlwdGuBbmYHStpM2DLpxwEcSNyB41sLWnYMAQhAAAIQgEDSBNz9UYnXUalNwOkPi0o4MKYD/X7/8FYDXdKJBC6LFziAAxk48PBWw5adQwACEIAABCCQHIFut3uopPMyqKOY8I854ccN5lkJOXBm6yFuZs9NCCjBSrDiAA6s5sAv3f2w1kOXBkAAAhCAAAQgkAwBSR9mLsUCBQ7gQA4OuPuxrYe3mc3kAJs+Eio4gANm9i+thy4NgAAEIAABCEAgCQKSHkx9SX2JAziQiwNmdvcgwlvSj3KBTj8JGBzI2wF3f2QQwUsjIAABCEAAAhCIlkC/37+BpHOoK/OuKzn+HP+MHLjQzPYKIrQlvSEj8Kt9vYjf89UzHMjDgQsGg8HNgghfGgEBCEAAAhCAQJQEzOx9zJ9YvMABHMjIgQ8EE9ZLN3JfyAg8ixR5LFJwnDnOqzpgZp8MJoBpCAQgAAEIQAACUREwswcwd2LhAgdwICcHyqetBhPUCwsLe0r6ZU4HgL4SODiQtwNm9thgQpiGQAACEIAABCAQBYG5ubnrm9nPqCPzriM5/hz/zBzYYmY3DCqkJb07s4Ow6tUZcCCQcCALBy5095sHFcQ0BgIQgAAEIACBoAlI+iB1YhZ1InNFvs2BA9c68OXggrnf7z+IMCaMcQAHMnPg34ILYxoEAQhAAAIQgECQBMoHwWRWJzGBv3YCDwtY5OzAc4IL5W63u5+kywhlFjBwAAcyc+CJwQUyDYIABCAAAQhAICgC5VXbki7IrEbKecJO31mwwoFlB8zstkEF8vbGSPoEocziBQ7gQGYOXNLv9w/fnoP8FwIQgAAEIAABCOxCYKO7n5BZfcTknQUcHMCB0oFv7JKH4fxT0hMJZhYvcAAHMnTg1Onp6b3DSWNaAgEIQAACEIBAKATM7FkZ1kYsXrB4gQM4UDrwl6Fk8W7t6Ha7h0raQkCzgIEDOJChA6/ZLRT5BQQgAAEIQAACWROQdCdJl2dYF7F4weIFDuDAb4qiuGPQg4CkLxPQLF7gAA5k6MBWSfcKOqBpHAQgAAEIQAACjRFYWFi4jqTTM6yJWLhg4QIHcKB04H8aC9xxd+TuzyakWbzAARzI0QF3/4W7HzZufvI+CEAAAhCAAATSISDpbTnWQ/SZeQAO4EDpgJm9JPhE7/f7t5a0DWmRFgdwIFMHju90OhuCD2saCAEIQAACEIBAbQTc/Y8yrYO48oYrb3AAB652oCiKbm0hW+WGJZ1CYLN4gQM4kKsD7v6MKjOVbUEAAhCAAAQgEA8Bd7+5pPNzrYPoN3MAHMABM/teNKkt6RikRVocwIGMHbhCUi+a0KahEIAABCAAAQhUQmBhYWFPSV/JuAbi6huuvsEBHPiNu7+yklBtYiN8jZCFCwZtHMABfafb7e7XROayDwhAAAIQgAAEwiAg6a+pgaiDcQAHcnfA3T2MVB6yFZK+lvtBo/8EFw5k78D7h4xMXgYBCEAAAhCAQOQE3P2ekrZQ/2Vf/3EFElcg5e7AT6K7J7Ck5xDehDcO4EDuDrj70yKvx2k+BCAAAQhAAALrEFi+79V5udc99J/aHwdwQNLr14nM8P5sZrfgaYTIS4DhAA5os6T58FKaFkEAAhCAAAQgUAUBM9tL0knUPNS9OIADOHC1A3HOfSSdzAHkJMYBHMAB/bTX6x1SRZHMNiAAAQhAAAIQCIuApDdT61Dv4gAO4IB+Y2Y/63Q6G8NK6SFb4+7P5iByIuMADuDA1Q58vnwy0ZDxycsgAAEIQAACEIiAgLs/jDqHWhcHcAAHfuuAux8bQXSv3MRNmzbdiq8RcjJzMuMADlwT6PE8TnblWOe3EIAABCAAAQgsEyiK4o6SLqHOodbFARzAgd86UBSFRT1I8DVCTmZOZhzAgWsc2CbpwVGHOo2HAAQgAAEIQKAzPz9/gJmdQY1zTY2T+1PX6D9PHsQB6TvRDw9m9iyCnWDHARzAgWscuHAwGNwu+nCnAxCAAAQgAIF8CWw0s09S21xT2zBxZ/EGB3CgdOBF0Q8Ly4+U3UrAE/A4gAM4cI0D3+p2u/tFH/B0AAIQgAAEIJAhAXd/GTXNNTUNCxcsXOAADlztQDIf0kv6AiFPyOMADuDATg58NNondGQ4WaHLEIAABCAAgZKAmf0h9/jdqZ5h8YLFCxzAgdKBk5MZJZYepfgkJq4EPQ7gAA7s7ED5CW4yQU9HIAABCEAAAokTMLM7SLqIembnegYe8MABHJD058kMAbOzswdJuhyxERsHcAAHdnJgm7s/MpmwpyMQgAAEIACBRAnMzMwcLOn71DE71TFcecOVNziAA6UDW8zsxknFv6SPEvgEPg7gAA7s5sDl/X5/LqnApzMQgAAEIACBhAiY2V6SPksNs1sNw+IFixc4gAOlA/+RUOT/tivu/keEPqGPAziAAys6cI6Z3SK54KdDEIAABCAAgQQISHor9cuK9QuLFyxe4AAO/MbdH59A1O/chenp6b0lnU/4E/44gAM4sLsDSzeF/eb09PT+Oycn/4IABCAAAQhAoE0C7v5s6pbd6xaYwAQHcGDZgcvLW0a1mdO17dvd34HoiI4DOIADqzrw6cXFxT1qC2E2DAEIQAACEIDA0AQk3b+8twt1y6p1C1ffcPUNDuDAR4YO1dheKGmBAYABAAdwAAdWd8DdXxlbttNeCEAAAhCAQGoEJPUkXULNsnrNAhvY4AAOSHpwavm/Y382SvoJoiM6DuAADqzugLs/bsfg5GcIQAACEIAABJojMDc3d1Mz+xm1yuq1CmxggwM4IOmChYWF6zSXzi3sSdKrkB3ZcQAHcGBNBzZLul8LEc0uIQABCEAAAlkTGAwG15N0GnXKmnUKXxvja2M4gAPlzdv/LvkBw8xmGBAYEHAAB3BgXQcudXdPflCggxCAAAQgAIFACJQPnXL3E6hR1q1RWLxg8QIHcKBcwMpjriLp6wwMDAw4gAM4sK4D50m6fSB1Pc2AAAQgAAEIpExgg6R3U5usW5uwcMHCBQ7gQOnA/6Q8IOzUN0lHMTgwOOAADuDAUA78yN0P2ylE+QcEIAABCEAAApUSkPRq6pKh6hIWL1i8wAEc+I2ZPbPSEA55Y3Nzc9eXdDmDBIMEDuAADgzlwLdmZ2cPCjnXaRsEIAABCEAgVgKSnkI9MlQ9wsIFCxc4gAOlA1dl9wG7mf0zAwUDBQ7gAA4M7cB/lPfmiHVyQLshAAEIQAACIRIoHwEvaQv1yND1CAsYLGDgAA58LMQ8r7VN7n5fBgoGChzAARwYyYEPdDqdjbWGMxuHAAQgAAEIZEKgKIp7SLqCWmSkWoTFCxYvcAAHjsxkmLi2m4uLi3tI+ikDBgMGDuAADgzvgJm99tok5ScIQAACEIAABMYhUBTFJkmXUIMMX4PAClY4gAOSzjGzvcbJ3ejfI+mvOQk4CXAAB3BgNAfM7AXRDwB0AAIQgAAEINASAUl3knQ+9cdo9Qe84IUDOJD1h+n9fv/WkrZxInAi4AAO4MDIDhzTUt3PbiEAAQhAAALREjCz20o6i7pj5LqDr43xtTEcwIHy6YMz0Q4AVTRc0hcZQBhAcAAHcGBkB7a5+9OqyGG2AQEIQAACEMiBQK/Xu4mkH1FzjFxzsHDBwgUO4EDpwFdzGCvW7KO7P45BhEEEB3AAB8ZyYGuZoWuGLH+EAAQgAAEIQKDT7XYPNbMzqDfGqjdYvGDxAgdwoHTgKdkPJ91udz9JFzOYMJjgAA7gwFgOlI/+fkT2gwkAIAABCEAAAqsQmJ2dPUjS16kzxqozWLhg4QIHcKB04LIyS1eJ2bx+Lek4BhQGFBzAARwY24HNkh6Y18hBbyEAAQhAAALrE5iZmTmYxaux6wsWLli4wAEc2O7Ae9ZP3ExeIanPxJWBBQdwAAcmcuBKM3tAJsMG3YQABCAAAQisS2AwGFxP0snUFxPVF9snr/yXhQwcyNgBd//ddUM3pxdI+gaDC4MLDuAADkzkwGWSFnIaO+grBCAAAQhAYCUC09PT+0s6ibpiorqCBYuMFyw4dzh3dnDg9JVyNuvfLT3O9sk7ACIsCUscwAEcGM+BS4uiuEfWAwqdhwAEIACBrAks32P3ROYWTMBxAAdwYHIHePL5CkPq8qckFyHY5ILBEIY4kL0DVyxd1XrkClHLryAAAQhAAAJJE1hevPo8tVD2tRAfhI73QSjc4LarA5eUX8dOeuAYt3OS3spgw2CDAziAA5U4cGW/33/QuHnM+yAAAQhAAAKxETCzA939v6gjKqkjdp3E8m8WNnAgTwf+PraxoLH2FkXRZcBhwMEBHMCByhy4yt0f2ViIsyMIQAACEIBASwTKx7tzw/bK6gcWKvJcqOC4c9x3c8DMipZiPY7dSvoqk1cGHxzAARyozIEtkh4TxwhAKyEAgf/f3n3HS5YWdP6/PQkYYGBEgjAooSVc7Uvf83yfqr40SomIGEBRr7u4hp/uiq78dHTT6O7qzuqq81NfLJhHMWEexQBmUBRQFHExkXOGGYYwiQk9vXsPvzuvndDT4XaFE95/+MKZ6a469al3nec5zzl1SgEFFDj1Apubm/ctpfy9ucPc5g53OIjVVlsGxmegvaL11PfII/sbtdb/x4djfB8O77n3nIGFGjhSa/3akQ0nXq4CCiigwAgK1FofkOSfzSMWOo+woOXKHAZGaKBdmxnBMHJ6L3Fra+tuSa40CBmEGGCAgbkaOFpK+ebT20P72woooIACCnSnwObm5qckeYP5wlznCxYqRrhQ4TPkM3QMAx8upZzbnT1+h7eklPLsYwS0M7UzZYABBk7PwNFa64Ud3v3bNAUUUEABBU6qQNM0j07yLscMDrwZYICBhRh41kntjP2htbXdAekoiAuBaAHg9BYA9NNvCAYuWVtb22e8UUABBRRQoI8FmqYpSS53rOBYgQEGGFiMgel0ut7H8WFl25zkJTAuBqOuujLAQJLnzmazs1a2k/fECiiggAIK7KFAklmSq8xlzGUYYICBxRiotf7pHnbP4/4rtdYvAXIxIHXVlQEGdg28oL3v4LhHG69eAQUUUKAvBZqm+cIk15nHmMcwwAADizNQStnuy7jQme3c3t4+M8nbwVwcTG21ZYCBJC87cODA+Z3Z+dsQBRRQQAEFjlEgydclucncxdyFAQYYWJyBUsq7SylnH2M37F+dqMDOGZb/BOficGqrLQMMtAZ2zrK8ptb64BPtk/13BRRQQAEFVlGglHJREvfHdR/SIdyH1GvguNMGSinfvor9/CCes70qIMk1DrIdZDPAAAMLN/CeUsqBQQweXoQCCiigwCAK7H4j4yfMARY+B+j0AbX33/vPwNIMXDuZTO4ziAFkVS8iyaXALg2swcsZAQZGbKDW+qEkh1e1v/e8CiiggAIK3FJgY2Pj7qWUFzoOcBzAAAMMLM3AT9yyD/a/eyzQXhEA7NLAWrwY8eKFz5nP2a6Ba0opX7zHXba/poACCiigwGkX2NjYuF+SV5qbmJswwAADSzNwdDqdrp/2DtwDrK0l+TNwlwbXIpZFLAYYuLm9B6HxRwEFFFBAgWUXaJrm0UneYu5v7s8AAwwsz0Ct9Y+Wvb8f7PMgprK7AAAgAElEQVRNJpOnwbs8vFprzQADuwZ+dn19/ZzBDi5emAIKKKBApwokeWKSD5uHmIcwwAADyzVQa31ypwaEPm/M7g0c3wrxchHrrTcDDOwcTLx8c3Pzvn0eQ2y7AgoooED3C+z8dPu/SXKjuYe5BwMMMLB0A29YW1s7o/sjRY+2MMl/BHnpkH2VzFfJGGCgNfDm9isdPRoybKoCCiigQH8K7EtysXm+eT4DDDCwGgOllG/sz5DRky09cODA+UmugXo1qHXXnYFxG2h/obBpmif0ZMiwmQoooIACPSiwvr5+jyQvMMcY9xzD++/9Z2ClBq4spZzbgyGjf5uY5EfhXiluV+O4GoeBcRu4sdb69f0bPWyxAgoooEDXCkwmk4fu/Ort35vbm9szwAADKzVwSdfGh8FsTynl4UmOAL5S4BYwxr2A4f33/rcGnjWbzc4azODihSiggAIKLLVArfWzk3zQnN6cngEGGFipgfbk9IOXOgCM7cmS/AbkK0VuAcMCBgMM/O9a60trrQ8Y2xjk9SqggAIKnF6BJM9ws3ZzecdzDDDQCQO/cnp7dH/7hAWapjkEeyewW8SwiMEAA+8qpUxPuOP2BxRQQAEFRl9ga2vrbkl+0TzePJ4BBhjohgHz+CUNzUleBn030HsfvA8MjN7A9Um+YUm7f0+jgAIKKNDDAqWUT07yKnOG0c8ZnPx08pOB7hj48x4OJ/3c5CRfZAA0ADLAAAOdMvCLfsGkn2OqrVZAAQUWWaCU8llJ3m/M7tSYbRGhO4sI3gvvxaoMfN4i9/0e+7YF9iV5rYHQQMgAAwx0ysD/an9V6ra7a/+kgAIKKDDSAvtKKRf5AaZOjdOrOlD2vBZpGOiWgX9YW1vbN9KxaTUvu/3KigNXAyIDDDDQOQMfLKU8aTUjg2dVQAEFFOhCgclkcp8kf2iM7twYbRGhW4sI3g/vx6oMPL0LY8WotqG9EWSt9QMGRgMjAwww0DkDR0op/3Vtbe2MUQ1MXqwCCiigwFp7U+Ak7zA2d25sXtWBsue1SMNAtwy8dTabnWW4WkGBWut3GRwNjgwwwEA3DdRa/3Rzc/OBKxgePKUCCiigwPILtF8Z/JYkNxiXuzkue1+8LwwwkOSZyx8ePOPHC2xtbX1Ckmt8EH0QGWCAgc4auKJpmi80bCmggAIKDLdAKeVetdbLjMWdHYtdAdOtK2C8H96PlRhov8HWfpNtuKNRD15Zkh8xWBosGWCAgU4bOJrkWevr6+f0YFixiQoooIACp1Cg1vr4JO8yDnd6HF7JwTITTDDQLQO7t/g4hT28Pzr3ArXWB7tUuVsfDDsq7wcDDNyJgb+bTqefOveBwAMqoIACCiy9wPb29plJLvYrg8b8OxnzLZq5yoiBbhm4pv2BjaUPFp7wjgVKKT9nx2nwZIABBnph4KokX3XHPbl/o4ACCijQlwK7J5D/wrjbi3HXIkK3FhG8H96PlRgopfxgX8aYwW9nkkc6+2MANYligIFeGfiF9fX1ewx+gPICFVBAgYEVqLX+i1rrh4y5vRpzV3LAzAgjDHTGwA3T6fSCgQ1H/X45pZRf9wHpzAfEIOnMAgMMnNBAKeVtSWb9Hn1svQIKKDCOAu2N2pNcar5tvs0AAwz0zsBzxzFS9ehVTiaTxyRpbxR8woMmf0YjBhhgoDMG2v32paWUc3s05NhUBRRQYFQFmqZ5QpJ3Gjs7M3Y63nHMxwADJ2vg6HQ6XR/VoNWXF5vk9wysBlYGGGCglwZeW2utfRlvbKcCCigwhgKz2eyuSS5JcrOxtZdj68ke4PpzFkMYGKiBWutlYxivevkaa62PNbgaXBlggIHeGrip1vrdpZSzezkI2WgFFFBgQAVKKU2Sfzam9nZMtSAx0AUJn0mfyVMwcLSUcmBAQ9PwXkqSl5zCG2rHbsfOAAMMdM/APybZHN4I5RUpoIAC3S/QnkQopVyU5AZzagfKDDDAQK8N/Gb3R52Rb2GSz/Eh6/WHzGJC9xYTvCfek1UYuDHJxdvb22eOfFjz8hVQQIGlFWia5lAp5TXm0ubSDDDAQO8NHG3vE760AcQT7b1Akr/xgev9B24VB8ye00INAx0zUGt9hUuf9z4e+psKKKDAyRTY2tq6W631h5IcMYc2h2aAAQYGYeD5J7P/92c6UCDJU33oBvGhs5jQscUEnyufqxUZuLGU8n3tAVYHhhiboIACCgyqQK31M0spb1zR/t1cz1yPAQYYmL+Bo7XWg4MarIb+YpK80kDsYJsBBhgYlIG3NE3zuUMfv7w+BRRQYBkFDh48eO9a63P8wuCgxkkLAfNfCNBU094ZKKX81jLGEc8xxwJN03yhA1cDMgMMMDA8A+3PAW9sbNxvjkOGh1JAAQVGVWDnPlfbtdYPGCOHN0Z6T72nDIzeQHvvq4xqUBvKi3UvrNF/eHu3Wm7AYZaBkzbw4VrrhWtra2cMZczyOhRQQIFFF0jysFrrHxlrTnqsMZd09Q0DDPTNwO8seizx+AsqsLOA9XkGaAM0AwwwMGgDL5lMJo9Y0DDiYRVQQIFBFFhfXz8nyX9Jcp0xcdBjYt8OtG2vxSEG5mvgaCmlGcTANdYX0f6ClYHaQM0AAwwM2sDHaq3fXUo5d6xjndetgAIK3FmB9t6BSV5vHBz0OGgRYL6LAHrq2VcDL7izscC/70mB3UG7rwBtt50nAwwwcPIG3pPkq9fW1vb1ZIiymQoooMDCCkyn0wt2vjL4PAtXFq4YYICBcRiotdaFDSoeeHkFaq0v9aEdx4fW++x9ZoCB9v6HTdMcWt4o45kUUECB7hTY2tq6W5KLfV3QeGhOxAADozLg6qvuDMWntyVJnujDO6oPrytWTv6KFa20GqqBm0spP7W5uXnf0xtB/G0FFFCgPwVqrV9SSnmbea95LwMMMDAqA0ebpin9Ga1s6QkLJPkLH+JRfYiHelDudVlwYuDUDHy4lHLR/v3773LCgcIfUEABBXpaoL1pb5KXmOua6zLAAAPjM1Brvaynw5fNvrMCTdM8wYd5fB9m77n3nAEGdg28tr0n4p2NEf69Agoo0McCu/e5+oUkNxvvjHcMMMDAKA3clOSRfRzDbPMJCiT5cx/qUX6oXbFyales6KXXkA38sZ8XPsFg6T8roEDnC6yvr9+j/fXVJNea25rbMsAAA6M28NzOD1o2cG8FJpPJlg/3qD/cQz4o99osOjFw8gaO7pyp+tWmafbvbTTxtxRQQIHVFJjNZmeVUv5Nkvea05rTMsAAA6M38LFSyievZkTyrEspkOR3fNBH/0F3oH/yB/paaTVkAzcmubSU8klLGYA8iQIKKLD3AvtqrU9J8o/mseaxDDDAAAO7Bp6192HF3+xFgVrrpyU54kPvQ88AAwwwsGug/QrOJQcPHrx3LwYyG6mAAqMqsPtr2q8yZhmzGGCAAQZuZeDqjY2N+41qQBzri03S3uxyyFcVeG3eXwYYYODUDVzZ/mLh1tbW3cY6PnrdCijQnQKllGmt9U/NWc3ZGWCAAQaOYeDi7oxYtmShBQ4dOvSQJNcfA4EDvlM/4NNMMwYYGJqBd5RSvnH//v13Wehg5MEVUECBYxSYTCYppbzQPNUBKwMMMMDAnRi4YjqdnneMIcS/GmqBWutz7gTD0A7EvB6LCwwwwMDeDLzfFVlDnQV4XQp0r8BkMnlMrfWyJO0PTdhva8AAAwwwcEwDpZR/171RzBYttMDm5uZ9k1xlgmCCxAADDDBwAgOXJ7nYma6FDsseXIHRFrBwZQw6wRh0zANYf4cbBkZr4D1udzHSKUOt9bt98Ef7wTcZcEaDAQZOyUCt9QPtFVmHDx++50iHTS9bAQXmWKBpmkNJfs9c1FyUAQYYYOBkDdRav36OQ5GH6lOB9fX1e7QHJCeLxZ+zY2GAAQYYSPLB9oosv1rYpxHftirQnQKllMe5x5WxxHyCAQYYOFUDpZQ3zmazs7ozotmSpRdovz96qnD8eTsbBhhggIEkH661fv/m5uYDlz54eUIFFOhVgfaAI8nTSyl/b/wwfjDAAAMM7MVAKWW7V4OfjZ1/gdlsdtck79gLIH/HjocBBhhgIMkNSZ5Xaz04/1HKIyqgQJ8LtPcpqbV+U5K3Gi+MFwwwwAADp2HgL9fW1vb1eUy07XMqUGv9ytOAdEr3UPE8dloMMMDAoA28vD07tr29feachigPo4ACPSwwnU7v337VOMkV9vmD3uc7DnA/TQYYWIaB9tdpD/dwOLTJCyqwL8krTTBMMBhggAEG5mTgTbXWC0sp5y5o3PKwCijQwQLtlZhJLk3ysTntS5ZxYOQ5HIAzwAAD3TbwKx0c8mzSKgvUWh9vouHAlQEGGGBgzgYub3/xttb6gFWOcZ5bAQUWWuCMyWTytCR/Mef9hwPKbh9Qen+8PwwwsAwDHzt06NBDFjqKefB+FkjyOyYeDl4ZYIABBhZg4Mjur4490f0L+jlHsNUK3L5A+zXBUspF7m9lzFjAmLGMg2LPYfGFgR4YaH8w6Pbjj39W4OMFJpPJI5LcaBAyEWGAAQYYWKCBN7UHvZubm/c1/CqgQP8KNE1TfE3QGLHAMcKiQg8WFbz/9gFLMnB5KeVe/RspbfHSCiT5kSVhNDgZnBhggIFxG/hYKeWXSimPW9og54kUUGBPBQ4ePHjvUsq3JHmteaIDVwYYYICBZRhof8V2T4OWvzSeAltbW5+Q5MplgPQcdnwMMMAAA7sGXt9elTWZTO4znhHXK1Wg8wXOaBeYd6+2usb+2v6aAQYYYGCJBl5XSjm78yOlDVx9gST/aYkwXYEx7iswvP/efwYYuLWBa9ursmqtT97e3j5z9SOiLVBgfAU2Nzc/pdb6Xe5t5UDV8QADDDCwKgNN03zh+EZgr3hPBWaz2V1LKW9bFVbPa0fJAAMMMJDkvUmeVWs9uKfBzF9SQIGTLlBKObeU8hVJ/iTJzfbB9sEMMMAAAys08OKTHsD8QQXaAkmevkKwtz4b7/93dQYDDDAwcgOllNckuXgymTzUKK2AAvMp0F7leKuvCF5l3udglQEGGGCgAwZuLqU08xnpPMqYCuyrtb6iA4AduI78wJVBAykDDNzKQHtlyIt3rhL+msOHD99zTIOy16rAnAq087vH7v5oz+W3+myZb5lvMcAAAwx0wcDPzGm88zBjK5Bk4jJyB44mtwwwwEBHDVxXSvmtWutXtr+QNrYx2utV4FQKTCbtlC6XuK+V/XlH9+ddOGi2DRZvGFi9gatKKZ90KuObP6vAbQok+RkDnckOAwwwwEDHDRxJ8vJa64W11gfcZiDzDwqMtECt9dPar97u3NvqjR3//DpoXP1Bo/fAe8AAAys3UGv9DyMdsr3seRWYTqf3T/JREx8HrwwwwAADPTFwpNb6p0meubm5+cB5jYceR4GuF5jNZmclmSX54VLKu3vyeV35AZNOxjYGGGCgEwZet76+fk7Xx1rb14MCpZR/70PdiQ+1SZ4zIwwwwMCpGWjvmfWX7Rm99mqUHgy5NlGBUypw4MCB83d/eOdXklxpvma+xgADDDDQRwOllCed0gDoDytwZwV2z+j9Ux8/CLbZDpwBBhhg4FYG3p/keTu/arjtvll3Nur7910vsGP4Ye3XZZO8KMkNt/JtgfvUFrj10osBBhjohoHnd33stX09K7Bzb5EnmiA5CGSAAQYYGJCB9r5Zr2rvEdQ0TVlbW9vXs6HZ5o6kwPr6+j1252GX7Cy+vmZAn0EHjt04cPQ+eB8YYGCVBq6bTCYPHcmQ7mUus0CS3zVpcvDKAAMMMDBQA+9N8rNJ/qUbwS9zduG5bl+glHJ20zSfUWv97iR/naRdbF3lwYXn1p8BBhhgYFEGLr79OOifFZhLgVLKw5NcbxJlEskAAwwwMAIDry+l/FSt9StrrQ+ey0DqQRQ4RoF2wWrn64CHa63fkeQPk1w1gs/Xog6EPK6DbAYYYKAnBkopb9va2rrbMYZG/0qB+RQopXyfSZUDVwYYYICBERp4a63152utX9ue0JnPqOpRxlhgNpvdtdb6+Frrd+3+Yua1I/w8OcDsyQEmm8Z7BhhYlIHJZPK0Mc4DvOYlFmjvw+Cnme3EFrUT87hsMcBAXwy0Y2Gt9Zfbm2nXWh9bSjl3icOxp+pRgfbeHu0vBdZan5Pkb5Lc2BfnttM+mQEGGGBgQQb+uEdDuU3tc4H2/iALQuxsnLNxDDDAAAN9NXBTKeXvkzw3yTeUUpr2q2F9Hu9t+6kX2Nra+oRa62eXUr49ye8kaX/5sq+mbbf3jgEGGGBgEQZuKKU86tRHWX9DgT0WSPInJmQmpAwwwAADDBzXQHvfyPYm3D+6c5+Hr6m1Hty/f/9d9jj0+msdKzCdTi+otT6l/Spgkt9O8nafh+N+HhZxEOQxHVwzwAADPTNQSvnBjg3pNmfoBSaTySPc0N0kzUSdAQYYYOCUDbS/KPeGJM+vtX5PrfVflFIOrK+vnzP0uUNfX99kMrlPrfUzSynfmORHdu9bdTn7p2zfQWbPDjIZZ5wBBhZg4L2HDx++Z1/nBLa7xwV2f97ZZMRkhAEGGGCAgdM30N4X6bW11suSXFxK2W6aprRfSevxVKE3m95+3XM6nX7qzj2qPi/J/3urhSpfATx92/YPGjLAAAMMfNxAe+KuN5MDGzqsAu1PXiZ58wJWZe3g7OAYYIABBhj4vwY+kuTVpZTfqrX+UJJnJvn8pmke3f6i3bBmF4t7NbXWB0wmk7S/epTk20opP1Zr/aPducxN5jOuNGCAAQYYYGChBv5gcaO8R1bgJArUWp/sQ77QD7kDuP97AKeFFgwwwMCxDby31vqKJL+b5CfbK7hqrd+0s+j1Re0vJLa/gteedDqJYb2Xf6SUcq8kj2ya5jOSfGl7BdXuVeK/kOTPkrzJbQ/MVcxXGWCAAQZWauDadj7Sy4mGjR5WgSS/YWew0p2BA7pjH9DpogsDDDBwWwMfTfK6WutLd6/m+vn2q3JJvreUclGSZ+zcn+vppZQvaO/51N50PsnDDhw4cH77f2tra2fMewbTLqy1j725ufkppZSHt1+bbJrmUCnlSbXWL2+3aXfbLtldnPu1JH+8cwXaK5O808KU+Yc5KAMMMMBA9w20Y/m85xAeT4E9FWh/hSfJVXYc3d9xeI+8RwwwwAADczJwQ631Q7f83+4v8L0lyVtKKW9s//cY/3flrf781XPaDouUt12k1EMPBhhggIGuGfjH9l6Te1ps8JcUWESBUsq/NxF1UMQAAwwwwAADDDDAAAMMMMAAA7sGbm5vZ7CINQiPqcCeC8xms7PaG8zaUdlRMcAAAwwwwAADDDDAAAMMMMBAkp/Y8yKDv6jAIgu0K6tJbrajsqNigAEGGGCAAQYYYIABBhhgYNQG3nfw4MF7L3INwmMrcFoFaq0/bic16p1U175vbXvcA4ABBhhggAEGGGCAAQYYWL6Bf3laiwv+sgKLLjCdTs9L8i6LWBaxGGCAAQYYYIABBhhggAEGGBifgVrrHy167cHjKzCXAu3Pb9tJjW8n5T33njPAAAMMMMAAAwwwwAADozdwXSnl4XNZXPAgCiyjQK31Mjuu0e+4XKa7/Mt0NdecAQYYYIABBhhggAEGVmaglPLty1hz8BwKzK1ArfUBtdYPWcSyiMUAAwwwwAADDDDAAAMMMMDAKAz8Qynl7LktLHggBZZVYOdeWP/aTmoUO6mVre7zxRcDDDDAAAMMMMAAAwww0AkDN00mkyxrvcHzKDDvAvuSvMjOpBM7E4tMLiNmgAEGGGCAAQYYYIABBhhYlIH/Me8FBY+nwFILTCaThya5xiKWRSwGGGCAAQYYYIABBhhggAEGBmngdbPZ7K5LXWzwZAosokAp5SI7qUHupBa1cu9xnRVigAEGGGCAAQYYYIABBvph4Oadb14dXsRagsdUYOkFZrPZWUleZRHLIhYDDDDAAAMMMMAAAwwwwAADwzFQSvnBpS8yeEIFFlmg1nowyY12VMPZUXkvvZcMMMAAAwwwwAADDDDAwHgNlFLeWEo5d5FrCR5bgZUU2Nmx/Tc7t/Hu3Lz33nsGGGCAAQYYYIABBhhgYDAGbq61fuZKFhc8qQKLLuCrhIPZUfkuej++i+598j4xwAADDDDAAAMMMMDAogz88KLXEDy+Aist0DTNRpIbrLpbzGKAAQYYYIABBhhggAEGGGCglwbefvjw4XuudHHBkyuwjAKllO+0k+rlTmpRK/ce11khBhhggAEGGGCAAQYYYKAfBo6WUp60jLUDz6HAygvsfpXwlRaxLGIxwAADDDDAAAMMMMAAAwww0CsDl658UcEGKLDMAqWUA75K2KudlLMh/Tgb4n3yPjHAAAMMMMAAAwwwwMCiDLyzlHKvZa4deC4FOlEgyX+x0m4RiwEGGGCAAQYYYIABBhhggIHOGzjaNM3ndmIxwUYosOwCvkrY+R3UolbtPa4zQgwwwAADDDDAAAMMMMBAvww8a9lrBp5PgU4VaJrm0Uk+ZrXdYhYDDDDAAAMMMMAAAwwwwAADnTTw2q2trbt1ajHBxiiwigKllIvspDq5k3JGpF9nRLxf3i8GGGCAAQYYYIABBhiYt4EbSynNKtYKPKcCXSxwRpKXWMSyiMUAAwwwwAADDDDAAAMMMMBApwz85y4uItgmBVZWoNb64Frrh+yoOrWjmvfKvcdzNogBBhhggAEGGGCAAQYY6I+Bv9re3j5zZQsFnliBrhYopXyNBSwLWAwwwAADDDDAAAMMMMAAAwys3MA10+n0U7u6fmC7FFh5gVLKr9tRrXxH5YxIf86IeK+8VwwwwAADDDDAAAMMMLAIA89Y+QKBDVCgywUOHDhwfpJ3WsSyiMUAAwwwwAADDDDAAAMMMMDA8g3UWv9obW1tX5fXDmybAp0okORzkhy1o1r+jkpzzRlggAEGGGCAAQYYYICBURu4otb6gE4sDtgIBfpQIMkP22mOeqe5iEtgPaZLqxlggAEGGGCAAQYYYICB4xgopWz3Yc3ANirQmQJbW1t3S/Jai1gWsRhggAEGGGCAAQYYYIABBhhYvIFSys91ZlHAhijQpwJJNpPcYEe1+B2VxhozwAADDDDAAAMMMMAAA6M28KbDhw/fs09rBrZVgU4VKKV8u53oqHeiLu89zuW9Phs+GwwwwAADDDDAAAMMMDAHA9eXUppOLQbYGAV6WOCMJC+awwfSQoiFEAYYYIABBhhggAEGGGCAAQbuaOBbe7hWYJMV6F6B6XR6/yTvt4jlzAIDDDDAAAMMMMAAAwwwwAADczXwB2tra/u6txJgixToaYEkn5fkqB3VXHdUzjzc8cyDJpowwAADDDDAAAMMMMDAWAy8v71gpKfLBDZbge4WSPI/LWBZwGKAAQYYYIABBhhggAEGGGDgtA3cnOSJ3V0BsGUK9LhAKeXsJH9tR3XaO6qxnE3wOp05Y4ABBhhggAEGGGCAAQaObeB7e7w8YNMV6H6Bpmn2J7nKIpZFLAYYYIABBhhggAEGGGCAAQb2ZOBv2gtEur8CYAsV6HmBUsrX2EntaSflzMOxzzzoogsDDDDAAAMMMMAAAwyMxcCHJ5PJQ3u+LGDzFehPgSS/aBHLIhYDDDDAAAMMMMAAAwwwwAADp2Tg6f058relCgygwPr6+j2SvMGO6pR2VGM5o+B1OnvGAAMMMMAAAwwwwAADDNzRwKUDWA7wEhToX4HJZJIk11vEsojFAAMMMMAAAwwwwAADDDDAwHEN/FMp5dz+HfnbYgUGUiDJM+2kjruTctbhjmcdNNGEAQYYYIABBhhggAEGxmTg6qZpHj2QZQAvQ4H+FnA/LAtYFjEZYIABBhhggAEGGGCAAQaObaDW+q/6e8RvyxUYUIHd+2G91s7q2DsrXXRhgAEGGGCAAQYYYIABBsZpoJTy7AEd/nspCvS/QJJPT3KtnfI4d8red+87AwwwwAADDDDAAAMMMHAHA3+9vr5+Tv+P+L0CBQZWoJTyFXZYd9hhjel73V6r+xgwwAADDDDAAAMMMMAAA/+/gSsPHTr0kIEd9ns5CgynQJLnWsSyiMUAAwwwwAADDDDAAAMMMDBiAzfXWp88nCN9r0SBARaYzWZ3TfJ3I95ROdvgjBMDDDDAAAMMMMAAAwwwMG4D/22Ah/tekgLDK9A0zf4kH7GI5YwLAwwwwAADDDDAAAMMMMDAyAy8eHt7+8zhHel7RQoMtECSpyY5OrIdlbMs4z7L4v33/jPAAAMMMMAAAwwwMG4D79rc3LzvQA/zvSwFhlsgybMsYDnbwgADDDDAAAMMMMAAAwwwMAIDN04mk63hHuF7ZQoMuMBsNjsryZ+NYEflLMu4z7J4/73/DDDAAAMMMMAAAwyM3EAp5VsGfHjvpSkw/AIbGxv3S/JOi1jOuDDAAAMMMMAAAwwwwAADDAzRQK31l4d/dO8VKjCCAkk2k1w3xB2V12QAZoABBhhggAEGGGCAAQZGbeDVpZRzR3Bo7yUqMI4CSb7KTn3UO3WXVI/8kmqff59/BhhggAEGGGCAgQEa+OBkMnnoOI7qvUoFRlSg1vrjA9xhWZixMMMAAwwwwAADDDDAAAMMjM/ATaWUzxrRIb2XqsB4CpRSzq61vtQiljMvDDDAAAMMMMAAAwwwwAADfTZQSvnm8RzNe6UKjLBArfUBpZR393lHZdsNtAwwwAADDDDAAAMMMMDAqA08b4SH816yAuMr0DTNoSTX2+GPeofvEuvxXWLtPfeeM8AAAwwwwAADDAzBwN9tbW3dbXxH8l6xAiMtUEr5txawLGAxwAADDDDAAAMMMMAAAwz0yMD7p9PpBSM9jPeyFRhvgSQ/2aMd1RDOFHgNzngxwAADDDDAAAMMMMAAA3szcGOt9TPHewTvlSsw4gLtTd2T/JlFLGdcGGCAAQYYYIABBhhggAEGOm7gG0Z8+O6lK6DAZDK5T9g2CKQAACAASURBVJI3dXxH5QzF3s5Q6KYbAwwwwAADDDDAAAMM9N5AKeXnHL0roIACa0k+PclVFrGccWGAAQYYYIABBhhggAEGGOiYgZetr6+f49BdAQUU+HiBWuuTkxzp2I6q92cK9DT4M8AAAwwwwAADDDDAAAN7M1BKedvGxsb9HLYroIACtylQSrnIjnVvO1bddGOAAQYYYIABBhhggAEG5mrgo+23hW5z0OofFFBAgVsKJHmune5cd7quInPPAQYYYIABBhhggAEGGGDg1AwcKaV8wS3Hqf5XAQUUuEOB2Wx211rrKyxiWcRigAEGGGCAAQYYYIABBhhYhYFa6zfd4WDVv1BAAQVuX6DW+oAk71zFjspzGiAZYIABBhhggAEGGGCAgfEaKKU8+/bHqP5ZAQUUuNMCpZQmyTUGjvEOHN577z0DDDDAAAMMMMAAAwws2cDvb29vn3mnB6r+gwIKKHCsAkk+3y8TGrCWPGC5N8Cp3RtAL70YYIABBhhggAEGBmGglPKaUsq9jnVs6t8poIACJyyQ5BssYFjEYoABBhhggAEGGGCAAQYYWKCBK5I87IQHqP6AAgoocLwCtdbnLHBHNYizBfoYzBlggAEGGGCAAQYYYICBPRn42GQy2TreMan/poACCpxsgTOS/Lad8Z52xhboXNLNAAMMMMAAAwwwwAADDBzbwNFSylec7IGpP6eAAgqcsMDGxsbdk7zKIpZFLAYYYIABBhhggAEGGGCAgXkYKKV85wkPRv0BBRRQ4FQLlFI+Kcnb57Gj8hgGPAYYYIABBhhggAEGGGBgvAZqrT99qsek/rwCCihw0gWm0+l6kg8baMY70HjvvfcMMMAAAwwwwAADDDBwmgZ+fzabnXXSB6L+oAIKKLCXAklmSW44zR2W74Af+zvguujCAAMMMMAAAwwwwAADQzbwt+vr6/fYy7Gov6OAAgqccoFa69dbwHLWhQEGGGCAAQYYYIABBhhg4BQMvHljY+N+p3wA6i8ooIACp1OglPLfT2FHNeQzCF6bM2QMMMAAAwwwwAADDDDAwPENXDGZTB5xOseg/q4CCiiw5wJJftQiljMuDDDAAAMMMMAAAwwwwAADxzFw3WQy2drzgae/qIACCpxuge3t7TOTPP84OypnIY5/FkIffRhggAEGGGCAAQYYYGDIBo6UUr74dI89/X0FFFDgtAtsbW3dLcnLLGI548IAAwwwwAADDDDAAAMMMHA7A8887YNOD6CAAgrMq8BkMrlPktfebkc15LMIXpuzZAwwwAADDDDAAAMMMMDAcQy0902e1zGnx1FAAQXmVmA6nV6Q5J0WsZxxYYABBhhggAEGGGCAAQbGbaCU8ktra2v75nbA6YEUUECBeRZommYjyUcMVuMerLz/3n8GGGCAAQYYYIABBkZt4A9KKWfP81jTYymggAJzL1Br/cwkHzNgjXrAcin1cS6l9tnw2WCAAQYYYIABBhgYqoFa6ys2NjbuPvcDTQ+ogAIKLKJAkqcmOTLUnbLXZcLBAAMMMMAAAwwwwAADDNzBwD8eOHDg/EUcY3pMBRRQYGEFSinfaId+hx26K5NcmcQAAwwwwAADDDDAAAODM1BKeeN0Or3/wg4wPbACCiiwyAK11u+wiGURiwEGGGCAAQYYYIABBhgYroFSyrsPHTr0kEUeW3psBRRQYOEFklxisBruYOW99d4ywAADDDDAAAMMMDBqA1dMp9P1hR9YegIFFFBgCQX2JflJg9qoB7XBXSLNM88MMMAAAwwwwAADDOSqyWSSJRxTegoFFFBgaQXOSPKrdvAGeQYYYIABBhhggAEGGGBgEAZuKKU8aWlHlJ5IAQUUWFaBUsrZSX7PYDWIwcoVVW48ygADDDDAAAMMMMDAeA20vzj/pcs6lvQ8CiigwNILbG1t3S3Jn1vEsojFAAMMMMAAAwwwwAADDPTSwNEkX7f0g0lPqIACCiy7wHQ6PS/J3xqsejlYOcs23rNs3nvvPQMMMMAAAwwwwMD/LqX8u2UfQ3o+BRRQYGUFNjc375vkdRaxLGIxwAADDDDAAAMMMMAAA/0wUEr5rys7iPTECiigwKoKTKfTC5K82WDVj8HK++R9YoABBhhggAEGGGBgvAZqrd+9qmNHz6uAAgqsvECt9cFJ3mogHO9A6L333jPAAAMMMMAAAwww0HkDz1r5waMNUEABBVZdoJTyyUnebtDq/KDlngfuecAAAwwwwAADDDDAwMgMlFKevepjRs+vgAIKdKbAdDr91CTvsYhlEYsBBhhggAEGGGCAAQYY6IaBWutPr62t7evMgaMNUUABBbpQIMkjk7zPYNWNwcr74H1ggAEGGGCAAQYYYGDUBn52bW3tjC4cK9oGBRRQoHMFSikHklxhoBz1QOmy9JFdlu7z7vPOAAMMMMAAAwx0y0Ct9ectXnXucNkGKaBA1wpMJpPHJLnSINatQcz74f1ggAEGGGCAAQYYYGD4Bmqtl81ms7O6dpxoexRQQIFOFkiyWWv9kAFy+AOk99h7zAADDDDAAAMMMMBAZww83+JVJw+RbZQCCnS5QK31sUmuNph1ZjDz1T5f7WOAAQYYYIABBhhgYLgGfqeUcnaXjxFtmwIKKNDZAqWUxyW5yiKWRSwGGGCAAQYYYIABBhhgYGEGfm99ff2czh4Y2jAFFFCgDwUmk0l8nXBhA5UzaMM9g+a99d4ywAADDDDAAAMMnIyB35vNZnftw7GhbVRAAQU6X6BpmuLG7haxnHFjgAEGGGCAAQYYYICBuRr4DV8b7PzhsA1UQIG+FSilNEk+aMCa64B1Mmdk/Bln7hhggAEGGGCAAQYYGJiBUsqvu2F7346Kba8CCvSmQK31YJIrLGJZxGKAAQYYYIABBhhggAEG9mzgVyxe9eYw2IYqoEBfC0wmk8dYxNrzQOXM2cDOnJm0+SwwwAADDDDAAAMMnKKB566trZ3R1+NB262AAgr0qkDTNI9O8r5T3FFbvLF4wwADDDDAAAMMMMAAA2M2cKnFq14d+tpYBRQYQoFSyqOSvNciljNODDDAAAMMMMAAAwwwwMDxDdRaf3xtbW3fEI4FvQYFFFCgdwV2r8SyiOUs2pjPonnt/DPAAAMMMMAAAwycyMAP9O5gzwYroIACQytw6NChhyR5szMuxz/joo8+DDDAAAMMMMAAAwyM0sAlQzsG9HoUUECB3haYTqcXJHm9AXmUA/KJzjb5785IMsAAAwwwwAADDIzSQCnlO3t7kGfDFVBAgaEW2NjYuF+SV1vEsojFAAMMMMAAAwwwwAADIzdwtNb6H4Z67Od1KaCAAr0vcPDgwXsn+cuRD1ajPLvkPTdJZYABBhhggAEGGGDg4waOJPnXvT+48wIUUECBoRfY2Ni4e5I/MXiZwDDAAAMMMMAAAwwwwMDIDNyQ5MuGfszn9SmggAKDKbB///67JPntkQ1WrrxybwcGGGCAAQYYYIABBsZr4JpSypMGc1DnhSiggAJjKTCbzc5K8gsWsZx1Y4ABBhhggAEGGGCAgSEbqLV+aDKZbI3lWM/rVEABBQZXYHt7+8xa608PebDy2kzGGGCAAQYYYIABBhgYtYH3NU2zMbiDOS9IAQUUGGGBfaWUHzSoj3pQdyn9eC+l99577xlggAEGGGBgyAbePJlMHjrCYzwvWQEFFBhugVrrhUlutpBlIYsBBhhggAEGGGCAAQb6bqCU8pqtra0HDfcIzitTQAEFRlyg1vqVSW7s+2Bl+024GGCAAQYYYIABBhgYtYFXTiaT+4z40M5LV0ABBYZfIMnnJ7nWgD/qAX/Il5F7bb4mwQADDDDAAAMMDNvAH29sbNx9+EduXqECCiigwFqttSa5wiKWRSwGGGCAAQYYYIABBhjokYFfXF9fP8chnQIKKKDAiAo0TfPoJO/o0WDlTNqwz6R5f72/DDDAAAMMMMAAA3dqoNb6nLW1tTNGdMjmpSqggAIK3FJgc3PzgUn+wSKWs24MMMAAAwwwwAADDDDQUQNHdr498sxbjmH8rwIKKKDASAscOHDg/CQv7+hgdadnYGyvCRYDDDDAAAMMMMAAA4M3cH2t9ctHeqjmZSuggAIK3L5AKeXcJC8wARj8BMCCoMvyGWCAAQYYYIABBvpi4IO11sfe/tjFPyuggAIKjLzA9vb2mUl+xCKWRSwGGGCAAQYYYIABBhhYpYFSyttKKY8a+SGal6+AAgoocLwCtdYLk9y8ygHLc5swMcAAAwwwwAADDDAwWgP/uLW19aDjHbP4bwoooIACCny8QK31S5JcZ9Iw2klDXy4rt52+AsEAAwwwwAADDAzLwIun0+l5DssUUEABBRQ46QJN0xxKcrlFLItYDDDAAAMMMMAAAwwwsAQDv1BKOfukD1j8QQUUUEABBW4pkOSRSd6yhMHKmbNhnTnzfno/GWCAAQYYYIABBk7aQK31e9bW1vbdchzifxVQQAEFFDjlApPJ5D5JXm4Ry1k3BhhggAEGGGCAAQYYmLOBG3Zu2P41p3yQ4i8ooIACCihwrAKz2eyupZRfn/NgddJnZDyviRIDDDDAAAMMMMAAA4MzcGWt9fHHOv7w7xRQQAEFFNhzge3t7TNLKc82cRjcxMFCosv7GWCAAQYYYIABBpZt4LWllIfv+eDEX1RAAQUUUOBEBWqtX5/kRgtZFrIYYIABBhhggAEGGGBgDwZedPDgwXuf6LjDf1dAAQUUUOC0CzRN8xl+odBkZQ+TlWWf2fN8ziYzwAADDDDAAAMdMlBr/Wm/NHjah2MeQAEFFFDgVAo0TbM/yessYljIYoABBhhggAEGGGCAgRMYOFJKuehUjjf8WQUUUEABBeZW4MCBA+cnefEJBitnvTp01st7ZXLJAAMMMMAAAwwwsGQDVyd56twOQjyQAgoooIACeykwm83OSvIjSx4ELYpZFGOAAQYYYIABBhhgoOMGSinvLqU0eznO8HcUUEABBRRYSIEkz0hyk4UsZ/QYYIABBhhggAEGGGAgyaun0+kFCzn48KAKKKCAAgqcToFSypOSfNiExYSFAQYYYIABBhhggIFRG/iVUsq5p3Ns4e8qoIACCiiw0ALT6XQ9yZtMWEY9YXE5f8cv5/f59PlkgAEGGGCAgQUZaL+R8W0LPeDw4AoooIACCsyrwHQ6PS/J7yxoULQ4YnGEAQYYYIABBhhggIHuGfhgkifO65jC4yiggAIKKLCsAvvan8pNctRCljN8DDDAAAMMMMAAAwwM2sA/TCaThy7rQMPzKKCAAgooMPcCtdYvT3KNCcugJyzOgHbvDKj3xHvCAAMMMMAAA8sy8GsbGxt3n/uBhAdUQAEFFFBg2QWaptlI8haLWBaxGGCAAQYYYIABBhgYjIH2mxYXr62t7Vv28YXnU0ABBRRQYGEFtra2PiHJn5iwDGbCsqwzep7H2WMGGGCAAQYYYKB7Bj6a5KkLO3jwwAoooIACCqyywPb29plJLrGIZRGLAQYYYIABBhhggIHeGnh9KeVRqzyu8NwKKKCAAgospUCSpye51qSlt5MWZ0G7dxbUe+I9YYABBhhggIGFGyilvLCUcq+lHDR4EgUUUEABBbpQoJTSJHmrRSyLWAwwwAADDDDAAAMMdN7AkVrrd7jfVReOpGyDAgoooMDSC0yn0/OSPN+EpfMTloWfzWOAAQYYYIABBhhgoLMGLk/yOUs/WPCECiiggAIKdKzAvlrrhUluMmnp7KTFApavJDDAAAMMMMAAAyM0UGt96ebm5gM7dvxgcxRQQAEFFFhdgVrr45O8zyKWRSwGGGCAAQYYYIABBlZu4Git9TmllLNXd4TgmRVQQAEFFOhoga2trQclebkJy8onLM6wjvAMq8+dzx0DDDDAAAMM7Br4aJIv6+ghg81SQAEFFFCgGwVms9lZSS5JctQkyiSKAQYYYIABBhhggIGlGnh10zT7u3FkYCsUUEABBRToQYFSyhcn+YgJy1InLK68cuUVAwwwwAADDDAwXgPPK6Wc24NDBZuogAIKKKBAtwqUUh61c/nyP1vEsojFAAMMMMAAAwwwwMDCDFxXa/3abh0J2BoFFFBAAQV6VmA2m921vYGkCcvCJizOso73LKv33nvPAAMMMMAAA2+aTCaP6dkhgs1VQAEFFFCguwWSPD1Je0NJEy0NGGCAAQYYYIABBhg4fQO/Op1Oz+vuEYAtU0ABBRRQoKcFDh069JBa6yssYlnEY4ABBhhggAEGGGBgzwbarwxe2NNDAputgAIKKKBAPwqUUs72K4V7nqw4U3n6Zyo11JABBhhggAEG+mygvb/sp/dj5m8rFVBAAQUUGECBJE9NcqUzbxazGGCAAQYYYIABBhg4KQN+ZXAAx0FeggIKKKBADwvUWh+c5GUmLCc1YenzmULb7kw3AwwwwAADDDCwdwNX1Fqf0sPpvk1WQAEFFFBgOAVms9lZSS5OcrOFLAtZDDDAAAMMMMAAAwzcxsBLtra2HjSc2b9XooACCiigQM8LNE3zhCTvMmG5zYTFmcq9n6nUTjsGGGCAAQYY6LOBI+1J3u3t7TN7Ps23+QoooIACCgyvQCnlXrXWX7aIZRGLAQYYYIABBhhgYMQG3tk0zWcMb7bvFSmggAIKKDCwArXWr01y9YgnLX0+W2jbne1mgAEGGGCAAQb2buA3Dxw4cP7ApvdejgIKKKCAAsMtcOjQoYe4wbszrxYxGWCAAQYYYICBkRj4aJJnDHd275UpoIACCigw4ALtDd5LKRcluXEkExdnK/d+tlI77RhggAEGGGCgrwb+qmma/QOe1ntpCiiggAIKjKNAKWWa5E0WsZyBZYABBhhggAEGGBiQgfYkrRu1j+OQxqtUQAEFFBhLgcOHD98zyaUDmrD09Qyh7XZ2mwEGGGCAAQYYOH0D/5xkcyxzea9TAQUUUECB0RUopWwnucJClrOvDDDAAAMMMMAAAz00cHOS/2///v13Gd1E3gtWQAEFFFBgbAU2NjbuV0r5rR5OWJytPP2zlRpqyAADDDDAAAN9NfD2JLOxzd29XgUUUEABBUZfYPdqrCstZDn7ygADDDDAAAMMMNBlA7XWyw4cOHD+6CfwAiiggAIKKDDWArXWByR5QZcnLLbNhJoBBhhggAEGGBitgcsnk8nTxjpX97oVUEABBRRQ4LYF9iX5hiRXmxyOdnLY168S2G5fg2GAAQYYYGC4Bn6jvfXFbaet/kkBBRRQQAEFRl/g0KFDD0nyZxaxLGIxwAADDDDAAAMMrMpArfUDSb5s9JNzARRQQAEFFFDguAXaq7GekeSaVU1aPK8JMwMMMMAAAwwwME4D7b2uSimfeNzZqv+ogAIKKKCAAgrcUmAymTyi1vpSk8dxTh697953BhhggAEGGFimgVLKu2utT7llLup/FVBAAQUUUECBUylwy9VYH13mBMZzmTAzwAADDDDAAAPjMdBedbW1tfUJpzJJ9WcVUEABBRRQQIE7FNjc3Hxgkt82kRzPRNJ77b1mgAEGGGCAgSUYeHsp5Ul3mHz6FwoooIACCiigwOkUKKVsJ7liCZMZvyY03F8T8t56bxlggAEGGGDgaJJLDx8+fM/TmZv6uwoooIACCiigwJ0WaH/KOMnzLGI5K8sAAwwwwAADDDCwBwNvbZrmCXc62fQfFFBAAQUUUECBeRZI8kVJ3rOHSYuzrs66MsAAAwwwwAAD4zNwU5IfKKWcO885qcdSQAEFFFBAAQVOWODgwYP3rrX+dJL2MnATUQ0YYIABBhhggAEG7mCg1vqKpmk2Tji59AcUUEABBRRQQIFFFiilPC7JP1vEsojHAAMMMMAAAwwwcCsDH6m1Xri9vX3mIueiHlsBBRRQQAEFFDjpAqWUs9sJSpKrbzVpucMZOP/NpJYBBhhggAEGGBi+gVLKC6fT6QUnPZn0BxVQQAEFFFBAgWUW2LnB+8OS/IGJ6fAnpt5j7zEDDDDAAAMMHMPAW5N83jLnn55LAQUUUEABBRTYc4Fa61OSvPMYkxpXZbk3BgMMMMAAAwwwMDwDN9Van7O+vn6PPU8g/UUFFFBAAQUUUGAVBUop92onMkmOWMhyhpYBBhhggAEGGBisgb9rmqasYr7pORVQQAEFFFBAgbkV2PlK4STJq01aBztpdRZ9eGfRvafeUwYYYICBkzHw4VLKN66trZ0xt4mjB1JAAQUUUEABBVZZYDabnZXkW3f+7yMWsixkMcAAAwwwwAADvTZwNMnPTqfT+69yfum5FVBAAQUUUECBhRWYTCb32f1a4c0mrr2euJ7MWVl/xtl7BhhggAEGhmfg72qtj13YZNEDK6CAAgoooIACXSowmUxSa32FRSyLWAwwwAADDDDAQC8MXFlrvXB7e/vMLs0pbYsCCiiggAIKKLCMAmck+eokl5u49mLi6iz68M6ie0+9pwwwwAADJzLQXjX/vFLKJy5jcug5FFBAAQUUUECBzhY4cODA+X6t0AKWRUwGGGCAAQYY6JyBv2iaZqOzk0gbpoACCiiggAIKrKJArfVgkpeZvHZu8nqiM7P+u7P3DDDAAAMMDMvAe9qr5NfW1vatYk7oORVQQAEFFFBAgT4U2Jfkq5K810KWhSwGGGCAAQYYYGCpBm6otX7/+vr6PfowabSNCiiggAIKKKDAygu0E6da6/ckuc7EdakTV2fQh3UG3fvp/WSAAQYYOFkDL5hOp5+68kmgDVBAAQUUUEABBfpYYGtr60FJLk3S3kD0ZCdg/pxWDDDAAAMMMMDASRgopbwmyef1cZ5omxVQQAEFFFBAgc4VmEwmqbW+1CKWRTwGGGCAAQYYYGAuBtr7XD1je3v7zM5N/GyQAgoooIACCijQ9wK11qfs3CPrLSauc5m4OjN9EmemWWONAQYYYGBgBq5Ncsnhw4fv2fd5oe1XQAEFFFBAAQU6XWB9ff2cWuuFST4ysAmlBSULSgwwwAADDDCwKAM311ovK6V8cqcnejZOAQUUUEABBRQYWoHpdHr/UspPJTliIcvZcQYYYIABBhhg4E4NvHgymTxmaHNBr0cBBRRQQAEFFOhVgVLKo9ozikmOmrje6cR1UWdzPa4rBRhggAEGGOiugdfv3KR9u1cTOxurgAIKKKCAAgoMvUCt9bFJXmYRyyIWAwwwwAADDIzcwPtLKf92NpudNfT5n9engAIKKKCAAgr0tkCSJ5ZS/n7kE1dnw7t7Ntx7471hgAEGGFiUgavbG7RPp9PzejuRs+EKKKCAAgoooMDICpzRXjKf5K0WspyFZ4ABBhhggIGBG7ghyaUbGxv3G9l8z8tVQAEFFFBAAQWGUaD9xcIkz6i1fmDgE9dFncn1uK4SYIABBhhgoLsGbmwXrjY3Nx84jJmbV6GAAgoooIACCoy8wIEDB85vL6lPcq2FLGfhGWCAAQYYYKDnBm6utf5yKeXhI5/iefkKKKCAAgoooMAwC2xubt53dyHrup5PXJ0N7+7ZcO+N94YBBhhgYJEGXpRkc5gzNa9KAQUUUEABBRRQ4DYFptPpBbXW5yS53kKWs/AMMMAAAwww0AMDf1VrffxtJjT+QQEFFFBAAQUUUGAcBQ4dOvSQJD+b5KYeTFwXeTbXY7tagAEGGGCAgW4aeGWt9cnjmJl5lQoooIACCiiggALHLbC7kHVpkiMWspyFZ4ABBhhggIFVGyil/H37i8pra2v7jjuJ8R8VUEABBRRQQAEFxlegaZpHJ3mehSwHLqs+cPH8DDLAAAOjNfBqC1fjm4N6xQoooIACCiigwJ4KTCaTxyR5fpKbHUCM9gDCV2m6+VUa74v3hQEGhmqgvceVrwruaebmLymggAIKKKCAAiMvUGv9tN0rstwjywHTUA+YvC62GWCAgdUaaBeunjLyKZeXr4ACCiiggAIKKDCPApPJ5KF+tdCVWK7GY4ABBhhgYI4G/tLC1TxmaR5DAQUUUEABBRRQ4A4FNjc3P2V3Ietjc5zAOvO92jPf+uvPAAMMMLBMAxau7jDD8i8UUEABBRRQQAEFFlJgOp1esLuQdZ2FLGfjGWCAAQYYYOAEBo4m+YNa6+MXMjHxoAoooIACCiiggAIKHK/AdDq9f5IfSHL1CSauyzyz67lcScAAAwwwwEA3DLT30PyV9sdhjjef8N8UUEABBRRQQAEFFFhKgel0el6t9cJSyrstZDkLzwADDDDAwOgNXN/+CMxkMnnEUiYinkQBBRRQQAEFFFBAgVMpsL6+fk6Sr07yOgcvoz94cfVDN65+8D54HxhgYJkGPtreYmBzc/OBpzJ/8GcVUEABBRRQQAEFFFhVgTPaXxZK8lcWsixkMcAAAwwwMHgD709y8cGDB++9qomH51VAAQUUUEABBRRQ4LQKlFIeV0p5YZL2Bq7LPAvsufRmgAEGGGBgsQbe3N5CYDab3fW0Jgv+sgIKKKCAAgoooIACXSmQ5NOT/EKSGy1kWchjgAEGGGCgvwZqrS+dTCZPW1tbO6Mr8wzboYACCiiggAIKKKDAXAtMp9MLaq3fn+SDDl76e/DivfPeMcAAA6MzcEN7Y/ZSSjPXiYEHU0ABBRRQQAEFFFCgywX2799/l90bvv+Tg6DRHQT5Ss9iv9Kjr74MMDBPA5cnuaQ9AdXleYVtU0ABBRRQQAEFFFBg4QXa+2TVWi9LcsRilsUsBhhggAEGOmHgDe39rUop5y58IuAJFFBAAQUUUEABBRToU4Gmafa3P7+d5GoHL504eJnnGXyP5YoQBhhgoPsGbk7yovaXhNfW1vb1aQ5hWxVQQAEFFFBAAQUUWHqB6XR63u5Z37dZyLKQxQADDDDAwMINtCeOLp1Op+tLH/Q9oQIKKKCAAgoooIACfS8wm83Oan/lKMmfJDnqAGbhBzCujuj+1RHeI+8RAwzM08Drk3zbwYMH7933OYPtV0ABBRRQQAEFFFCgEwXarxe2N5FNcoWFLAtZDDDAAAMM7NnAJxImSgAAC7lJREFUkVLKC5M80dcEOzHFsREKKKCAAgoooIACQyzQ/nphKWW7vUeHg5c9H7zM8+y9x3I1CAMMMNAPA+9pTwTVWh88xPmB16SAAgoooIACCiigQGcLNE1T2nt2JLnGYpbFLAYYYIABBu5g4OM3ZW9P/LRfy+/sgG7DFFBAAQUUUEABBRQYQ4H23h1JvjVJey8PVwJowAADDDAwdgPvT/K9hw4desgY5gFeowIKKKCAAgoooIACfSuwr2maz6i1/nySay1mWcxjgAEGGBiRgfbHTv6s1vrl6+vr5/RtALe9CiiggAIKKKCAAgqMssB0Oj0vyVe7V5aD1xEdvI79ihOv31VXYzXw8XtbTafTTx3lgO9FK6CAAgoooIACCigwlAJN0zx69xcML7eYYUGLAQYYYGAABq5vf0nQva2GMlPxOhRQQAEFFFBAAQUUuFWB9isVtdan1FovS3LTAA5gxnq1gdftShsGGBilgZ0Fq9eUUi4qpXzirYY3/68CCiiggAIKKKCAAgoMtcDm5uan1Fq/K8mbLGS5GoMBBhhgoMMG2quH/2fTNBtDHZO9LgUUUEABBRRQQAEFFDiJAk3TlFrrc5L4iqGrOkZ5VUeHD9y9Hz6TYzVwc3sPx/Yrgm7IfhIDuT+igAIKKKCAAgoooMCYCrQHCZPJ5GmllN9KcoODeldkMMAAAwws2cDfJvm2UsonjWn89VoVUEABBRRQQAEFFFBgjwUOHjx471v9imH70+RjvQrA6/beM8AAA4s18PbdHxp55B6HLH9NAQUUUEABBRRQQAEFFFhba3+avJTy390vyyKehUwGGGBgTgbek+RZtdZqnFVAAQUUUEABBRRQQAEF5l6g1vppSS62mOUgdk4Hsa5sWeyVLfrq2yUDH0nyvPbXcGez2VlzH6A8oAIKKKCAAgoooIACCihwrAK3Wsx6q8UMC1oMMMAAA8cwcH0p5YXtV9JLKeceayzx7xRQQAEFFFBAAQUUUECBZRU4o9b6maWUH6u1fuAYBzBdugLAtrgihQEGGFisgevaHwOptf6r6XR63rIGIs+jgAIKKKCAAgoooIACCpx0ge3t7TOTPLHW+tNJrrCY5YoMBhhgYBQGrk7ya6WU7Y2Njbuf9KDhDyqggAIKKKCAAgoooIACqy7QLmaVUh63++tSb3IQO4qDWFe2LPbKFn317ZKBD9daL2u/HmjRatUjrudXQAEFFFBAAQUUUECBuRW41T2zXmUxy2IWAwww0EsDV95yI/b19fVz5jZAeCAFFFBAAQUUUEABBRRQoIsFSimPqrV+R5K/TXLUgWwvD2S7dCWIbXFlEgMLMlBKeXd7j8OmaZ7QXlnbxTHFNimggAIKKKCAAgoooIACCy9Qa31wKeWbk7w4yQ0WsyxmMcAAAys1cHOSV5ZSvrOU0qytre1b+EDgCRRQQAEFFFBAAQUUUECBPhVof2a91vqUJJe2Z/0dxK70INYVLQu6ooVrrjto4NpSyguTPGNra+tBfRo3bKsCCiiggAIKKKCAAgoosPIC7X2zSikX7fyy4cuTtFcFWFTRgAEGGJiDgVLK29qTBe1Jg/37999l5Tt8G6CAAgoooIACCiiggAIKDKHA5ubmfdufaG9vIJzkIxazLOYxwAADp2TgSJL2RzQubpqm+GrgEEZGr0EBBRRQQAEFFFBAAQU6XaD99ata62cnuSTJ/3J11ikdxLp6ZQ5Xr1g4Ya4nBt7aXmWV5Mu2trY+odM7dhungAIKKKCAAgoooIACCgy9QCnlE3evzmoP1N7RkwNLC0kWkhhgYN4Grknyovar17tXWQ199+/1KaCAAgoooIACCiiggAL9LbDzNcOHtTcjrrVeluSjFrRcLcMAAwM1cMvXAturUZ/YXp3a3z23LVdAAQUUUEABBRRQQAEFRlygvTlxKeWzknxvkr9McuNAD2TnfSWHx3N1EAPdNPCGJD+a5Ium0+l5I969e+kKKKCAAgoooIACCiigwHALlFLOLaU8bvfXDV+U5HoLWq7OYYCBDht4y+6PVzzj0KFDDxnu3tkrU0ABBRRQQAEFFFBAAQUUuNMCFrQsXHR44cIVUN28AmrR70u7YNXez++ra60PvtOdl/+ggAIKKKCAAgoooIACCigw3gLtglZ7L5la6/ck+fMk7U2RF33A6vE1ZmCcBm5K8spa6w/VWp9y4MCB88e79/XKFVBAAQUUUEABBRRQQAEF9lxgNpudNZlMUkr5liS/muSdFrQs6DHAwB4NXJ3kJe09+WqtTz58+PA997xz8hcVUEABBRRQQAEFFFBAAQUUOF6BUsontVdLJGl/+evl7qNlMWOPixmuuhr+VVcfv39VrfXC9t57fiXweHtW/00BBRRQQAEFFFBAAQUUUGChBdqvHdZaH19K+fYkv5nkHRY0LGoxMDoDVyb5/VrrdzVN87kHDx6890J3PB5cAQUUUEABBRRQQAEFFFBAgdMtsLGxcb+de9t8fnswm+QFSd5rQWN0CxqusBruFVY3JHlVKeXH2putTyaTR5zuPsPfV0ABBRRQQAEFFFBAAQUUUKATBTY3Nx+4+9XDi0spL6y1fsCilkUtBjpv4KrdrwpfestXAWez2V07sVOxEQoooIACCiiggAIKKKCAAgoso0C7qLX7q4cXJnleKeU1SY5Y1Oj8ooarqwZ4dVWt9UPtYlWt9TntlVW11k9bW1s7Yxn7As+hgAIKKKCAAgoooIACCiigQK8KbGxs3L2UMt352uEzdr+i1N4o/qMWtSxqMTA3AzcmeW2S30jyX9qv+7Y/ztCrHYWNVUABBRRQQAEFFFBAAQUUUKCDBfbtXKH1sMlk8rQk/7mU8kvtPXiSXGNRY26LGq6qGt5VVe1C1T/XWi9L0n51d7u9qqqUcnYHP+M2SQEFFFBAAQUUUEABBRRQQIHhFrjla4jtFVu7X316UZL3WdiysDUiA+1C1Vvae8sluaT9+l/TNMW9qoa73/PKFFBAAQUUUEABBRRQQAEFBlKg/SXEUspn7SxmfUMp5QdLKb+V5B+TXDuihQ1XVQ3nqqobSylvTPKHSX4kybc2TfOFSR45m83OGsjH1stQQAEFFFBAAQUUUEABBRRQQIFbChw4cOD89gqV9itVpZSLkly6+0trH7a45cqtFRq4ob2SKkl7FeGlrc1bvvZnkeqWT6//VUABBRRQQAEFFFBAAQUUUECBtVLKJyaZJPnSnZvHf1sp5dm7V2/9ba31Aytc3HA1Vf+vprqqvSfVjq8/KKX8VCnlO9uv+yWZ1VofvLa2ts9HUAEFFFBAAQUUUEABBRRQQAEFFDjtAu19hdqvbe1csfXEJF+3e3Psn0vyxzuLXv+U5HKLXKO8iuuWq6f+fOcHB56X5H+UUr6xlPIFST69lHKv08bnARRQQAEFFFBAAQUUUEABBRRQQIF5FVhfXz9nOp1eUEqZJnlqex+udqEryU8m+d0kf53kXUmut9jV6cWu65K8o32/dm+Q/jPtwlSt9cKd+1F9RXuPtfZX/dr7rbl6al6fHo+jgAIKKKCAAgoooIACCiiggAKdK7CxsXH3Uson7yxsbZZSnpTk6UmeWWv9rvZXFUspv7R74+6/ae+PVGv9UJKbLXyd0sLXjbtf/3xDkrbjH5dSfn13QfGS3fugtTf7/+Kd+08dnkwmjzh8+PA9O4fFBimggAIKKKCAAgoooIACCiiggAJ9KtAufE2n0/s3TbO/vSF90zRPSPJFtdav3P3qWnsD8O/b/cW659ZaL0vyG7s3CG9vEv63SV6V5E27Nw6/fHdx7MYVLo4d2d2G9+1uU/urka+qtf5prfWPdl/DL+7edP9ZSS6ptX7Hzi9L/sckz2hfe/vLfKWUx7VXRm1tbT2o7dSn99W2KqCAAgoooIACCiiggAIKKKCAAgqcZIFSyrntrzXe/v92rxZ72M59nm7zf5PJ5DG7C2ntrzs+/Pb/fXNz8763f6z2q5YnuTn+mAIKKKCAAgoooMBxCvwfdlgpecbHfv0AAAAASUVORK5CYII=;" vertex="1" parent="7OAMDePOKl8OXuFvk6ht-17">
          <mxGeometry x="210" y="136.83000000000004" width="82" height="83.17" as="geometry" />
        </mxCell>
        <mxCell id="lb-JzeNZJQvW_3VLoPYO-14" value="&lt;span style=&quot;text-wrap-mode: wrap;&quot;&gt;api&lt;/span&gt;" style="outlineConnect=0;dashed=0;verticalLabelPosition=bottom;verticalAlign=top;align=center;html=1;shape=mxgraph.aws3.elastic_beanstalk;fillColor=#F58534;gradientColor=none;" vertex="1" parent="7OAMDePOKl8OXuFvk6ht-17">
          <mxGeometry x="402" y="30" width="67.5" height="93" as="geometry" />
        </mxCell>
        <mxCell id="lb-JzeNZJQvW_3VLoPYO-15" value="&lt;span style=&quot;color: rgb(0, 0, 0); font-size: 12px; font-weight: 400;&quot;&gt;Udagram-frontend on s3&lt;/span&gt;" style="sketch=0;outlineConnect=0;fontColor=#232F3E;gradientColor=none;strokeColor=#ffffff;fillColor=#232F3E;dashed=0;verticalLabelPosition=middle;verticalAlign=bottom;align=center;html=1;whiteSpace=wrap;fontSize=10;fontStyle=1;spacing=3;shape=mxgraph.aws4.productIcon;prIcon=mxgraph.aws4.s3;" vertex="1" parent="7OAMDePOKl8OXuFvk6ht-17">
          <mxGeometry x="387.5" y="220" width="80" height="135" as="geometry" />
        </mxCell>
        <mxCell id="lb-JzeNZJQvW_3VLoPYO-19" value="" style="endArrow=classic;startArrow=none;html=1;rounded=0;startFill=0;" edge="1" parent="7OAMDePOKl8OXuFvk6ht-17">
          <mxGeometry width="50" height="50" relative="1" as="geometry">
            <mxPoint x="130" y="177.96000000000004" as="sourcePoint" />
            <mxPoint x="194" y="177.96000000000004" as="targetPoint" />
          </mxGeometry>
        </mxCell>
        <mxCell id="lb-JzeNZJQvW_3VLoPYO-23" value="" style="edgeStyle=elbowEdgeStyle;elbow=horizontal;endArrow=classic;html=1;curved=0;rounded=0;endSize=8;startSize=8;" edge="1" parent="7OAMDePOKl8OXuFvk6ht-17">
          <mxGeometry width="50" height="50" relative="1" as="geometry">
            <mxPoint x="310" y="173" as="sourcePoint" />
            <mxPoint x="360" y="123" as="targetPoint" />
          </mxGeometry>
        </mxCell>
        <mxCell id="lb-JzeNZJQvW_3VLoPYO-25" value="new version deploy" style="text;html=1;align=center;verticalAlign=middle;whiteSpace=wrap;rounded=0;" vertex="1" parent="7OAMDePOKl8OXuFvk6ht-17">
          <mxGeometry x="402" y="163.40999999999997" width="60" height="30" as="geometry" />
        </mxCell>
        <mxCell id="7OAMDePOKl8OXuFvk6ht-30" value="" style="swimlane;startSize=0;" parent="1" vertex="1">
          <mxGeometry x="10" y="190" width="690" height="440" as="geometry" />
        </mxCell>
        <mxCell id="lb-JzeNZJQvW_3VLoPYO-1" value="&lt;span style=&quot;text-wrap-mode: wrap; background-color: rgb(236, 236, 236);&quot;&gt;Amazon RDS&amp;nbsp;&lt;/span&gt;&lt;div&gt;&lt;span style=&quot;text-wrap-mode: wrap; background-color: rgb(236, 236, 236);&quot;&gt;hosting postgres&lt;/span&gt;&lt;/div&gt;" style="image;aspect=fixed;perimeter=ellipsePerimeter;html=1;align=center;shadow=0;dashed=0;spacingTop=3;image=img/lib/active_directory/database.svg;" vertex="1" parent="7OAMDePOKl8OXuFvk6ht-30">
          <mxGeometry x="22.84" y="160" width="124.32" height="92" as="geometry" />
        </mxCell>
        <mxCell id="lb-JzeNZJQvW_3VLoPYO-2" value="&lt;span style=&quot;text-wrap-mode: wrap;&quot;&gt;Udagram-api&amp;nbsp;&lt;/span&gt;&lt;div&gt;&lt;span style=&quot;text-wrap-mode: wrap;&quot;&gt;on elastic beanstalk&lt;/span&gt;&lt;/div&gt;" style="outlineConnect=0;dashed=0;verticalLabelPosition=bottom;verticalAlign=top;align=center;html=1;shape=mxgraph.aws3.elastic_beanstalk;fillColor=#F58534;gradientColor=none;" vertex="1" parent="7OAMDePOKl8OXuFvk6ht-30">
          <mxGeometry x="311.25" y="152.5" width="67.5" height="93" as="geometry" />
        </mxCell>
        <mxCell id="lb-JzeNZJQvW_3VLoPYO-3" value="&lt;span style=&quot;color: rgb(0, 0, 0); font-size: 12px; font-weight: 400;&quot;&gt;Udagram-frontend on s3&lt;/span&gt;" style="sketch=0;outlineConnect=0;fontColor=#232F3E;gradientColor=none;strokeColor=#ffffff;fillColor=#232F3E;dashed=0;verticalLabelPosition=middle;verticalAlign=bottom;align=center;html=1;whiteSpace=wrap;fontSize=10;fontStyle=1;spacing=3;shape=mxgraph.aws4.productIcon;prIcon=mxgraph.aws4.s3;" vertex="1" parent="7OAMDePOKl8OXuFvk6ht-30">
          <mxGeometry x="573" y="165" width="80" height="135" as="geometry" />
        </mxCell>
        <mxCell id="lb-JzeNZJQvW_3VLoPYO-4" value="user" style="image;aspect=fixed;perimeter=ellipsePerimeter;html=1;align=center;shadow=0;dashed=0;spacingTop=3;image=img/lib/active_directory/user.svg;" vertex="1" parent="1">
          <mxGeometry x="800" y="360" width="37" height="100" as="geometry" />
        </mxCell>
        <mxCell id="lb-JzeNZJQvW_3VLoPYO-16" value="user push the code" style="html=1;verticalLabelPosition=bottom;align=center;labelBackgroundColor=#ffffff;verticalAlign=top;strokeWidth=2;strokeColor=#0080F0;shadow=0;dashed=0;shape=mxgraph.ios7.icons.user;" vertex="1" parent="1">
          <mxGeometry x="20" y="960" width="80" height="83" as="geometry" />
        </mxCell>
        <mxCell id="lb-JzeNZJQvW_3VLoPYO-18" value="" style="endArrow=classic;startArrow=none;html=1;rounded=0;startFill=0;" edge="1" parent="1">
          <mxGeometry width="50" height="50" relative="1" as="geometry">
            <mxPoint x="117" y="1008" as="sourcePoint" />
            <mxPoint x="181" y="1008" as="targetPoint" />
          </mxGeometry>
        </mxCell>
        <mxCell id="lb-JzeNZJQvW_3VLoPYO-24" value="" style="edgeStyle=elbowEdgeStyle;elbow=horizontal;endArrow=classic;html=1;curved=0;rounded=0;endSize=8;startSize=8;" edge="1" parent="1">
          <mxGeometry width="50" height="50" relative="1" as="geometry">
            <mxPoint x="470" y="1003" as="sourcePoint" />
            <mxPoint x="520" y="1100" as="targetPoint" />
          </mxGeometry>
        </mxCell>
      </root>
    </mxGraphModel>
  </diagram>
</mxfile>
